<svg width="176" height="65" viewBox="0 0 176 65" fill="none" xmlns="http://www.w3.org/2000/svg">
<path d="M24.1826 64.8268V56.5928H28.5105C30.0791 56.5928 30.8823 57.5948 30.8823 58.6915C30.8823 59.7313 30.2398 60.4214 29.4649 60.5822C30.3437 60.7145 31.043 61.5653 31.043 62.6052C31.043 63.8436 30.2114 64.8268 28.6523 64.8268H24.1826ZM29.0964 58.994C29.0964 58.474 28.7278 58.0959 28.1325 58.0959H25.9402V59.8826H28.1325C28.7278 59.8826 29.0964 59.5139 29.0964 58.994ZM29.257 62.35C29.257 61.83 28.8885 61.3857 28.1986 61.3857H25.9402V63.2953H28.1986C28.8696 63.2953 29.257 62.9361 29.257 62.3405V62.35Z" fill="white"/>
<path d="M39.7365 64.8268L38.1207 61.8962H36.8355V64.8268H35.0874V56.5928H38.9428C40.6626 56.5928 41.7114 57.7177 41.7114 59.2492C41.7114 60.7807 40.7949 61.4803 39.9066 61.6977L41.7587 64.8362H39.746L39.7365 64.8268ZM39.9066 59.2492C39.9066 58.5591 39.3774 58.1432 38.6687 58.1432H36.8261V60.3647H38.6687C39.368 60.3647 39.9066 59.9488 39.9066 59.2492Z" fill="white"/>
<path d="M51.4065 64.8268L50.8963 63.4277H47.3622L46.8425 64.8268H44.8391L48.0236 56.5928H50.2159L53.3909 64.8268H51.3877H51.4065ZM49.1387 58.3417L47.8535 61.8867H50.4238L49.1387 58.3417Z" fill="white"/>
<path d="M62.5664 64.8268L58.6449 59.4572V64.8268H56.8967V56.5928H58.7016L62.5192 61.7638V56.5928H64.2674V64.8268H62.5759H62.5664Z" fill="white"/>
<path d="M68.5952 64.8268V56.5928H71.8458C74.4256 56.5928 76.2115 58.2377 76.2115 60.7145C76.2115 63.1913 74.4256 64.8268 71.8458 64.8268H68.5952ZM74.4256 60.7145C74.4256 59.2587 73.5373 58.1337 71.8458 58.1337H70.3528V63.2859H71.8458C73.4712 63.2859 74.4256 62.1136 74.4256 60.7145Z" fill="white"/>
<path d="M86.0483 64.8268V56.5928H89.299C91.8787 56.5928 93.6646 58.2377 93.6646 60.7145C93.6646 63.1913 91.8787 64.8268 89.299 64.8268H86.0483ZM91.8787 60.7145C91.8787 59.2587 90.9904 58.1337 89.299 58.1337H87.8059V63.2859H89.299C90.9243 63.2859 91.8787 62.1136 91.8787 60.7145Z" fill="white"/>
<path d="M97.624 64.8268V56.5928H103.454V58.1337H99.3816V59.8731H103.369V61.4141H99.3816V63.2764H103.454V64.8173H97.624V64.8268Z" fill="white"/>
<path d="M106.979 63.6736L107.933 62.3407C108.51 62.9457 109.417 63.4562 110.551 63.4562C111.515 63.4562 111.987 63.0119 111.987 62.5392C111.987 61.0834 107.244 62.0854 107.244 58.9847C107.244 57.6139 108.425 56.4795 110.362 56.4795C111.666 56.4795 112.753 56.8765 113.575 57.6234L112.601 58.9091C111.931 58.2946 111.042 58.011 110.211 58.011C109.455 58.011 109.039 58.3418 109.039 58.8429C109.039 60.1475 113.764 59.2777 113.764 62.3501C113.764 63.8532 112.686 64.9877 110.466 64.9877C108.888 64.9877 107.754 64.4582 106.988 63.6831L106.979 63.6736Z" fill="white"/>
<path d="M117.657 64.8268V56.5928H119.405V64.8268H117.657Z" fill="white"/>
<path d="M123.355 60.7147C123.355 58.1055 125.33 56.4512 127.739 56.4512C129.459 56.4512 130.527 57.3115 131.141 58.2946L129.686 59.0887C129.318 58.512 128.609 58.011 127.739 58.011C126.246 58.011 125.16 59.1549 125.16 60.7147C125.16 62.2745 126.246 63.4184 127.739 63.4184C128.467 63.4184 129.157 63.097 129.488 62.785V61.8019H127.314V60.2704H131.236V63.4279C130.395 64.3638 129.223 64.9877 127.73 64.9877C125.32 64.9877 123.345 63.305 123.345 60.7147H123.355Z" fill="white"/>
<path d="M141.026 64.8268L137.104 59.4572V64.8268H135.356V56.5928H137.161L140.978 61.7638V56.5928H142.727V64.8268H141.035H141.026Z" fill="white"/>
<path d="M74.4351 33.7909C79.9514 33.7909 84.4233 29.3171 84.4233 23.7985C84.4233 18.2799 79.9514 13.8062 74.4351 13.8062C68.9189 13.8062 64.447 18.2799 64.447 23.7985C64.447 29.3171 68.9189 33.7909 74.4351 33.7909Z" fill="white"/>
<path d="M83.4027 5.28857C82.968 5.61944 82.4293 5.71396 81.9474 5.60052C81.8057 5.5438 81.6545 5.47762 81.5033 5.4209C75.3423 3.06698 68.1417 3.87998 62.5476 8.20024C60.979 9.41029 59.6466 10.8094 58.5505 12.3503C59.1741 12.5205 59.76 12.823 60.2703 13.2673C61.2247 11.9627 62.3775 10.7716 63.7194 9.73173C66.8188 7.33999 70.4758 6.13939 74.1138 6.06376C74.35 6.06376 74.5863 6.06376 74.8131 6.06376C75.2288 6.14884 75.6257 6.37573 75.9092 6.74442C76.5234 7.53851 76.3722 8.69183 75.5785 9.30631C75.3517 9.47647 75.0965 9.5899 74.8414 9.64662C74.5957 9.64662 74.35 9.64662 74.1044 9.64662C71.2317 9.72225 68.3591 10.6771 65.9117 12.5678C63.9273 14.0993 62.4626 16.0656 61.5554 18.221C61.5554 18.221 61.5554 18.221 61.5554 18.2304C61.5176 18.3155 61.4798 18.41 61.442 18.5046C61.1491 19.1474 60.705 19.7335 60.1097 20.1873C59.212 20.8869 58.1252 21.1799 57.0669 21.1043C56.4149 21.057 55.7818 20.8679 55.2054 20.5465C54.6951 20.2629 54.2321 19.8659 53.8541 19.3743C52.9848 18.2493 52.739 16.8313 53.0603 15.5551C53.2115 15.158 53.3722 14.7704 53.5423 14.3923C55.0353 11.0079 57.3693 7.945 60.5065 5.52491C67.0456 0.476732 75.4462 -0.487517 82.6467 2.22564C82.8829 2.31072 83.1191 2.40524 83.3459 2.49977C83.4877 2.60376 83.62 2.72667 83.7334 2.86847C84.3098 3.62475 84.1775 4.70244 83.4215 5.27911L83.4027 5.28857Z" fill="white"/>
<path d="M88.5147 41.8643L88.458 41.9021C87.6643 42.5071 86.5209 42.3558 85.9066 41.5617C85.4909 41.0229 85.4247 40.3328 85.6609 39.7561C85.9255 39.5765 86.1807 39.378 86.4453 39.1795C86.6721 38.9998 86.8988 38.8202 87.1256 38.6311C93.9765 32.8456 95.9136 23.2408 92.2094 15.3661C92.0677 15.5079 91.9165 15.6402 91.7559 15.7631C91.3873 16.0467 90.9905 16.2641 90.5747 16.4154C92.8615 21.4541 92.6063 27.2491 90.0361 32.0326C90.0077 32.0799 89.9794 32.1366 89.9511 32.1839C89.8093 32.4391 89.6675 32.6944 89.5069 32.9401C89.4502 33.0063 89.3841 33.063 89.3085 33.1103C88.5147 33.7248 87.3619 33.583 86.7477 32.7794C86.3413 32.2595 86.2657 31.5883 86.4925 31.0116C86.5965 30.8415 86.6909 30.6807 86.7854 30.5106C89.4313 25.746 89.1573 19.6674 85.6232 15.0824L85.5948 15.0447C85.5948 15.0447 85.5948 15.0352 85.5854 15.0257C85.557 14.9974 85.5381 14.9596 85.5098 14.9312C84.338 13.3808 84.338 11.3105 85.3586 9.77905C85.6231 9.39145 85.9445 9.0322 86.3413 8.72969C86.4831 8.6257 86.6248 8.52172 86.776 8.43663C88.647 7.31167 91.1038 7.71817 92.5024 9.44817C92.5307 9.48598 92.5685 9.5238 92.5969 9.57107C92.5969 9.57107 92.6442 9.62778 92.6631 9.65615C100.402 19.6958 98.5501 34.1029 88.5147 41.8454V41.8643Z" fill="white"/>
<path d="M79.6418 45.5607C79.037 46.024 78.3566 46.3076 77.6574 46.4305C77.6574 46.4305 77.6479 46.4305 77.6385 46.4305C77.544 46.4399 77.459 46.4588 77.3645 46.4683C77.0999 46.4966 76.8353 46.525 76.5707 46.5534C69.0205 47.234 61.3003 44.1616 56.3299 37.7143C53.8069 34.4434 52.3044 30.6998 51.7658 26.8711C51.7563 26.7955 51.7469 26.7293 51.7374 26.6632C51.7374 26.6159 51.728 26.5781 51.7185 26.5308C51.6713 25.9731 51.8981 25.4058 52.3705 25.0372C53.1076 24.4605 54.1754 24.6023 54.7518 25.3397C54.9125 25.5382 55.0164 25.7745 55.0636 26.0014C55.0731 26.1054 55.092 26.2 55.1015 26.304C55.5456 29.5938 56.8307 32.8268 59.0041 35.644C62.4437 40.1061 67.433 42.668 72.6208 43.169C72.4507 42.5262 72.4318 41.8644 72.5546 41.2216C67.9622 40.7111 63.5777 38.4139 60.5349 34.4623C60.0813 33.8762 59.675 33.2712 59.3065 32.6472C59.1931 32.4487 59.0797 32.2502 58.9663 32.0517C58.7206 31.3332 58.9474 30.5108 59.5805 30.0192C60.3459 29.4236 61.4326 29.537 62.0657 30.2555C62.1791 30.4729 62.302 30.6904 62.4343 30.9078C62.7178 31.371 63.0201 31.8343 63.3698 32.2691C66.5353 36.3719 71.5246 38.2437 76.325 37.6198C76.3628 37.6198 76.3912 37.6198 76.429 37.6103C77.922 37.4402 79.4622 38.0357 80.445 39.312C80.6434 39.5672 80.804 39.8319 80.9363 40.1061C81.2293 40.7111 81.371 41.3539 81.371 42.0062C81.371 43.3486 80.7851 44.6721 79.6418 45.5513V45.5607Z" fill="white"/>
<path d="M0.0864258 28.3647C0.0864258 20.055 6.38927 14.7705 14.0623 14.7705C19.5335 14.7705 22.9637 17.5309 24.9292 20.6411L20.28 23.1652C19.0988 21.3123 16.8499 19.7336 14.0623 19.7336C9.29971 19.7336 5.83173 23.4016 5.83173 28.3647C5.83173 33.3278 9.29971 36.9957 14.0623 36.9957C16.3868 36.9957 18.5885 35.9747 19.6563 34.9916V31.8435H12.7298V26.9561H25.2504V37.043C22.5762 40.0397 18.8342 42.0061 14.0717 42.0061C6.38922 42.0061 0.0958845 36.6459 0.0958845 28.3741L0.0864258 28.3647Z" fill="white"/>
<path d="M31.2793 41.4862V15.2148H36.8734V36.5703H47.9765V41.4956H31.2793V41.4862Z" fill="white"/>
<path d="M102.321 41.949V15.6777H116.145C121.144 15.6777 123.705 18.873 123.705 22.3708C123.705 25.6796 121.654 27.8822 119.178 28.4022C121.976 28.837 124.215 31.5502 124.215 34.8589C124.215 38.801 121.579 41.949 116.58 41.949H102.33H102.321ZM117.997 23.354C117.997 21.6996 116.816 20.4801 114.926 20.4801H107.915V26.19H114.926C116.816 26.19 117.997 25.0083 117.997 23.354ZM118.508 34.0648C118.508 32.4105 117.326 30.9924 115.125 30.9924H107.915V37.0994H115.125C117.251 37.0994 118.508 35.9555 118.508 34.0648Z" fill="white"/>
<path d="M148.113 41.949L146.497 37.4965H135.233L133.58 41.949H127.201L137.359 15.6777H144.371L154.491 41.949H148.113ZM140.865 21.2648L136.774 32.5712H144.966L140.875 21.2648H140.865Z" fill="white"/>
<path d="M158.517 41.949V15.6777H164.111V37.0332H175.214V41.9585H158.517V41.949Z" fill="white"/>
</svg>
