<svg width="161" height="92" viewBox="0 0 161 92" fill="none" xmlns="http://www.w3.org/2000/svg">
<path d="M22.9837 76.412H6.39983C4.44378 76.412 2.95077 75.7691 1.92078 74.474C0.862435 73.1694 0.569508 71.5529 1.04198 69.6054L2.94128 61.7307C3.40431 59.8211 4.47213 58.2045 6.16359 56.8905C7.83615 55.5859 9.64098 54.9336 11.5781 54.9336H28.162L26.9525 59.9439H10.3686C9.03624 59.9439 8.23303 60.5395 7.9401 61.7307L6.04074 69.6054C5.75726 70.7966 6.277 71.4016 7.59993 71.4016H19.1756L19.9598 68.1401H13.1846L14.3847 63.1487H26.1681L22.9742 76.4025L22.9837 76.412Z" fill="white"/>
<path d="M46.0973 76.412H26.7258L31.9041 54.9336H36.9123L32.9436 71.4016H47.3068L46.0973 76.412Z" fill="white"/>
<path d="M77.4599 69.6147C76.9875 71.5527 75.9103 73.1787 74.2094 74.4833C72.5557 75.7689 70.7602 76.4212 68.8231 76.4212H56.227C54.2709 76.4212 52.7779 75.7784 51.7479 74.4833C50.6896 73.1787 50.3967 71.5621 50.8691 69.6147L52.7685 61.7399C53.2315 59.8303 54.2993 58.2138 55.9907 56.8998C57.6633 55.5952 59.4682 54.9429 61.4053 54.9429H74.0015C75.9292 54.9429 77.4127 55.5952 78.4522 56.8998C79.52 58.2138 79.8223 59.8303 79.3593 61.7399L77.4599 69.6147ZM74.3511 61.7399C74.6346 60.5488 74.1149 59.9532 72.792 59.9532H60.1958C58.8634 59.9532 58.0602 60.5488 57.7672 61.7399L55.8679 69.6147C55.5844 70.8059 56.1041 71.4109 57.4271 71.4109H70.0232C71.3556 71.4109 72.1589 70.8153 72.4518 69.6147L74.3511 61.7399Z" fill="white"/>
<path d="M107.84 70.4939C107.434 72.1861 106.527 73.6041 105.128 74.7291C103.72 75.854 102.133 76.4212 100.366 76.4212H79.5674L84.7457 54.9429H105.175C106.924 54.9429 108.228 55.5101 109.078 56.635C109.929 57.7316 110.136 59.1497 109.721 60.8702C109.239 62.8554 108.133 64.4058 106.394 65.5308C107.887 66.6179 108.36 68.2723 107.821 70.4939H107.84ZM101.575 71.4109C102.293 71.4109 102.785 70.8626 103.049 69.7849C103.314 68.7072 103.087 68.1589 102.369 68.1589H86.5788L85.7946 71.4203H101.585L101.575 71.4109ZM103.2 63.1674C103.919 63.1674 104.41 62.638 104.665 61.5792C104.93 60.4921 104.703 59.9532 103.975 59.9532H88.5537L87.7789 63.1674H103.2Z" fill="white"/>
<path d="M136.444 76.412H131.454L133.108 69.5676H116.808L115.154 76.412H110.146L113.727 61.5699C114.162 59.7549 115.097 58.2045 116.515 56.9283C117.989 55.5954 119.605 54.9336 121.372 54.9336H135.537C137.304 54.9336 138.608 55.5954 139.449 56.9283C140.271 58.2045 140.46 59.7549 140.016 61.5699L136.434 76.412H136.444ZM118.017 64.5667H134.318L135.036 61.5699C135.3 60.4828 135.064 59.9439 134.327 59.9439H120.162C119.472 59.9439 118.99 60.4828 118.735 61.5699L118.017 64.5667Z" fill="white"/>
<path d="M159.557 76.412H140.186L145.364 54.9336H150.372L146.403 71.4016H160.767L159.557 76.412Z" fill="white"/>
<path d="M37.7155 89.1274C37.5643 89.7324 37.243 90.2429 36.7422 90.6399C36.2319 91.0464 35.6649 91.245 35.0318 91.245H27.5762L29.4283 83.5498H36.7516C37.3753 83.5498 37.8478 83.7483 38.1502 84.1548C38.4525 84.5519 38.5281 85.0529 38.3864 85.6768C38.2163 86.3859 37.8194 86.9436 37.1957 87.3501C37.7249 87.7377 37.9045 88.3333 37.7061 89.1274H37.7155ZM35.4665 89.4582C35.7217 89.4582 35.9012 89.2597 35.9957 88.8721C36.0902 88.4845 36.0051 88.286 35.75 88.286H30.0898L29.8063 89.4488H35.4665V89.4582ZM36.0524 86.5088C36.3075 86.5088 36.4871 86.3197 36.5721 85.9415C36.6666 85.5539 36.5815 85.3554 36.3264 85.3554H30.7985L30.5244 86.5088H36.0524Z" fill="white"/>
<path d="M47.5619 91.2543H45.1145L43.4703 88.7302H40.9473L40.3425 91.2543H38.5471L40.3992 83.5591H47.8548C48.4974 83.5591 48.9699 83.8143 49.2533 84.3154C49.5368 84.7975 49.5841 85.412 49.414 86.1493C49.2345 86.8867 48.8943 87.4917 48.3746 87.9833C47.8454 88.4844 47.2595 88.7302 46.6075 88.7302H45.9177L47.5619 91.2543ZM41.382 86.934H46.9383C47.2596 86.934 47.4863 86.6693 47.6186 86.1493C47.7509 85.6199 47.647 85.3552 47.3257 85.3552H41.7694L41.3914 86.934H41.382Z" fill="white"/>
<path d="M58.1832 91.2544H56.3972L56.9926 88.806H51.1528L50.5669 91.2544H48.7715L50.0567 85.9321C50.2173 85.2798 50.548 84.722 51.0583 84.2683C51.5875 83.7956 52.1639 83.5498 52.797 83.5498H57.8713C58.5045 83.5498 58.9675 83.7862 59.2699 84.2683C59.5628 84.722 59.629 85.2798 59.4683 85.9321L58.1832 91.2544ZM51.578 87.0098H57.4178L57.6729 85.9415C57.7674 85.5539 57.6824 85.3554 57.4178 85.3554H52.3434C52.0977 85.3554 51.9277 85.5539 51.8332 85.9415L51.578 87.0098Z" fill="white"/>
<path d="M67.7176 91.2543H65.9317L62.5677 86.0643L61.3203 91.2543H59.5249L61.377 83.5591H63.1724L66.5459 88.7018L67.7837 83.5591H69.5697L67.7176 91.2543Z" fill="white"/>
<path d="M78.0742 88.8154C77.9041 89.5055 77.5262 90.0916 76.9214 90.5549C76.3356 91.0181 75.693 91.245 74.9937 91.245H69.0688L70.921 83.5498H76.8459C77.5357 83.5498 78.0648 83.7861 78.4428 84.2588C78.8113 84.7315 78.9152 85.3082 78.7546 85.9888L78.0742 88.8154ZM72.2817 85.346L71.2896 89.4488H75.4285C75.882 89.4488 76.1654 89.2314 76.2694 88.806L76.9498 85.9794C77.0537 85.554 76.8742 85.3365 76.4206 85.3365H72.2817V85.346Z" fill="white"/>
<path d="M92.9099 88.8154C92.7398 89.5055 92.3618 90.0916 91.757 90.5549C91.1711 91.0181 90.5287 91.245 89.8294 91.245H83.9045L85.7566 83.5498H91.6815C92.3713 83.5498 92.9004 83.7861 93.2784 84.2588C93.6469 84.7315 93.7509 85.3082 93.5903 85.9888L92.9099 88.8154ZM87.1174 85.346L86.1251 89.4488H90.264C90.7176 89.4488 91.0011 89.2314 91.105 88.806L91.7854 85.9794C91.8893 85.554 91.7098 85.3365 91.2563 85.3365H87.1174V85.346Z" fill="white"/>
<path d="M103.286 85.346H96.8788L96.6047 86.4993H102.586L102.152 88.286H96.1606L95.8771 89.4488H102.284L101.849 91.245H93.6565L95.5087 83.5498H103.701L103.267 85.346H103.286Z" fill="white"/>
<path d="M111.705 90.5547C111.176 91.0179 110.599 91.2448 109.985 91.2448H103.352L103.786 89.4487H110.42C110.665 89.4487 110.836 89.2501 110.93 88.8626C111.025 88.475 110.949 88.2764 110.703 88.2764H105.875C105.26 88.2764 104.797 88.0495 104.486 87.5863C104.174 87.1326 104.098 86.5748 104.259 85.913C104.419 85.2607 104.75 84.703 105.26 84.2492C105.799 83.7766 106.385 83.5308 107.009 83.5308H113.633L113.198 85.3269H106.574C106.328 85.3269 106.158 85.5254 106.064 85.913C105.969 86.2912 106.054 86.4803 106.3 86.4803H111.128C111.743 86.4803 112.206 86.7166 112.518 87.1704C112.811 87.6241 112.877 88.1913 112.716 88.8531C112.555 89.5243 112.215 90.082 111.705 90.5358V90.5547Z" fill="white"/>
<path d="M115.06 91.2543H113.264L115.116 83.5591H116.912L115.06 91.2543Z" fill="white"/>
<path d="M124.849 91.2543H118.905C118.206 91.2543 117.667 91.0274 117.299 90.5641C116.921 90.1009 116.817 89.5148 116.987 88.8247L117.667 85.9981C117.838 85.308 118.216 84.7313 118.82 84.2586C119.416 83.7954 120.068 83.5591 120.757 83.5591H126.701L126.266 85.3552H120.323C119.85 85.3552 119.557 85.5727 119.453 85.9981L118.773 88.8247C118.669 89.2501 118.858 89.4675 119.331 89.4675H123.479L123.762 88.3047H121.334L121.769 86.518H125.992L124.849 91.2637V91.2543Z" fill="white"/>
<path d="M134.384 91.2543H132.598L129.234 86.0643L127.987 91.2543H126.191L128.043 83.5591H129.839L133.212 88.7018L134.45 83.5591H136.236L134.384 91.2543Z" fill="white"/>
<path d="M106.583 5.5485C105.95 3.03386 104.136 1.42676 101.159 0.755561C99.7417 0.434142 97.6344 0.273438 94.8563 0.273438H78.2819L66.6968 45.2438H84.7359C91.8703 45.2438 97.1053 42.5212 100.432 37.0854C101.31 35.6863 102.019 33.7483 102.558 31.2715C102.898 29.5888 103.068 28.2936 103.068 27.3766C103.068 23.6992 101.112 21.6195 97.1998 21.1373L97.351 21.0144C102.047 19.7382 105.024 16.6185 106.3 11.6555C106.687 10.1807 106.885 8.85722 106.885 7.69443C106.885 7.0516 106.791 6.33313 106.593 5.53903L106.583 5.5485ZM90.4528 35.5256C88.8842 37.9268 86.2383 39.0045 82.5247 38.7681H78.5559L82.2602 24.9754H86.21C88.2133 24.9754 89.6497 25.1929 90.5285 25.6372C91.7475 26.195 92.3616 27.2159 92.3616 28.6907C92.3616 31.3282 91.7285 33.6065 90.4528 35.5256ZM95.8768 11.9674C95.4799 13.4327 95.1871 14.3592 94.9981 14.7562C93.8736 17.1669 91.0765 18.3769 86.6069 18.3769H83.8099L86.9944 6.86252H91.6529C94.6673 6.86252 96.1698 7.85515 96.1698 9.83094L95.8768 11.9674Z" fill="white"/>
<path d="M64.0889 45.244C63.7392 45.244 49.4894 45.244 42.6007 45.244C40.2573 45.244 38.0461 44.7429 36.0522 43.3627C33.0095 41.2451 31.6866 37.6055 32.5654 33.843C34.2757 26.5071 35.9766 19.1617 37.7059 11.8353C38.5186 8.39419 40.5124 5.79446 43.1583 3.76196C46.1916 1.4364 49.5744 0.235802 53.3353 0.264163C56.3214 0.292523 59.3169 0.245265 62.3029 0.273626C64.7031 0.301986 66.9615 0.925914 68.9081 2.48574C71.6296 4.6695 72.5839 7.6379 72.0169 11.1546C71.7712 12.6861 71.3177 14.1892 70.9586 15.7301H59.1657C59.7137 13.3573 60.2429 11.0506 60.791 8.65887H52.8345C50.7368 13.726 46.8341 15.6356 41.8636 15.749C41.3534 17.9233 40.8526 20.0693 40.3328 22.2908H47.0609C45.8419 27.5186 44.6513 32.6519 43.4417 37.8419H53.959C54.0441 37.511 54.1385 37.1896 54.2141 36.8682C54.6772 34.8829 55.1402 32.8977 55.6032 30.9124C56.5009 27.0176 53.9874 24.7109 51.332 24.2004C50.8879 24.1154 50.4343 24.0681 49.9146 23.983C49.9524 23.7183 49.9902 23.4442 50.0469 23.1795C50.0942 22.9337 50.1698 22.6879 50.2454 22.3759H69.4183C67.6418 29.9954 65.8654 37.5772 64.0889 45.2156V45.244Z" fill="white"/>
<path d="M147.802 6.98562C146.11 3.79034 142.983 2.20215 138.418 2.20215H112.98L101.065 44.9982H124.112C127.533 44.9982 130.226 44.6295 132.153 43.8638C137.464 41.7367 141.461 37.2463 144.135 30.3925C144.778 28.7192 145.657 25.8737 146.743 21.8276C148.029 17.0347 148.681 13.5747 148.681 11.4382C148.681 9.61369 148.388 8.1295 147.792 6.98562H147.802ZM140.204 12.0622L137.766 12.1662C137.502 17.9612 135.952 29.1352 128.478 38.8061H108.208C117.875 33.9659 130.575 25.42 136.273 12.2323L133.93 12.3363C133.731 12.3363 133.618 12.1189 133.732 11.9676L137.398 7.0707C137.502 6.93835 137.7 6.9478 137.785 7.09906L140.393 11.7218C140.479 11.8731 140.374 12.0622 140.204 12.0716V12.0622Z" fill="white"/>
</svg>
