<svg width="177" height="61" viewBox="0 0 177 61" fill="none" xmlns="http://www.w3.org/2000/svg">
<path d="M56.9141 25.208C56.9141 18.5244 61.979 14.2798 68.1589 14.2798C72.5624 14.2798 75.3122 16.5014 76.8997 18.9971L73.1672 21.0201C72.2128 19.5265 70.4079 18.2597 68.1684 18.2597C64.3414 18.2597 61.5538 21.2092 61.5538 25.1986C61.5538 29.188 64.3414 32.1375 68.1684 32.1375C70.0394 32.1375 71.8065 31.315 72.6664 30.5209V27.9874H67.0912V24.0642H77.1643V32.1753C75.0099 34.5859 72.0049 36.1647 68.1684 36.1647C61.9979 36.1647 56.9235 31.8539 56.9235 25.208H56.9141Z" fill="white"/>
<path d="M80.7268 35.7487V14.6201H85.2248V31.7877H94.1545V35.7487H80.7268Z" fill="white"/>
<path d="M95.4114 25.208C95.4114 18.8364 100.07 14.2798 106.429 14.2798C112.789 14.2798 117.476 18.8458 117.476 25.208C117.476 31.5703 112.817 36.1363 106.429 36.1363C100.042 36.1363 95.4114 31.5703 95.4114 25.208ZM112.855 25.208C112.855 21.247 110.323 18.2692 106.429 18.2692C102.536 18.2692 100.032 21.247 100.032 25.208C100.032 29.1691 102.536 32.1469 106.429 32.1469C110.323 32.1469 112.855 29.1407 112.855 25.208Z" fill="white"/>
<path d="M120.651 35.7487V14.6201H131.763C135.789 14.6201 137.84 17.182 137.84 20.0086C137.84 22.665 136.195 24.4423 134.201 24.8583C136.45 25.208 138.255 27.3918 138.255 30.0577C138.255 33.2246 136.129 35.7582 132.113 35.7582H120.651V35.7487ZM133.257 20.7933C133.257 19.4603 132.302 18.4771 130.79 18.4771H125.158V23.0716H130.79C132.312 23.0716 133.257 22.1262 133.257 20.7933ZM133.672 29.4054C133.672 28.0724 132.718 26.938 130.951 26.938H125.158V31.8444H130.951C132.661 31.8444 133.672 30.9274 133.672 29.4054Z" fill="white"/>
<path d="M156.209 35.7487L154.915 32.1658H145.862L144.53 35.7487H139.399L147.573 14.6201H153.204L161.34 35.7487H156.209ZM150.379 19.12L147.091 28.2143H153.677L150.388 19.12H150.379Z" fill="white"/>
<path d="M163.296 35.7487V14.6201H167.794V31.7877H176.724V35.7487H163.296Z" fill="white"/>
<path d="M25.3715 0.761153C24.7762 3.02054 23.7557 5.18539 22.3288 7.13281C21.5067 8.25778 20.5523 9.30711 19.4562 10.2619C16.7064 12.6631 13.4558 14.1379 10.1012 14.7051C8.75937 14.932 7.39864 15.0076 6.04736 14.9509C7.75772 15.3196 9.49644 15.5465 11.254 15.6315C17.4529 15.9246 23.5761 14.4026 28.9435 11.2167C31.3247 9.80816 33.4981 8.10652 35.4069 6.1591C36.3802 5.17593 37.2779 4.1266 38.1095 3.02999C34.2352 0.798961 29.6994 0.0237792 25.3621 0.761153H25.3715Z" fill="white"/>
<path d="M28.5088 20.6228C30.6539 18.751 32.4871 16.6618 34.0084 14.4118C35.9928 11.4812 37.448 8.28596 38.3646 4.96777C37.741 5.73351 37.0701 6.47088 36.3708 7.17989C34.4148 9.16513 32.1942 10.9046 29.7656 12.3415C24.2755 15.5935 18.0294 17.1533 11.6888 16.8508C8.90116 16.7185 6.16081 16.2269 3.51495 15.4044C0.944693 19.044 -0.236497 23.4115 0.0564375 27.7223C3.87403 28.611 7.83337 28.7906 11.7266 28.2612C17.7364 27.4482 23.5857 24.9147 28.4994 20.6228H28.5088Z" fill="white"/>
<path d="M53.6349 13.5141C52.3025 15.4331 51.3103 17.6075 50.7528 19.9614C50.4315 21.3132 50.252 22.7218 50.2331 24.1776C50.1858 27.8362 51.1686 31.2583 52.9167 34.1889C53.616 35.3611 54.4381 36.4483 55.3641 37.4409C53.9751 36.3821 52.671 35.2099 51.4709 33.9148C47.2281 29.3865 44.4216 23.7333 43.3633 17.5791C42.8908 14.8565 42.7774 12.0961 43.0136 9.37345C43.1365 7.99323 43.3444 6.63195 43.6373 5.28955C47.8518 6.80211 51.3764 9.74215 53.6349 13.5236V13.5141Z" fill="white"/>
<path d="M36.4274 24.2817C36.4652 21.4362 36.8621 18.6852 37.5897 16.0666C38.5347 12.6539 40.0183 9.47752 41.9554 6.62256C41.7759 7.59627 41.653 8.57943 41.5585 9.57205C41.3128 12.3514 41.4357 15.1685 41.9081 17.9573C42.9948 24.2439 45.858 30.02 50.1954 34.6522C52.1042 36.6942 54.2492 38.462 56.5927 39.9367C55.4871 44.257 52.9263 47.9816 49.4583 50.5625C46.3022 48.2274 43.5996 45.3347 41.4829 42.0165C38.204 36.9116 36.3424 30.8141 36.418 24.2911L36.4274 24.2817Z" fill="white"/>
<path d="M29.1134 60.7058C28.3102 58.5126 27.1101 56.4423 25.5131 54.6366C24.5965 53.5968 23.5476 52.6325 22.3665 51.7817C19.4088 49.6358 16.0353 48.4635 12.6524 48.1988C11.2917 48.0948 9.93094 48.1421 8.58911 48.3217C10.2522 47.8018 11.9626 47.4142 13.7107 47.1684C19.8623 46.3081 26.0896 47.2724 31.7309 49.9572C34.2256 51.1483 36.5501 52.642 38.629 54.4003C39.6874 55.2984 40.6796 56.2532 41.6056 57.2647C37.9487 59.8361 33.5074 61.0272 29.1134 60.6869V60.7058Z" fill="white"/>
<path d="M30.0774 40.116C32.383 41.7893 34.3958 43.6989 36.1156 45.807C38.3551 48.5391 40.0938 51.5926 41.3128 54.8162C40.623 54.1072 39.8954 53.436 39.13 52.7932C37.0038 50.9876 34.632 49.4655 32.0806 48.246C26.3165 45.5045 19.957 44.5214 13.6731 45.4005C10.9044 45.7881 8.23015 46.5255 5.66934 47.5843C2.7778 44.1905 1.20917 39.9459 1.10522 35.6256C4.82832 34.3966 8.75931 33.8483 12.6808 34.028C18.738 34.2927 24.7951 36.2873 30.0774 40.1066V40.116Z" fill="white"/>
<path d="M94.6931 47.1402V40.8726H97.991C99.1816 40.8726 99.7958 41.6288 99.7958 42.4702C99.7958 43.2548 99.3045 43.7842 98.7186 43.9071C99.3895 44.0111 99.9187 44.654 99.9187 45.4481C99.9187 46.384 99.2856 47.1402 98.0949 47.1402H94.6931ZM98.4257 42.7065C98.4257 42.3095 98.1422 42.0164 97.698 42.0164H96.0255V43.3777H97.698C98.1516 43.3777 98.4257 43.0941 98.4257 42.7065ZM98.5485 45.259C98.5485 44.862 98.265 44.5216 97.7453 44.5216H96.0255V45.9774H97.7453C98.2556 45.9774 98.5485 45.7033 98.5485 45.259Z" fill="white"/>
<path d="M105.588 47.1402L104.36 44.9187H103.387V47.1402H102.054V40.8726H104.984C106.288 40.8726 107.091 41.7234 107.091 42.8956C107.091 44.0679 106.391 44.5973 105.721 44.758L107.129 47.1402H105.598H105.588ZM105.721 42.8956C105.721 42.3662 105.314 42.0542 104.785 42.0542H103.387V43.7464H104.785C105.324 43.7464 105.721 43.425 105.721 42.9051V42.8956Z" fill="white"/>
<path d="M113.535 47.1402L113.148 46.0815H110.464L110.067 47.1402H108.546L110.965 40.8726H112.638L115.047 47.1402H113.526H113.535ZM111.806 42.215L110.833 44.9092H112.789L111.816 42.215H111.806Z" fill="white"/>
<path d="M121.086 47.1402L118.099 43.0563V47.1402H116.767V40.8726H118.137L121.038 44.8052V40.8726H122.371V47.1402H121.086Z" fill="white"/>
<path d="M124.733 47.1402V40.8726H127.199C129.165 40.8726 130.525 42.1204 130.525 44.0111C130.525 45.9018 129.165 47.1402 127.199 47.1402H124.733ZM129.165 44.0111C129.165 42.9051 128.484 42.0448 127.199 42.0448H126.065V45.9586H127.199C128.437 45.9586 129.165 45.0699 129.165 44.0017V44.0111Z" fill="white"/>
<path d="M136.139 47.1402V40.8726H138.605C140.57 40.8726 141.931 42.1204 141.931 44.0111C141.931 45.9018 140.57 47.1402 138.605 47.1402H136.139ZM140.57 44.0111C140.57 42.9051 139.89 42.0448 138.605 42.0448H137.471V45.9586H138.605C139.843 45.9586 140.57 45.0699 140.57 44.0017V44.0111Z" fill="white"/>
<path d="M144.01 47.1402V40.8726H148.442V42.0448H145.342V43.3683H148.376V44.5405H145.342V45.9586H148.442V47.1308H144.01V47.1402Z" fill="white"/>
<path d="M150.19 46.2609L150.918 45.2494C151.362 45.7126 152.042 46.0907 152.911 46.0907C153.639 46.0907 153.998 45.7504 153.998 45.3911C153.998 44.2851 150.398 45.0414 150.398 42.6875C150.398 41.6476 151.296 40.7778 152.77 40.7778C153.762 40.7778 154.593 41.0804 155.208 41.6476L154.471 42.6213C153.96 42.1486 153.289 41.9312 152.647 41.9312C152.07 41.9312 151.759 42.1864 151.759 42.5646C151.759 43.5572 155.349 42.8954 155.349 45.2305C155.349 46.3743 154.537 47.2441 152.845 47.2441C151.645 47.2441 150.776 46.8375 150.199 46.2514L150.19 46.2609Z" fill="white"/>
<path d="M157.372 47.1402V40.8726H158.704V47.1402H157.372Z" fill="white"/>
<path d="M160.773 44.0111C160.773 42.0259 162.276 40.7686 164.109 40.7686C165.413 40.7686 166.226 41.4303 166.698 42.1677L165.593 42.7727C165.309 42.3284 164.78 41.9597 164.109 41.9597C162.975 41.9597 162.144 42.8294 162.144 44.0206C162.144 45.2117 162.966 46.072 164.109 46.072C164.667 46.072 165.186 45.8262 165.441 45.5899V44.843H163.788V43.6802H166.774V46.0814C166.131 46.7904 165.243 47.2631 164.109 47.2631C162.276 47.2631 160.773 45.9869 160.773 44.0111Z" fill="white"/>
<path d="M173.275 47.1402L170.289 43.0563V47.1402H168.957V40.8726H170.327L173.228 44.8052V40.8726H174.56V47.1402H173.275Z" fill="white"/>
</svg>
