<svg width="216" height="54" viewBox="0 0 216 54" fill="none" xmlns="http://www.w3.org/2000/svg">
<path d="M69.9776 31.0984C68.409 31.0984 67.0861 30.5501 65.9994 29.4441C64.8938 28.338 64.3457 27.0145 64.3457 25.4642V18.4024C64.3457 16.852 64.8938 15.519 65.9994 14.4224C67.105 13.3164 68.4279 12.7681 69.9776 12.7681H86.1835V17.0032H72.803C72.0187 17.0032 71.3572 17.2774 70.7997 17.8257C70.2422 18.374 69.9776 19.0452 69.9776 19.8298V24.065C69.9776 24.8402 70.2516 25.5019 70.7997 26.0692C71.3478 26.608 72.0187 26.8822 72.803 26.8822H79.8429C80.2303 26.8822 80.561 26.7498 80.854 26.4851C81.128 26.2015 81.2697 25.8612 81.2697 25.4736C81.2697 25.086 81.128 24.7551 80.854 24.481C80.5705 24.2068 80.2303 24.065 79.8429 24.065H74.9197V19.8298H81.2697C82.8195 19.8298 84.1518 20.3781 85.248 21.4842C86.3536 22.5903 86.9016 23.9138 86.9016 25.4642C86.9016 27.0145 86.3536 28.3569 85.248 29.4441C84.1424 30.5501 82.8195 31.0984 81.2697 31.0984H69.987H69.9776Z" fill="white"/>
<path d="M95.5005 31.0984C93.9319 31.0984 92.609 30.5501 91.5223 29.4441C90.4167 28.338 89.8687 27.0145 89.8687 25.4642V12.7681H95.5005V24.0556C95.5005 24.8307 95.7746 25.4925 96.3227 26.0597C96.8707 26.5985 97.5416 26.8727 98.3259 26.8727H110.308V31.1079H95.5005V31.0984Z" fill="white"/>
<path d="M118.189 31.0984C116.62 31.0984 115.297 30.5501 114.211 29.4441C113.105 28.338 112.557 27.0145 112.557 25.4642V18.4024C112.557 16.852 113.105 15.519 114.211 14.4224C115.316 13.3164 116.639 12.7681 118.189 12.7681H131.588C133.138 12.7681 134.47 13.3164 135.567 14.4224C136.672 15.5285 137.22 16.852 137.22 18.4024V25.4642C137.22 27.0334 136.672 28.3569 135.567 29.4441C134.461 30.5501 133.138 31.0984 131.588 31.0984H118.189ZM128.763 26.8633C129.538 26.8633 130.199 26.5891 130.766 26.0503C131.314 25.4925 131.588 24.8213 131.588 24.0461V19.8109C131.588 19.0263 131.314 18.3646 130.766 17.8068C130.209 17.2585 129.538 16.9844 128.763 16.9844H121.014C120.23 16.9844 119.569 17.2585 119.011 17.8068C118.454 18.3551 118.189 19.0263 118.189 19.8109V24.0461C118.189 24.8213 118.463 25.4831 119.011 26.0503C119.559 26.5891 120.23 26.8633 121.014 26.8633H128.763Z" fill="white"/>
<path d="M140.896 31.0984V12.7681H160.627C161.411 12.7681 162.072 13.0422 162.63 13.5905C163.187 14.1388 163.452 14.81 163.452 15.5947V18.7711C163.452 19.5462 163.178 20.208 162.63 20.7752C162.082 21.314 161.411 21.5882 160.627 21.5882H161.335C162.11 21.5882 162.772 21.8624 163.339 22.4107C163.887 22.9684 164.161 23.6396 164.161 24.4148V28.3002C164.161 29.0754 163.887 29.7371 163.339 30.3043C162.781 30.8432 162.11 31.1173 161.335 31.1173H140.896V31.0984ZM156.393 19.8204C156.781 19.8204 157.111 19.6786 157.404 19.4044C157.678 19.1303 157.82 18.79 157.82 18.3929C157.82 17.9959 157.678 17.6744 157.404 17.4003C157.121 17.1261 156.781 16.9844 156.393 16.9844H146.528V19.8109H156.393V19.8204ZM157.102 26.8633C157.489 26.8633 157.82 26.7309 158.094 26.4662C158.368 26.1826 158.51 25.8423 158.51 25.4547C158.51 25.0671 158.368 24.7362 158.094 24.4621C157.82 24.1879 157.489 24.0461 157.102 24.0461H146.528V26.8538H157.102V26.8633Z" fill="white"/>
<path d="M166.221 31.0986L175.047 15.6232C175.321 15.0655 175.699 14.5455 176.171 14.0728C177.277 12.9668 178.609 12.4185 180.168 12.4185C181.727 12.4185 183.05 12.9668 184.146 14.0728C184.619 14.5455 184.997 15.0655 185.271 15.6232L194.116 31.0986H187.917L185.507 26.8634H174.82L172.41 31.0986H166.23H166.221ZM183.882 24.0557L180.508 18.1567C180.414 18.0906 180.291 18.0622 180.159 18.0622C180.017 18.0622 179.894 18.1 179.8 18.1567L176.426 24.0557H183.882Z" fill="white"/>
<path d="M200.74 31.0984C199.171 31.0984 197.848 30.5501 196.761 29.4441C195.656 28.338 195.108 27.0145 195.108 25.4642V12.7681H200.74V24.0556C200.74 24.8307 201.014 25.4925 201.562 26.0597C202.11 26.5985 202.781 26.8727 203.565 26.8727H215.547V31.1079H200.74V31.0984Z" fill="white"/>
<path d="M65.0356 44.1348V37.3755H72.3117C72.6047 37.3755 72.8504 37.4795 73.0488 37.678C73.2567 37.8765 73.3512 38.1318 73.3512 38.4154V39.5876C73.3512 39.8712 73.2472 40.117 73.0488 40.325C72.8504 40.5235 72.5952 40.6275 72.3117 40.6275H72.5763C72.8598 40.6275 73.1055 40.7315 73.3134 40.93C73.5213 41.138 73.6158 41.3838 73.6158 41.6674V43.1043C73.6158 43.3879 73.5118 43.6337 73.3134 43.8417C73.1055 44.0402 72.8598 44.1442 72.5763 44.1442H65.0356V44.1348ZM70.7526 39.9752C70.8943 39.9752 71.0172 39.9279 71.1211 39.8239C71.2251 39.72 71.2723 39.5971 71.2723 39.4553C71.2723 39.3135 71.2251 39.1906 71.1211 39.0866C71.0172 38.9826 70.8943 38.9353 70.7526 38.9353H67.1145V39.9752H70.7526ZM71.0172 42.5749C71.1589 42.5749 71.2818 42.5277 71.3857 42.4331C71.4896 42.3291 71.5369 42.2063 71.5369 42.0644C71.5369 41.9226 71.4896 41.7997 71.3857 41.6957C71.2818 41.5918 71.1589 41.5445 71.0172 41.5445H67.1145V42.5844H71.0172V42.5749Z" fill="white"/>
<path d="M75.1562 44.1348V37.3755H82.697C82.9804 37.3755 83.2261 37.4795 83.434 37.678C83.6419 37.8765 83.7364 38.1318 83.7364 38.4154V39.9752C83.7364 40.2588 83.6325 40.5046 83.434 40.7126C83.2261 40.9111 82.9804 41.0151 82.697 41.0151C82.9899 41.0151 83.2261 41.1191 83.4246 41.3271C83.519 41.4122 83.5947 41.5161 83.6419 41.6296C83.6797 41.7052 83.7175 41.7903 83.7458 41.8943C83.7836 42.0077 83.812 42.1401 83.8403 42.2724L84.379 44.1442H82.3001L81.7142 41.8186C81.7142 41.8186 81.6575 41.743 81.6292 41.7052C81.5252 41.6012 81.4024 41.554 81.2606 41.554H77.2351V44.1537H75.1562V44.1348ZM81.1378 39.9752C81.2795 39.9752 81.4024 39.9279 81.5063 39.8239C81.6103 39.72 81.6575 39.5971 81.6575 39.4553C81.6575 39.3135 81.6103 39.1906 81.5063 39.0866C81.4024 38.9826 81.2795 38.9353 81.1378 38.9353H77.2351V39.9752H81.1378Z" fill="white"/>
<path d="M84.9268 44.135L88.1774 38.425C88.2813 38.2171 88.4136 38.028 88.5931 37.8484C88.9995 37.4419 89.4908 37.2339 90.0673 37.2339C90.6437 37.2339 91.1256 37.4324 91.5319 37.8484C91.702 38.0185 91.8438 38.2171 91.9477 38.425L95.2078 44.135H92.921L92.0328 42.5751H88.0923L87.2041 44.135H84.9268ZM91.4375 41.5353L90.1901 39.3609C90.1901 39.3609 90.1145 39.3231 90.0578 39.3231C90.0011 39.3231 89.9633 39.3326 89.9255 39.3609L88.6782 41.5353H91.428H91.4375Z" fill="white"/>
<path d="M103.958 44.2671C103.382 44.2671 102.9 44.0686 102.494 43.6621C102.475 43.6527 102.465 43.6337 102.446 43.6243L102.371 43.5297C102.371 43.5297 102.342 43.4919 102.323 43.4825L99.8382 40.5046L98.9027 39.3796C98.9027 39.3796 98.8743 39.3607 98.8555 39.3513C98.8271 39.3418 98.7893 39.3324 98.761 39.3324C98.6854 39.3324 98.6287 39.3608 98.572 39.408C98.5247 39.4553 98.4964 39.5214 98.4964 39.5876V44.1348H96.4175V39.0582C96.4175 38.5572 96.597 38.1318 96.9466 37.7726C97.3057 37.4228 97.731 37.2432 98.2318 37.2432H98.3641C98.9405 37.2432 99.4224 37.4417 99.8287 37.8576C99.8382 37.8671 99.8571 37.886 99.8666 37.8955L99.9422 37.99C99.9422 37.99 99.9705 38.0278 99.9799 38.0373L103.401 42.1495C103.401 42.1495 103.429 42.1684 103.438 42.1779C103.467 42.1874 103.505 42.1968 103.542 42.1968C103.609 42.1968 103.675 42.1684 103.722 42.1212C103.779 42.0645 103.798 42.0077 103.798 41.9416V37.385H105.876V42.4615C105.876 42.9625 105.697 43.3974 105.338 43.7472C104.988 44.097 104.553 44.2766 104.053 44.2766H103.92L103.958 44.2671Z" fill="white"/>
<path d="M107.568 44.1348V37.3755H114.069C114.646 37.3755 115.137 37.574 115.534 37.9805C115.94 38.387 116.148 38.8786 116.148 39.4458V42.0455C116.148 42.6222 115.94 43.1138 115.534 43.5108C115.127 43.9173 114.636 44.1158 114.069 44.1158H107.568V44.1348ZM113.03 42.5749C113.313 42.5749 113.559 42.471 113.757 42.2724C113.956 42.0645 114.06 41.8187 114.06 41.5351V39.9752C114.06 39.6821 113.956 39.4364 113.757 39.2378C113.559 39.0393 113.313 38.9353 113.03 38.9353H109.647V42.5749H113.03Z" fill="white"/>
<path d="M122.073 44.1348V37.3755H128.574C129.15 37.3755 129.642 37.574 130.039 37.9805C130.445 38.387 130.653 38.8786 130.653 39.4458V42.0455C130.653 42.6222 130.445 43.1138 130.039 43.5108C129.632 43.9173 129.141 44.1158 128.574 44.1158H122.073V44.1348ZM127.535 42.5749C127.818 42.5749 128.064 42.471 128.262 42.2724C128.461 42.0645 128.565 41.8187 128.565 41.5351V39.9752C128.565 39.6821 128.461 39.4364 128.262 39.2378C128.064 39.0393 127.818 38.9353 127.535 38.9353H124.152V42.5749H127.535Z" fill="white"/>
<path d="M134.395 44.1349C133.818 44.1349 133.327 43.9364 132.93 43.5298C132.524 43.1233 132.316 42.6318 132.316 42.0646V39.4649C132.316 38.8882 132.514 38.406 132.93 37.9995C133.336 37.593 133.828 37.3945 134.395 37.3945H139.857V38.9544H134.915C134.773 38.9544 134.65 39.0016 134.546 39.1056C134.442 39.2096 134.395 39.3325 134.395 39.4743V39.9942H139.724V41.5541H134.395V42.074C134.395 42.2158 134.442 42.3387 134.546 42.4427C134.65 42.5372 134.773 42.5845 134.915 42.5845H139.989V44.1443H134.404L134.395 44.1349Z" fill="white"/>
<path d="M141.132 44.1351V42.5752H147.237C147.378 42.5752 147.501 42.528 147.605 42.4334C147.709 42.3294 147.756 42.2066 147.756 42.0648C147.756 41.9229 147.709 41.8 147.605 41.6961C147.501 41.5921 147.378 41.5448 147.237 41.5448H142.417C142.134 41.5448 141.888 41.4408 141.68 41.2423C141.482 41.0437 141.378 40.798 141.378 40.5049V38.4251C141.378 38.1415 141.482 37.8958 141.68 37.6878C141.888 37.4892 142.134 37.3853 142.417 37.3853H149.438V38.9451H143.977C143.835 38.9451 143.712 38.9923 143.608 39.0963C143.504 39.2003 143.457 39.3232 143.457 39.465C143.457 39.6068 143.504 39.7392 143.608 39.8337C143.712 39.9282 143.835 39.985 143.977 39.985H148.796C149.079 39.985 149.325 40.089 149.523 40.2875C149.722 40.486 149.826 40.7318 149.826 41.0154V43.1046C149.826 43.3882 149.722 43.634 149.523 43.842C149.316 44.0405 149.079 44.1445 148.796 44.1445H141.132V44.1351Z" fill="white"/>
<path d="M151.375 44.1348V37.3755H153.454V44.1348H151.375Z" fill="white"/>
<path d="M157.197 44.1349C156.62 44.1349 156.129 43.9364 155.732 43.5298C155.326 43.1233 155.118 42.6318 155.118 42.0646V39.4649C155.118 38.8882 155.316 38.406 155.732 37.9995C156.138 37.593 156.63 37.3945 157.197 37.3945H163.178V38.9544H158.245C157.953 38.9544 157.707 39.0584 157.508 39.2569C157.301 39.4554 157.206 39.7012 157.206 39.9942V41.5541C157.206 41.8377 157.31 42.0835 157.508 42.2914C157.707 42.49 157.953 42.594 158.245 42.594H160.844C160.986 42.594 161.109 42.5467 161.213 42.4521C161.317 42.3481 161.364 42.2253 161.364 42.0835C161.364 41.9417 161.317 41.8188 161.213 41.7148C161.109 41.6108 160.986 41.5635 160.844 41.5635H159.03V40.0037H161.373C161.95 40.0037 162.432 40.2022 162.838 40.6087C163.244 41.0152 163.452 41.5068 163.452 42.074C163.452 42.6412 163.244 43.1423 162.838 43.5393C162.432 43.9458 161.94 44.1443 161.373 44.1443H157.206L157.197 44.1349Z" fill="white"/>
<path d="M172.382 44.2671C171.806 44.2671 171.324 44.0686 170.917 43.6621C170.898 43.6527 170.889 43.6337 170.87 43.6243L170.794 43.5297C170.794 43.5297 170.766 43.4919 170.747 43.4825L168.262 40.5046L167.327 39.3796C167.327 39.3796 167.298 39.3607 167.279 39.3513C167.251 39.3418 167.213 39.3324 167.185 39.3324C167.109 39.3324 167.052 39.3608 166.996 39.408C166.949 39.4553 166.92 39.5214 166.92 39.5876V44.1348H164.841V39.0582C164.841 38.5572 165.021 38.1318 165.37 37.7726C165.73 37.4228 166.155 37.2432 166.656 37.2432H166.788C167.364 37.2432 167.846 37.4417 168.253 37.8576C168.262 37.8671 168.281 37.886 168.29 37.8955L168.366 37.99C168.366 37.99 168.394 38.0278 168.404 38.0373L171.824 42.1495C171.824 42.1495 171.853 42.1684 171.862 42.1779C171.891 42.1874 171.928 42.1968 171.966 42.1968C172.032 42.1968 172.099 42.1684 172.146 42.1212C172.202 42.0645 172.221 42.0077 172.221 41.9416V37.385H174.3V42.4615C174.3 42.9625 174.121 43.3974 173.762 43.7472C173.412 44.097 172.977 44.2766 172.476 44.2766H172.344L172.382 44.2671Z" fill="white"/>
<path d="M43.8028 0.317871H18.62C13.7346 0.317871 9.69019 3.89128 8.95312 8.57077H39.1915C42.7445 8.57077 45.6266 11.4541 45.6266 15.0086V45.2598C50.3041 44.5225 53.876 40.4669 53.876 35.5889V10.3953C53.876 4.83665 49.3686 0.327305 43.8123 0.327305L43.8028 0.317871Z" fill="white"/>
<path d="M14.8873 45.3735C11.5421 45.3735 8.82069 42.6603 8.82069 39.3043V10.1119C8.82069 9.65812 8.84904 9.20435 8.91518 8.76004C8.93408 8.65605 8.84903 8.56152 8.74509 8.56152C4.22824 8.56152 0.571289 12.22 0.571289 16.7388V44.0122C0.571289 49.3251 4.8708 53.6264 10.1814 53.6264H37.3392C41.9033 53.6264 45.6076 49.9206 45.6076 45.3546V45.26C45.1067 45.3357 44.587 45.3829 44.0673 45.3829H14.8873V45.3735Z" fill="white"/>
<path d="M38.8797 39.0868H19.6311C16.853 39.0868 14.604 36.8369 14.604 34.0576V14.8008H34.155C36.7725 14.8008 38.8892 16.9184 38.8892 19.537V39.0963L38.8797 39.0868Z" fill="white"/>
</svg>
