<svg width="179" height="87" viewBox="0 0 179 87" fill="none" xmlns="http://www.w3.org/2000/svg">
<path d="M155.202 54.5694V30.0565H163.574C171.181 30.0565 176.142 35.3883 176.142 42.3366C176.142 42.8471 176.104 43.3481 176.057 43.8397C177.569 40.1718 178.419 36.154 178.419 31.9283C178.419 14.6662 164.425 0.665527 147.17 0.665527C134.838 0.665527 124.198 7.83129 119.114 18.2207C123.074 13.2387 129.282 10.3459 136.265 10.3459C144.307 10.3459 149.57 14.184 152.906 18.9486L146.962 22.2952C144.798 19.2039 140.896 16.7837 136.256 16.7837C128.092 16.7837 122.025 23.0325 122.025 31.7014C122.025 40.3703 128.092 46.6852 136.256 46.6852C140.461 46.6852 144.175 44.7 146.027 42.97V36.5321H133.714V30.1605H153.265V45.6359C149.183 50.1547 143.428 53.123 136.256 53.123C129.084 53.123 122.46 49.9183 118.538 44.4636C123.367 55.4864 134.356 63.2005 147.161 63.2005C156.355 63.2005 164.595 59.2016 170.312 52.8867C168.431 53.9644 166.154 54.5789 163.574 54.5789H155.202V54.5694ZM155.089 10.0718H162.988C166.069 10.0718 167.959 11.9341 167.959 14.5906C167.959 16.8216 166.466 18.3152 164.85 18.665C166.74 18.9581 168.308 20.896 168.308 23.0325C168.308 25.878 166.419 27.8255 163.177 27.8255H155.089V10.0812V10.0718Z" fill="white"/>
<path d="M165.681 14.912C165.681 13.3143 164.614 12.0381 162.62 12.0381H157.3V17.7574H162.62C164.614 17.7574 165.681 16.538 165.681 14.912Z" fill="white"/>
<path d="M166.022 22.7866C166.022 21.1606 164.907 19.7236 162.724 19.7236H157.3V25.8401H162.724C164.793 25.8401 166.022 24.6678 166.022 22.7771V22.7866Z" fill="white"/>
<path d="M163.584 32.7695H158.254V51.8467H163.584C169.537 51.8467 172.986 47.5832 172.986 42.327C172.986 37.0709 169.641 32.7695 163.584 32.7695Z" fill="white"/>
<path d="M0.173828 52.0642C0.173828 45.4184 5.21036 41.2021 11.3525 41.2021C15.7276 41.2021 18.4681 43.4048 20.0367 45.8911L16.323 47.9047C15.378 46.4205 13.5826 45.1632 11.3525 45.1632C7.54439 45.1632 4.77572 48.0937 4.77572 52.0548C4.77572 56.0158 7.54439 58.9464 11.3525 58.9464C13.2046 58.9464 14.9717 58.1239 15.8221 57.3393V54.8152H10.2847V50.9109H20.2917V58.9747C18.1467 61.3665 15.1607 62.9452 11.3525 62.9452C5.21036 62.9452 0.173828 58.6628 0.173828 52.0548V52.0642Z" fill="white"/>
<path d="M23.8447 62.5482V41.5425H28.3143V58.6061H37.1874V62.5387H23.8447V62.5482Z" fill="white"/>
<path d="M38.4443 52.0642C38.4443 45.7304 43.0746 41.2021 49.3963 41.2021C55.718 41.2021 60.3766 45.7398 60.3766 52.0642C60.3766 58.3886 55.7463 62.9263 49.3963 62.9263C43.0462 62.9263 38.4443 58.3886 38.4443 52.0642ZM55.7841 52.0642C55.7841 48.1316 53.2611 45.1726 49.3963 45.1726C45.5314 45.1726 43.0368 48.1316 43.0368 52.0642C43.0368 55.9969 45.522 58.9558 49.3963 58.9558C53.2705 58.9558 55.7841 55.9591 55.7841 52.0642Z" fill="white"/>
<path d="M63.5327 62.5482V41.5425H74.5792C78.5764 41.5425 80.6269 44.0949 80.6269 46.8932C80.6269 49.5402 78.9921 51.2985 77.0077 51.7145C79.2472 52.0642 81.0332 54.2385 81.0332 56.8761C81.0332 60.0241 78.926 62.5482 74.9289 62.5482H63.5327ZM76.0627 47.6873C76.0627 46.3638 75.1178 45.3901 73.6059 45.3901H68.0023V49.9561H73.6059C75.1178 49.9561 76.0627 49.0108 76.0627 47.6873ZM76.4691 56.2521C76.4691 54.9286 75.5242 53.7942 73.7666 53.7942H68.0023V58.6722H73.7666C75.4675 58.6722 76.4691 57.7553 76.4691 56.2427V56.2521Z" fill="white"/>
<path d="M98.8833 62.5482L97.5887 58.9937H88.5833L87.2603 62.5482H82.1577L90.2748 41.5425H95.8783L103.967 62.5482H98.8643H98.8833ZM93.0907 46.014L89.8212 55.0516H96.3697L93.1002 46.014H93.0907Z" fill="white"/>
<path d="M105.932 62.5482V41.5425H110.402V58.6061H119.275V62.5387H105.932V62.5482Z" fill="white"/>
<path d="M0.674627 86.6548V70.7256H9.05632C12.0896 70.7256 13.6394 72.6636 13.6394 74.7906C13.6394 76.7948 12.4015 78.1371 10.8896 78.4491C12.581 78.7138 13.9417 80.3587 13.9417 82.3629C13.9417 84.7546 12.3448 86.6642 9.31147 86.6642H0.665283L0.674627 86.6548ZM10.1809 75.3767C10.1809 74.3747 9.46273 73.6373 8.31935 73.6373H4.06708V77.0973H8.31935C9.46273 77.0973 10.1809 76.3788 10.1809 75.3767ZM10.4927 81.8713C10.4927 80.8692 9.77457 80.0089 8.44219 80.0089H4.07653V83.7147H8.44219C9.72732 83.7147 10.4927 83.0246 10.4927 81.8713Z" fill="white"/>
<path d="M25.5078 86.6548L22.3801 80.9921H19.8949V86.6548H16.5024V70.7256H23.9486C27.2654 70.7256 29.2971 72.8999 29.2971 75.8589C29.2971 78.8178 27.5301 80.1791 25.8103 80.5856L29.3916 86.6548H25.4984H25.5078ZM25.8385 75.8589C25.8385 74.5259 24.8086 73.7129 23.4479 73.7129H19.8949V78.0143H23.4479C24.8086 78.0143 25.8385 77.2012 25.8385 75.8683V75.8589Z" fill="white"/>
<path d="M42.8381 86.6548L41.8555 83.9511H35.0235L34.0218 86.6548H30.157L36.3181 70.7256H40.5703L46.703 86.6548H42.8381ZM38.4442 74.11L35.959 80.9638H40.9294L38.4442 74.11Z" fill="white"/>
<path d="M59.167 86.6548L51.5697 76.2654V86.6548H48.1772V70.7256H51.6642L59.0442 80.7369V70.7256H62.4366V86.6548H59.167Z" fill="white"/>
<path d="M65.5833 86.6548V70.7256H71.8672C76.8565 70.7256 80.3244 73.902 80.3244 78.7043C80.3244 83.5067 76.866 86.6548 71.8672 86.6548H65.5833ZM76.8564 78.7043C76.8564 75.8872 75.1367 73.7129 71.8672 73.7129H68.9756V83.6769H71.8672C75.0139 83.6769 76.8564 81.4081 76.8564 78.7043Z" fill="white"/>
<path d="M88.8289 86.6548V70.7256H95.1128C100.102 70.7256 103.57 73.902 103.57 78.7043C103.57 83.5067 100.112 86.6548 95.1128 86.6548H88.8289ZM100.102 78.7043C100.102 75.8872 98.3823 73.7129 95.1128 73.7129H92.2212V83.6769H95.1128C98.2595 83.6769 100.102 81.4081 100.102 78.7043Z" fill="white"/>
<path d="M105.97 86.6548V70.7256H117.244V73.7129H109.363V77.0783H117.073V80.0657H109.363V83.6769H117.244V86.6642H105.97V86.6548Z" fill="white"/>
<path d="M118.812 84.4144L120.655 81.8336C121.779 83.0059 123.518 83.9796 125.72 83.9796C127.581 83.9796 128.489 83.1193 128.489 82.2118C128.489 79.3946 119.323 81.3326 119.323 75.3296C119.323 72.6827 121.619 70.48 125.361 70.48C127.893 70.48 129.991 71.2457 131.569 72.7016L129.679 75.1878C128.394 73.9967 126.674 73.4484 125.049 73.4484C123.594 73.4484 122.781 74.0912 122.781 75.046C122.781 77.5796 131.928 75.8779 131.928 81.8336C131.928 84.7453 129.849 86.948 125.55 86.948C122.498 86.948 120.296 85.9176 118.812 84.4144Z" fill="white"/>
<path d="M134.215 86.6548V70.7256H137.607V86.6548H134.215Z" fill="white"/>
<path d="M139.989 78.7044C139.989 73.6657 143.806 70.4609 148.465 70.4609C151.781 70.4609 153.86 72.1342 155.051 74.0155L152.235 75.5469C151.517 74.422 150.156 73.4672 148.465 73.4672C145.573 73.4672 143.475 75.6887 143.475 78.695C143.475 81.7012 145.573 83.9228 148.465 83.9228C149.873 83.9228 151.215 83.2988 151.857 82.7032V80.7936H147.652V77.8347H155.249V83.9511C153.624 85.7662 151.356 86.9573 148.465 86.9573C143.806 86.9573 139.989 83.7053 139.989 78.695V78.7044Z" fill="white"/>
<path d="M168.923 86.6548L161.325 76.2654V86.6548H157.933V70.7256H161.42L168.8 80.7369V70.7256H172.192V86.6548H168.923Z" fill="white"/>
</svg>
