<svg width="59" height="38" viewBox="0 0 59 38" fill="none" xmlns="http://www.w3.org/2000/svg">
<path d="M23.1431 26.3488C23.1431 29.6749 22.0411 32.4566 19.837 34.674C17.6329 36.8913 14.8778 38 11.5716 38C8.26543 38 5.51029 36.8913 3.30618 34.674C1.10207 32.4566 0 29.6849 0 26.3488V15.5342C0 13.1354 0.510972 10.7266 1.52286 8.32781C2.52473 5.92904 4.31805 3.89312 6.89285 2.23011C11.4814 -0.16866 14.4269 -0.632293 15.7193 0.839222C17.0017 2.32082 16.631 3.98383 14.6172 5.82826C10.209 8.23711 8.64612 11.1902 9.92851 14.6977C15.0681 14.6977 18.5646 15.8063 20.408 18.0237C22.2415 20.241 23.1632 23.0127 23.1632 26.3388L23.1431 26.3488ZM58.9799 26.3488C58.9799 29.6749 57.8779 32.4566 55.6738 34.674C53.4697 36.8913 50.7145 38 47.4084 38C44.1022 38 41.3471 36.8913 39.143 34.674C36.9389 32.4566 35.8368 29.6849 35.8368 26.3488V15.5342C35.8368 13.1354 36.3377 10.7266 37.3496 8.32781C38.3615 5.92904 40.1549 3.89312 42.7296 2.23011C47.3182 -0.16866 50.2637 -0.632293 51.5561 0.839222C52.8385 2.32082 52.4678 3.98383 50.4541 5.82826C46.0459 8.23711 44.4829 11.1902 45.7653 14.6977C50.9049 14.6977 54.4014 15.8063 56.2449 18.0237C58.0783 20.241 59 23.0127 59 26.3388L58.9799 26.3488Z" fill="#F5F6F9"/>
</svg>
