<svg width="23" height="23" viewBox="0 0 23 23" fill="none" xmlns="http://www.w3.org/2000/svg">
<path d="M22.8398 10.8801V12.6301C22.8398 12.6301 22.8098 12.6601 22.7998 12.6901C22.7398 13.0701 22.6998 13.4501 22.6298 13.8301C22.5198 14.4001 22.3798 14.9601 22.1698 15.5001C21.9698 16.0301 21.7598 16.5601 21.4798 17.0501C21.2398 17.4901 20.9698 17.9101 20.6798 18.3101C20.3998 18.7001 20.0698 19.0701 19.7498 19.4301C19.4498 19.7601 19.1198 20.0501 18.7898 20.3401C18.2498 20.8001 17.6598 21.1901 17.0298 21.5301C16.8198 21.6401 16.6098 21.7401 16.3898 21.8501C15.8498 22.1201 15.2798 22.3201 14.6998 22.4901C14.1798 22.6301 13.6598 22.7601 13.1198 22.8201C12.9298 22.8401 12.7198 22.8201 12.5398 22.9201H10.7898C10.7698 22.8701 10.7198 22.8901 10.6798 22.8801C10.4298 22.8501 10.1798 22.8501 9.92979 22.8001C9.30979 22.6601 8.68979 22.5601 8.08979 22.3401C7.37979 22.0701 6.68979 21.7801 6.03979 21.3901C5.25979 20.9301 4.54979 20.3901 3.90979 19.7601C3.41979 19.2901 2.97979 18.7701 2.57979 18.2201C2.14979 17.6101 1.77979 16.9701 1.46979 16.2901C1.17979 15.6601 0.979786 15.0001 0.819786 14.3201C0.729786 13.9601 0.679787 13.6101 0.629787 13.2501C0.599787 13.0501 0.629785 12.8301 0.529785 12.6501V10.8601C0.589785 10.7901 0.589785 10.7001 0.599785 10.6201C0.649785 10.1701 0.669786 9.72008 0.819786 9.28008C0.929786 8.96008 0.969788 8.63008 1.07979 8.31008C1.23979 7.81008 1.43978 7.32008 1.66978 6.85008C1.82978 6.51008 2.03979 6.20008 2.23979 5.88008C2.42979 5.58008 2.59979 5.27008 2.81979 5.00008C3.19979 4.54008 3.57978 4.08008 4.00978 3.67008C4.30978 3.39008 4.59978 3.10008 4.93979 2.87008C5.41979 2.54008 5.88979 2.19008 6.40979 1.93008C6.86979 1.70008 7.32979 1.47008 7.81979 1.29008C8.16979 1.16008 8.51979 1.06008 8.87979 0.960078C9.31979 0.840078 9.74978 0.750078 10.1998 0.680078C10.3898 0.650078 10.5998 0.690078 10.7798 0.580078H12.5698C12.5698 0.580078 12.5998 0.610078 12.6298 0.620078C13.0798 0.710078 13.5398 0.700078 13.9798 0.840078C14.3798 0.960078 14.7998 1.03008 15.2098 1.16008C15.8698 1.38008 16.5098 1.65008 17.1198 1.99008C17.8698 2.41008 18.5798 2.90008 19.2098 3.49008C19.6398 3.89008 20.0498 4.32008 20.4198 4.77008C20.7898 5.22008 21.1098 5.71008 21.4098 6.21008C21.5398 6.43008 21.6698 6.64008 21.7698 6.88008C21.9898 7.41008 22.2298 7.92008 22.3898 8.47008C22.5698 9.08008 22.7298 9.69008 22.7898 10.3301C22.8098 10.5201 22.7898 10.7201 22.8898 10.8901L22.8398 10.8801ZM9.92979 15.5501C9.92979 16.4901 9.92979 17.4201 9.92979 18.3601C9.92979 18.5267 10.0098 18.6101 10.1698 18.6101C10.8998 18.6101 11.6298 18.6101 12.3698 18.6101C12.6298 18.6101 12.6398 18.6101 12.6298 18.3501C12.6098 16.3501 12.6698 14.3501 12.5998 12.3401C12.5998 12.1501 12.6498 12.1101 12.8298 12.1201C13.3198 12.1301 13.8098 12.1201 14.2998 12.1201C14.3698 12.1201 14.4498 12.1501 14.4698 12.0301C14.5098 11.6601 14.5498 11.2901 14.5798 10.9201C14.6098 10.6401 14.6198 10.3701 14.6598 10.0901C14.6898 9.85008 14.6998 9.85008 14.4598 9.85008C13.9098 9.85008 13.3698 9.85008 12.8198 9.85008C12.6798 9.85008 12.6398 9.81008 12.6398 9.67008C12.6398 9.26008 12.6398 8.85008 12.6398 8.44008C12.6398 8.11008 12.8298 7.94008 13.1198 7.90008C13.5598 7.83008 14.0098 7.88008 14.4598 7.88008C14.6098 7.88008 14.6698 7.84008 14.6598 7.68008C14.6598 7.07008 14.6598 6.45008 14.6598 5.84008C14.6598 5.70008 14.6198 5.65008 14.4698 5.65008C13.8698 5.65008 13.2798 5.65008 12.6798 5.65008C12.2898 5.65008 11.8998 5.69008 11.5398 5.82008C10.5198 6.20008 10.0598 7.02008 9.95979 8.02008C9.90979 8.57008 9.93979 9.12008 9.93979 9.67008C9.93979 9.81008 9.89979 9.86008 9.75978 9.85008C9.44978 9.85008 9.13979 9.85008 8.82979 9.85008C8.69979 9.85008 8.65979 9.89008 8.65979 10.0201C8.65979 10.6701 8.65979 11.3201 8.65979 11.9701C8.65979 12.0901 8.68979 12.1301 8.81979 12.1301C9.13979 12.1301 9.46979 12.1301 9.78979 12.1301C9.91979 12.1301 9.96979 12.1801 9.96979 12.3001C9.96979 12.4401 9.94979 12.5801 9.94979 12.7201C9.94979 13.6601 9.94979 14.6101 9.94979 15.5501H9.92979Z" fill="white"/>
</svg>
