<svg width="235" height="45" viewBox="0 0 235 45" fill="none" xmlns="http://www.w3.org/2000/svg">
<path d="M234.13 25.9702H89.9897V41.9502H234.13V25.9702Z" fill="white"/>
<path d="M107.81 9.06006V7.47006H94.31V17.7801H107.81V14.9901H100.83V11.0301H112.14V17.8001C112.14 18.5601 112.07 19.2001 111.93 19.7201C111.79 20.2401 111.56 20.6601 111.23 20.9801C110.91 21.3001 110.48 21.5301 109.96 21.6701C109.44 21.8101 108.79 21.8801 108.03 21.8801H94.06C93.3 21.8801 92.66 21.8101 92.14 21.6701C91.63 21.5301 91.21 21.3001 90.89 20.9801C90.57 20.6601 90.34 20.2401 90.19 19.7201C90.04 19.2001 89.98 18.5601 89.98 17.8001V7.41006C89.98 5.91006 90.28 4.85006 90.89 4.23006C91.5 3.61006 92.55 3.31006 94.06 3.31006H108.03C108.79 3.31006 109.44 3.39006 109.96 3.53006C110.48 3.68006 110.91 3.91006 111.23 4.22006C111.55 4.53006 111.78 4.95006 111.93 5.48006C112.07 6.01006 112.14 6.65006 112.14 7.39006V8.14006L107.82 9.04006L107.81 9.06006Z" fill="white"/>
<path d="M117.47 3.31982H121.79V17.7698H135.76V21.8898H117.47V3.31982Z" fill="white"/>
<path d="M161.21 17.8001C161.21 18.5601 161.14 19.2001 161 19.7201C160.86 20.2401 160.63 20.6601 160.3 20.9801C159.98 21.3001 159.55 21.5301 159.03 21.6701C158.51 21.8101 157.86 21.8801 157.1 21.8801H143.13C142.37 21.8801 141.73 21.8101 141.21 21.6701C140.7 21.5301 140.28 21.3001 139.96 20.9801C139.64 20.6601 139.41 20.2401 139.26 19.7201C139.11 19.2001 139.05 18.5601 139.05 17.8001V7.41006C139.05 5.91006 139.35 4.85006 139.96 4.23006C140.56 3.62006 141.62 3.31006 143.13 3.31006H157.1C157.86 3.31006 158.51 3.39006 159.03 3.53006C159.55 3.68006 159.98 3.91006 160.3 4.22006C160.62 4.53006 160.85 4.95006 161 5.48006C161.14 6.01006 161.21 6.65006 161.21 7.39006V17.7801V17.8001ZM156.89 17.7701V7.46006H143.39V17.7701H156.89Z" fill="white"/>
<path d="M183.63 12.2498C184.77 12.4598 185.59 12.8498 186.09 13.4098C186.59 13.9798 186.85 14.7998 186.85 15.8798V17.7998C186.85 18.4498 186.83 18.9498 186.78 19.2898C186.73 19.6298 186.63 19.9498 186.48 20.2498C186.22 20.8498 185.81 21.2698 185.23 21.5198C184.65 21.7698 183.81 21.8898 182.69 21.8898H166.57V3.31982H182.58C183.28 3.31982 183.83 3.35982 184.23 3.42982C184.63 3.49982 185.01 3.63982 185.36 3.84982C185.89 4.14982 186.25 4.55982 186.44 5.06982C186.64 5.58982 186.73 6.36983 186.73 7.40983V9.07983C186.73 10.0598 186.5 10.7898 186.04 11.2598C185.58 11.7398 184.77 12.0698 183.62 12.2498H183.63ZM180.59 10.4698C181.24 10.4698 181.71 10.3598 181.99 10.1498C182.27 9.93983 182.41 9.58983 182.41 9.10983V8.79983C182.41 8.31983 182.27 7.97982 181.99 7.76982C181.71 7.56982 181.25 7.45982 180.59 7.45982H170.89V10.4598H180.59V10.4698ZM180.7 17.7698C181.35 17.7698 181.82 17.6598 182.1 17.4498C182.38 17.2398 182.52 16.8898 182.52 16.4098V15.7298C182.52 15.2498 182.38 14.9098 182.1 14.6998C181.82 14.4898 181.36 14.3898 180.7 14.3898H170.89V17.7598H180.7V17.7698Z" fill="white"/>
<path d="M199.55 3.31982H203.74L214.42 21.8898H209.55L207.38 17.8298H195.55L193.34 21.8898H189.02L199.55 3.31982ZM205.25 13.8698L201.5 6.93983L197.71 13.8698H205.25Z" fill="white"/>
<path d="M215.83 3.31982H220.15V17.7698H234.12V21.8898H215.83V3.31982Z" fill="white"/>
<path d="M104.71 34.0399C105.24 34.1299 105.62 34.3099 105.85 34.5699C106.08 34.8399 106.2 35.2199 106.2 35.7199V36.6099C106.2 36.9099 106.19 37.1399 106.17 37.2999C106.15 37.4599 106.11 37.6099 106.05 37.7499C105.93 38.0299 105.73 38.2199 105.46 38.3399C105.19 38.4599 104.8 38.5099 104.28 38.5099H97.3799V29.8799H104.22C104.55 29.8799 104.81 29.8999 105 29.9299C105.19 29.9599 105.36 30.0299 105.52 30.1299C105.76 30.2699 105.93 30.4599 106.02 30.6999C106.11 30.9399 106.16 31.2999 106.16 31.7899V32.5699C106.16 33.0199 106.05 33.3599 105.84 33.5799C105.63 33.7999 105.25 33.9499 104.72 34.0399H104.71ZM103.73 33.4099C104.11 33.4099 104.37 33.3399 104.5 33.2099C104.64 33.0799 104.71 32.8199 104.71 32.4399V32.2299C104.71 31.8599 104.64 31.5999 104.5 31.4699C104.36 31.3299 104.11 31.2599 103.73 31.2599H98.8199V33.4199H103.73V33.4099ZM103.78 37.1599C104.16 37.1599 104.42 37.0899 104.55 36.9599C104.68 36.8299 104.76 36.5699 104.76 36.1899V35.6499C104.76 35.2799 104.69 35.0299 104.55 34.8899C104.41 34.7499 104.16 34.6799 103.78 34.6799H98.8199V37.1599H103.78Z" fill="#000073"/>
<path d="M109.32 38.5196V29.8896H116.16C116.49 29.8896 116.75 29.9097 116.94 29.9397C117.13 29.9697 117.3 30.0396 117.46 30.1396C117.7 30.2796 117.87 30.4696 117.96 30.7096C118.05 30.9496 118.1 31.3097 118.1 31.7997V33.3796C118.1 33.6796 118.09 33.9096 118.07 34.0696C118.05 34.2296 118.01 34.3796 117.95 34.5196C117.83 34.7996 117.63 34.9896 117.36 35.1096C117.09 35.2296 116.69 35.2796 116.18 35.2796H115.38L118.9 38.5296H116.86L113.47 35.2796H110.79V38.5296H109.34L109.32 38.5196ZM115.67 33.9996C116.05 33.9996 116.31 33.9297 116.44 33.7997C116.58 33.6697 116.65 33.4096 116.65 33.0296V32.2197C116.65 31.8497 116.58 31.5896 116.44 31.4596C116.3 31.3196 116.05 31.2496 115.67 31.2496H110.76V33.9996H115.67Z" fill="#000073"/>
<path d="M124.45 29.8896H126.34L131.05 38.5196H129.38L128.26 36.3997H122.47L121.35 38.5196H119.85L124.47 29.8896H124.45ZM127.59 35.1296L125.37 30.8896L123.12 35.1296H127.6H127.59Z" fill="#000073"/>
<path d="M132.86 29.8896H133.9L141.19 36.3596V29.8896H142.64V38.5196H141.6L134.31 32.0497V38.5196H132.86V29.8896Z" fill="#000073"/>
<path d="M145.92 29.8899H151.86C152.47 29.8899 152.96 29.9299 153.33 29.9999C153.7 30.0699 154.02 30.2099 154.31 30.3899C154.75 30.6599 155.07 31.0599 155.27 31.5599C155.47 32.0599 155.57 32.7399 155.57 33.5799V34.8099C155.57 35.3099 155.54 35.7299 155.48 36.0699C155.42 36.4099 155.32 36.7199 155.17 37.0099C154.97 37.4399 154.68 37.7799 154.3 38.0099C154.02 38.1999 153.69 38.3299 153.32 38.3999C152.95 38.4699 152.46 38.5099 151.85 38.5099H145.91V29.8799L145.92 29.8899ZM151.84 37.1599C152.21 37.1599 152.5 37.1399 152.72 37.0899C152.93 37.0499 153.13 36.9699 153.3 36.8599C153.56 36.6899 153.75 36.4499 153.87 36.1499C153.99 35.8499 154.05 35.4499 154.05 34.9499V33.4599C154.05 33.1699 154.03 32.9199 154 32.7199C153.97 32.5199 153.91 32.3299 153.82 32.1499C153.66 31.8299 153.44 31.5899 153.14 31.4599C152.84 31.3299 152.41 31.2499 151.84 31.2499H147.36V37.1599H151.84Z" fill="#000073"/>
<path d="M163.11 29.8899H169.05C169.66 29.8899 170.15 29.9299 170.52 29.9999C170.89 30.0699 171.21 30.2099 171.5 30.3899C171.94 30.6599 172.26 31.0599 172.46 31.5599C172.66 32.0599 172.76 32.7399 172.76 33.5799V34.8099C172.76 35.3099 172.73 35.7299 172.67 36.0699C172.61 36.4099 172.51 36.7199 172.36 37.0099C172.16 37.4399 171.87 37.7799 171.49 38.0099C171.21 38.1999 170.88 38.3299 170.51 38.3999C170.14 38.4699 169.65 38.5099 169.04 38.5099H163.1V29.8799L163.11 29.8899ZM169.03 37.1599C169.4 37.1599 169.69 37.1399 169.91 37.0899C170.12 37.0499 170.32 36.9699 170.49 36.8599C170.75 36.6899 170.94 36.4499 171.06 36.1499C171.18 35.8499 171.24 35.4499 171.24 34.9499V33.4599C171.24 33.1699 171.22 32.9199 171.19 32.7199C171.16 32.5199 171.1 32.3299 171.01 32.1499C170.85 31.8299 170.63 31.5899 170.33 31.4599C170.03 31.3299 169.6 31.2499 169.03 31.2499H164.55V37.1599H169.03Z" fill="#000073"/>
<path d="M175.86 29.8896H184.14V31.2496H177.31V33.4996H181.52V34.7696H177.31V37.1597H184.23V38.5196H175.86V29.8896Z" fill="#000073"/>
<path d="M194.31 32.2699V31.2499H188.39V33.4599H194.04C194.39 33.4599 194.68 33.4899 194.92 33.5599C195.16 33.6299 195.36 33.7299 195.51 33.8899C195.66 34.0399 195.77 34.2399 195.83 34.4799C195.9 34.7199 195.93 35.0199 195.93 35.3699V36.6299C195.93 36.9799 195.9 37.2799 195.83 37.5199C195.76 37.7599 195.66 37.9599 195.51 38.1099C195.36 38.2599 195.16 38.3699 194.92 38.4299C194.68 38.4999 194.38 38.5299 194.04 38.5299H188.62C188.27 38.5299 187.97 38.4999 187.73 38.4299C187.49 38.3599 187.3 38.2599 187.15 38.1099C187 37.9599 186.89 37.7699 186.83 37.5199C186.76 37.2799 186.73 36.9799 186.73 36.6299V36.2599L188.16 35.9399V37.1699H194.49V34.7399H188.84C188.14 34.7399 187.65 34.5999 187.37 34.3199C187.09 34.0399 186.94 33.5499 186.94 32.8499V31.7999C186.94 31.0999 187.08 30.6099 187.37 30.3299C187.66 30.0499 188.15 29.8999 188.84 29.8999H193.85C194.2 29.8999 194.5 29.9299 194.74 29.9999C194.98 30.0699 195.18 30.1799 195.33 30.3199C195.48 30.4699 195.59 30.6599 195.66 30.9099C195.73 31.1599 195.76 31.4499 195.76 31.7999V31.9799L194.31 32.2799V32.2699Z" fill="#000073"/>
<path d="M198.95 29.8896H200.4V38.5196H198.95V29.8896Z" fill="#000073"/>
<path d="M211.69 32.3499V31.2499H204.94V37.1599H211.69V34.8599H208.2V33.5799H213.14V36.6199C213.14 36.9699 213.11 37.2699 213.04 37.5099C212.97 37.7499 212.86 37.9499 212.71 38.0999C212.56 38.2499 212.37 38.3599 212.12 38.4199C211.87 38.4799 211.58 38.5199 211.24 38.5199H205.39C205.04 38.5199 204.74 38.4899 204.5 38.4199C204.26 38.3499 204.07 38.2499 203.92 38.0999C203.77 37.9499 203.66 37.7599 203.6 37.5099C203.53 37.2699 203.5 36.9699 203.5 36.6199V31.7999C203.5 31.0999 203.64 30.6099 203.92 30.3299C204.2 30.0499 204.69 29.8999 205.39 29.8999H211.24C211.94 29.8999 212.43 30.0399 212.71 30.3299C212.99 30.6099 213.14 31.1099 213.14 31.7999V32.0599L211.69 32.3599V32.3499Z" fill="#000073"/>
<path d="M216.25 29.8896H217.29L224.58 36.3596V29.8896H226.03V38.5196H224.99L217.7 32.0497V38.5196H216.25V29.8896Z" fill="#000073"/>
<path d="M52.4402 25.2699C52.2902 25.1299 50.9502 23.9699 48.4502 22.4399C51.0902 21.1999 52.1702 20.4599 52.3102 20.3299C53.3602 19.4099 53.8902 18.1099 53.8902 16.4199V5.47994C53.8902 2.44994 52.4302 0.939941 49.5102 0.939941H29.9302V44.3199H49.6302C52.6402 44.3199 54.1402 42.8199 54.1402 39.8099V29.0699C54.1402 27.3499 53.5702 26.2599 52.4402 25.2699ZM37.3102 7.14994H46.5402V17.6999L42.9802 20.2199H37.3102V7.14994ZM46.7302 38.1099H37.3102V24.9099H43.1102L46.7302 27.2999V38.1099Z" fill="white"/>
<path d="M17.76 16.0199V7.28994L15.7 7.30994V7.28994L11.36 7.35994H10.74C10.74 7.35994 10.42 12.3299 4.94003 12.3399V16.8499L9.13004 16.7799L9.00003 36.9799H8.97003V37.9799H17.77V28.7799H12.29V22.5099H25.19V39.8099C25.19 42.8199 23.69 44.3199 20.68 44.3199H5.17004C2.25004 44.3199 0.790039 42.8199 0.790039 39.8099V5.47994C0.790039 2.44994 2.29002 0.939941 5.27002 0.939941H20.68C23.69 0.939941 25.19 2.44994 25.19 5.47994V16.0099H17.78L17.76 16.0199Z" fill="white"/>
<path d="M85.1802 24.6397H82.9602V35.0297C82.9602 35.7297 82.9102 36.3697 82.8102 36.9897C82.5002 38.9797 81.7002 40.5897 80.4002 41.8497C78.7002 43.4997 76.4102 44.3297 73.5302 44.3297H58.7002V0.949707H73.5302C76.4002 0.949707 78.7002 1.78971 80.4002 3.45971C82.1002 5.12971 82.9502 7.41971 82.9502 10.3097V19.0797L79.0002 14.3997L75.6502 18.3797V11.4197C75.6502 8.65971 74.2302 7.28971 71.3902 7.28971H65.9802V37.9897H71.2002C74.1602 37.9897 75.6502 36.5897 75.6502 33.7997V24.6397H72.8302L73.1602 24.2297L75.6502 21.1097L79.0002 16.8997L82.9502 21.8497L84.8502 24.2297L85.1702 24.6397H85.1802Z" fill="white"/>
</svg>
