<svg width="425" height="39" viewBox="0 0 425 39" fill="none" xmlns="http://www.w3.org/2000/svg">
<g clip-path="url(#clip0_49_12)">
<path d="M220.59 21.59C220.46 21.46 219.27 20.44 217.05 19.07C219.39 17.98 220.34 17.32 220.47 17.2C221.4 16.38 221.87 15.23 221.87 13.73V4.03C221.88 1.34 220.58 0 217.99 0H200.62V38.48H218.1C220.77 38.48 222.1 37.15 222.1 34.48V24.95C222.1 23.42 221.6 22.46 220.59 21.58V21.59ZM207.16 5.51H215.36V14.87L212.2 17.11H207.17V5.51H207.16ZM215.52 32.98H207.16V21.27H212.31L215.53 23.39V32.98H215.52Z" fill="#2F3068"/>
<path d="M189.83 13.37V5.62L188 5.64L184.15 5.69H183.6C183.6 5.69 183.31 10.1 178.45 10.11V14.11L182.16 14.05L182.05 31.97H182.02V32.85H189.83V24.69H184.96V19.13H196.4V34.48C196.4 37.15 195.07 38.48 192.4 38.48H178.64C176.05 38.48 174.75 37.15 174.75 34.48V4.03C174.75 1.34 176.08 0 178.72 0H192.39C195.06 0 196.39 1.34 196.39 4.03V13.37H189.82H189.83Z" fill="#F0532D"/>
<path d="M249.63 21.02H247.66V30.24C247.66 30.86 247.61 31.43 247.53 31.98C247.26 33.74 246.55 35.18 245.4 36.29C243.89 37.76 241.86 38.49 239.31 38.49H226.16V0H239.31C241.86 0 243.89 0.74 245.4 2.23C246.91 3.71 247.67 5.74 247.67 8.31V16.09L244.16 11.93L241.19 15.46V9.29C241.19 6.84 239.93 5.62 237.41 5.62H232.61V32.86H237.24C239.87 32.86 241.18 31.62 241.18 29.14V21.02H238.68L238.97 20.66L241.18 17.89L244.15 14.16L247.66 18.55L249.34 20.66L249.62 21.02H249.63Z" fill="#2F3068"/>
<path d="M156.29 18.8199H0" stroke="#808285" stroke-miterlimit="10"/>
<path d="M424.39 18.8199H268.09" stroke="#808285" stroke-miterlimit="10"/>
</g>
<defs>
<clipPath id="clip0_49_12">
<rect width="424.39" height="38.48" fill="white"/>
</clipPath>
</defs>
</svg>
