<svg width="234" height="44" viewBox="0 0 234 44" fill="none" xmlns="http://www.w3.org/2000/svg">
<g clip-path="url(#clip0_29_48)">
<path d="M233.7 25.02H89.5601V41H233.7V25.02Z" fill="#272660"/>
<path d="M107.38 8.12012V6.53012H93.8803V16.8401H107.38V14.0501H100.4V10.0901H111.71V16.8601C111.71 17.6201 111.64 18.2601 111.5 18.7801C111.36 19.3001 111.13 19.7201 110.8 20.0401C110.48 20.3601 110.05 20.5901 109.53 20.7301C109.01 20.8701 108.36 20.9401 107.6 20.9401H93.6303C92.8703 20.9401 92.2303 20.8701 91.7103 20.7301C91.2003 20.5901 90.7803 20.3601 90.4603 20.0401C90.1403 19.7201 89.9103 19.3001 89.7603 18.7801C89.6103 18.2601 89.5503 17.6201 89.5503 16.8601V6.47012C89.5503 4.97012 89.8503 3.91012 90.4603 3.29012C91.0703 2.67012 92.1203 2.37012 93.6303 2.37012H107.6C108.36 2.37012 109.01 2.45012 109.53 2.59012C110.05 2.74012 110.48 2.97012 110.8 3.28012C111.12 3.59012 111.35 4.01012 111.5 4.54012C111.64 5.07012 111.71 5.71012 111.71 6.45012V7.20012L107.39 8.10012L107.38 8.12012Z" fill="#272660"/>
<path d="M117.041 2.38013H121.361V16.8301H135.331V20.9501H117.041V2.38013Z" fill="#272660"/>
<path d="M160.78 16.8601C160.78 17.6201 160.71 18.2601 160.57 18.7801C160.43 19.3001 160.2 19.7201 159.87 20.0401C159.55 20.3601 159.12 20.5901 158.6 20.7301C158.08 20.8701 157.43 20.9401 156.67 20.9401H142.7C141.94 20.9401 141.3 20.8701 140.78 20.7301C140.27 20.5901 139.85 20.3601 139.53 20.0401C139.21 19.7201 138.98 19.3001 138.83 18.7801C138.68 18.2601 138.62 17.6201 138.62 16.8601V6.47012C138.62 4.97012 138.92 3.91012 139.53 3.29012C140.14 2.67012 141.19 2.37012 142.7 2.37012H156.67C157.43 2.37012 158.08 2.45012 158.6 2.59012C159.12 2.74012 159.55 2.97012 159.87 3.28012C160.19 3.59012 160.42 4.01012 160.57 4.54012C160.71 5.07012 160.78 5.71012 160.78 6.45012V16.8401V16.8601ZM156.46 16.8301V6.53012H142.96V16.8401H156.46V16.8301Z" fill="#272660"/>
<path d="M183.21 11.3101C184.35 11.5201 185.17 11.9101 185.67 12.4701C186.17 13.0401 186.43 13.8601 186.43 14.9401V16.8601C186.43 17.5101 186.41 18.0101 186.36 18.3501C186.31 18.6901 186.21 19.0101 186.06 19.3101C185.8 19.9101 185.39 20.3301 184.81 20.5801C184.23 20.8301 183.39 20.9501 182.27 20.9501H166.15V2.38013H182.16C182.86 2.38013 183.41 2.42013 183.81 2.49013C184.21 2.56013 184.59 2.70013 184.94 2.91013C185.47 3.21013 185.83 3.62013 186.02 4.13013C186.22 4.65013 186.31 5.43013 186.31 6.47013V8.14013C186.31 9.12013 186.08 9.85013 185.62 10.3201C185.16 10.8001 184.35 11.1301 183.2 11.3101H183.21ZM180.17 9.53013C180.82 9.53013 181.29 9.42013 181.57 9.21013C181.85 9.00013 181.99 8.65013 181.99 8.17013V7.86013C181.99 7.38013 181.85 7.04013 181.57 6.83013C181.29 6.63013 180.83 6.52013 180.17 6.52013H170.47V9.52013H180.17V9.53013ZM180.28 16.8301C180.93 16.8301 181.4 16.7201 181.68 16.5101C181.96 16.3001 182.1 15.9501 182.1 15.4701V14.7901C182.1 14.3101 181.96 13.9701 181.68 13.7601C181.4 13.5501 180.94 13.4501 180.28 13.4501H170.47V16.8201H180.28V16.8301Z" fill="#272660"/>
<path d="M199.13 2.38013H203.32L214 20.9501H209.13L206.96 16.8901H195.13L192.92 20.9501H188.6L199.13 2.38013ZM204.83 12.9301L201.08 6.00013L197.29 12.9301H204.83Z" fill="#272660"/>
<path d="M215.4 2.38013H219.72V16.8301H233.69V20.9501H215.4V2.38013Z" fill="#272660"/>
<path d="M104.28 33.1002C104.81 33.1902 105.19 33.3702 105.42 33.6302C105.65 33.9002 105.77 34.2802 105.77 34.7802V35.6702C105.77 35.9702 105.76 36.2002 105.74 36.3602C105.72 36.5202 105.68 36.6702 105.62 36.8102C105.5 37.0902 105.3 37.2802 105.03 37.4002C104.76 37.5202 104.37 37.5702 103.85 37.5702H96.9502V28.9402H103.79C104.12 28.9402 104.38 28.9602 104.57 28.9902C104.76 29.0202 104.93 29.0902 105.09 29.1902C105.33 29.3302 105.5 29.5202 105.59 29.7602C105.68 30.0002 105.73 30.3602 105.73 30.8502V31.6302C105.73 32.0802 105.62 32.4202 105.41 32.6402C105.2 32.8602 104.82 33.0102 104.29 33.1002H104.28ZM103.3 32.4702C103.68 32.4702 103.94 32.4002 104.07 32.2702C104.21 32.1402 104.28 31.8802 104.28 31.5002V31.2902C104.28 30.9202 104.21 30.6602 104.07 30.5302C103.93 30.3902 103.68 30.3202 103.3 30.3202H98.3902V32.4802H103.3V32.4702ZM103.35 36.2202C103.73 36.2202 103.99 36.1502 104.12 36.0202C104.25 35.8902 104.33 35.6302 104.33 35.2502V34.7102C104.33 34.3402 104.26 34.0902 104.12 33.9502C103.98 33.8102 103.73 33.7402 103.35 33.7402H98.3902V36.2202H103.35Z" fill="white"/>
<path d="M108.89 37.5702V28.9402H115.73C116.06 28.9402 116.32 28.9602 116.51 28.9902C116.7 29.0202 116.87 29.0902 117.03 29.1902C117.27 29.3302 117.44 29.5202 117.53 29.7602C117.62 30.0002 117.67 30.3602 117.67 30.8502V32.4302C117.67 32.7302 117.66 32.9602 117.64 33.1202C117.62 33.2802 117.58 33.4302 117.52 33.5702C117.4 33.8502 117.2 34.0402 116.93 34.1602C116.66 34.2802 116.26 34.3302 115.75 34.3302H114.95L118.47 37.5802H116.43L113.04 34.3302H110.36V37.5802H108.91L108.89 37.5702ZM115.24 33.0502C115.62 33.0502 115.88 32.9802 116.01 32.8502C116.15 32.7202 116.22 32.4602 116.22 32.0802V31.2702C116.22 30.9002 116.15 30.6402 116.01 30.5102C115.87 30.3702 115.62 30.3002 115.24 30.3002H110.33V33.0502H115.24Z" fill="white"/>
<path d="M124.02 28.9502H125.91L130.62 37.5802H128.95L127.83 35.4602H122.04L120.92 37.5802H119.42L124.04 28.9502H124.02ZM127.16 34.1902L124.94 29.9502L122.69 34.1902H127.17H127.16Z" fill="white"/>
<path d="M132.43 28.9502H133.47L140.76 35.4202V28.9502H142.21V37.5802H141.17L133.88 31.1102V37.5802H132.43V28.9502Z" fill="white"/>
<path d="M145.49 28.9502H151.43C152.04 28.9502 152.53 28.9902 152.9 29.0602C153.27 29.1302 153.59 29.2702 153.88 29.4502C154.32 29.7202 154.64 30.1202 154.84 30.6202C155.04 31.1202 155.14 31.8002 155.14 32.6402V33.8702C155.14 34.3702 155.11 34.7902 155.05 35.1302C154.99 35.4702 154.89 35.7802 154.74 36.0702C154.54 36.5002 154.25 36.8402 153.87 37.0702C153.59 37.2602 153.26 37.3902 152.89 37.4602C152.52 37.5302 152.03 37.5702 151.42 37.5702H145.48V28.9402L145.49 28.9502ZM151.41 36.2202C151.78 36.2202 152.07 36.2002 152.29 36.1502C152.5 36.1102 152.7 36.0302 152.87 35.9202C153.13 35.7502 153.32 35.5102 153.44 35.2102C153.56 34.9102 153.62 34.5102 153.62 34.0102V32.5202C153.62 32.2302 153.6 31.9802 153.57 31.7802C153.54 31.5802 153.48 31.3902 153.39 31.2102C153.23 30.8902 153.01 30.6502 152.71 30.5202C152.41 30.3902 151.98 30.3102 151.41 30.3102H146.93V36.2202H151.41Z" fill="white"/>
<path d="M162.68 28.9502H168.62C169.23 28.9502 169.72 28.9902 170.09 29.0602C170.46 29.1302 170.78 29.2702 171.07 29.4502C171.51 29.7202 171.83 30.1202 172.03 30.6202C172.23 31.1202 172.33 31.8002 172.33 32.6402V33.8702C172.33 34.3702 172.3 34.7902 172.24 35.1302C172.18 35.4702 172.08 35.7802 171.93 36.0702C171.73 36.5002 171.44 36.8402 171.06 37.0702C170.78 37.2602 170.45 37.3902 170.08 37.4602C169.71 37.5302 169.22 37.5702 168.61 37.5702H162.67V28.9402L162.68 28.9502ZM168.6 36.2202C168.97 36.2202 169.26 36.2002 169.48 36.1502C169.69 36.1102 169.89 36.0302 170.06 35.9202C170.32 35.7502 170.51 35.5102 170.63 35.2102C170.75 34.9102 170.81 34.5102 170.81 34.0102V32.5202C170.81 32.2302 170.79 31.9802 170.76 31.7802C170.73 31.5802 170.67 31.3902 170.58 31.2102C170.42 30.8902 170.2 30.6502 169.9 30.5202C169.6 30.3902 169.17 30.3102 168.6 30.3102H164.12V36.2202H168.6Z" fill="white"/>
<path d="M175.43 28.9502H183.71V30.3102H176.88V32.5602H181.09V33.8302H176.88V36.2202H183.8V37.5802H175.43V28.9502Z" fill="white"/>
<path d="M193.88 31.3302V30.3102H187.96V32.5202H193.61C193.96 32.5202 194.25 32.5502 194.49 32.6202C194.73 32.6902 194.93 32.7902 195.08 32.9502C195.23 33.1002 195.34 33.3002 195.4 33.5402C195.47 33.7802 195.5 34.0802 195.5 34.4302V35.6902C195.5 36.0402 195.47 36.3402 195.4 36.5802C195.33 36.8202 195.23 37.0202 195.08 37.1702C194.93 37.3202 194.73 37.4302 194.49 37.4902C194.25 37.5602 193.95 37.5902 193.61 37.5902H188.19C187.84 37.5902 187.54 37.5602 187.3 37.4902C187.06 37.4202 186.87 37.3202 186.72 37.1702C186.57 37.0202 186.46 36.8302 186.4 36.5802C186.33 36.3402 186.3 36.0402 186.3 35.6902V35.3202L187.73 35.0002V36.2302H194.06V33.8002H188.41C187.71 33.8002 187.22 33.6602 186.94 33.3802C186.66 33.1002 186.51 32.6102 186.51 31.9102V30.8602C186.51 30.1602 186.65 29.6702 186.94 29.3902C187.23 29.1102 187.72 28.9602 188.41 28.9602H193.42C193.77 28.9602 194.07 28.9902 194.31 29.0602C194.55 29.1302 194.75 29.2402 194.9 29.3802C195.05 29.5302 195.16 29.7202 195.23 29.9702C195.3 30.2202 195.33 30.5102 195.33 30.8602V31.0402L193.88 31.3402V31.3302Z" fill="white"/>
<path d="M198.52 28.9502H199.97V37.5802H198.52V28.9502Z" fill="white"/>
<path d="M211.26 31.4002V30.3002H204.51V36.2102H211.26V33.9102H207.77V32.6302H212.71V35.6702C212.71 36.0202 212.68 36.3202 212.61 36.5602C212.54 36.8002 212.43 37.0002 212.28 37.1502C212.13 37.3002 211.94 37.4102 211.69 37.4702C211.44 37.5302 211.15 37.5702 210.81 37.5702H204.96C204.61 37.5702 204.31 37.5402 204.07 37.4702C203.83 37.4002 203.64 37.3002 203.49 37.1502C203.34 37.0002 203.23 36.8102 203.17 36.5602C203.1 36.3202 203.07 36.0202 203.07 35.6702V30.8502C203.07 30.1502 203.21 29.6602 203.49 29.3802C203.77 29.1002 204.26 28.9502 204.96 28.9502H210.81C211.51 28.9502 212 29.0902 212.28 29.3802C212.56 29.6602 212.71 30.1602 212.71 30.8502V31.1102L211.26 31.4102V31.4002Z" fill="white"/>
<path d="M215.82 28.9502H216.86L224.15 35.4202V28.9502H225.6V37.5802H224.56L217.27 31.1102V37.5802H215.82V28.9502Z" fill="white"/>
<path d="M46.3002 37.1701H36.8702V30.0801H29.4902V43.3801H49.1902C52.2002 43.3801 53.7002 41.8801 53.7002 38.8701V30.0801H46.2902V37.1701H46.3002Z" fill="#272660"/>
<path d="M52.0105 24.33C51.8605 24.18 50.5205 23.03 48.0205 21.49C50.6605 20.26 51.7305 19.51 51.8805 19.39C52.9305 18.47 53.4605 17.16 53.4605 15.48V4.54C53.4605 1.51 52.0005 0 49.0805 0H29.5005V36.04H36.8805V23.96H42.6805L46.3105 26.36V36.04H53.7205V28.13C53.7205 26.41 53.1505 25.32 52.0205 24.34L52.0105 24.33ZM46.1105 16.76L42.5505 19.28H36.8805V6.21H46.1205V16.76H46.1105Z" fill="#272660"/>
<path d="M17.3303 15.07V6.34L15.2703 6.36V6.34L10.9303 6.41H10.3103C10.3103 6.41 9.99033 11.38 4.51033 11.39V15.9L8.70033 15.83L8.57033 36.03H8.54033V37.03H17.3403V27.83H11.8603V21.56H24.7603V38.86C24.7603 41.87 23.2603 43.37 20.2503 43.37H4.72033C1.80033 43.37 0.340332 41.87 0.340332 38.86V4.54C0.340332 1.51 1.84033 0 4.82033 0H20.2303C23.2403 0 24.7403 1.51 24.7403 4.54V15.07H17.3303Z" fill="#EE5425"/>
<path d="M84.7505 23.69H82.5305V34.08C82.5305 34.78 82.4805 35.42 82.3805 36.04C82.0705 38.03 81.2705 39.64 79.9705 40.9C78.2705 42.55 75.9805 43.38 73.1005 43.38H58.2705V0H73.1005C75.9705 0 78.2705 0.84 79.9705 2.51C81.6705 4.18 82.5205 6.47 82.5205 9.36V18.13L78.5705 13.45L75.2205 17.43V10.47C75.2205 7.71 73.8005 6.34 70.9605 6.34H65.5505V37.04H70.7705C73.7305 37.04 75.2205 35.64 75.2205 32.85V23.69H72.4005L72.7305 23.28L75.2205 20.16L78.5705 15.95L82.5205 20.9L84.4205 23.28L84.7405 23.69H84.7505Z" fill="#272660"/>
</g>
<defs>
<clipPath id="clip0_29_48">
<rect width="233.35" height="43.38" fill="white" transform="translate(0.340332)"/>
</clipPath>
</defs>
</svg>
