<svg width="40" height="41" viewBox="0 0 40 41" fill="none" xmlns="http://www.w3.org/2000/svg">
<path d="M10.2901 18.97C11.0301 19.98 11.5201 20.77 12.1201 21.46C14.6201 24.31 17.2501 27.04 20.3001 29.33C21.2301 30.03 21.5201 29.99 22.2601 29.06C22.3001 29.01 22.3401 28.96 22.3801 28.9C24.0701 26.64 24.3701 26.54 27.0101 27.44C28.5101 27.95 30.0001 28.48 31.4901 29.04C33.1201 29.65 33.75 30.61 33.83 32.36C33.9 34 33.5501 35.52 32.6101 36.88C31.2701 38.82 29.4201 39.36 27.1301 39.16C23.0301 38.81 19.78 36.65 16.6 34.38C11.79 30.94 7.80004 26.69 4.60004 21.7C3.34004 19.74 2.19005 17.73 1.61005 15.46C1.28005 14.15 0.890058 12.84 1.24006 11.41C1.92006 8.63004 3.9601 6.77004 6.7801 6.57004C7.3101 6.53004 7.85007 6.53004 8.38007 6.57004C9.60007 6.64004 10.5801 7.16003 11.0301 8.33003C11.8401 10.42 12.63 12.52 13.32 14.66C13.71 15.85 13.3101 16.87 12.1801 17.57C11.5801 17.94 11.0301 18.42 10.2901 18.98V18.97Z" stroke="#EE5425" stroke-width="2" stroke-miterlimit="10"/>
<path d="M20.1602 0.459856C23.8202 1.02986 27.0901 2.53985 30.0701 4.71985C33.5101 7.22985 36.1502 10.4398 38.0302 14.2498C38.9902 16.2098 39.6901 18.2699 39.9601 20.4599C40.0701 21.3099 39.6702 22.0098 39.0302 22.1698C38.4902 22.2998 37.7401 21.8299 37.4901 21.1599C37.4001 20.9199 37.4301 20.6299 37.3801 20.3799C36.4701 16.1199 34.4601 12.4199 31.4401 9.34986C28.3201 6.16986 24.5502 4.01985 20.1702 3.02985C19.9802 2.98985 19.7701 3.01985 19.5701 2.96985C18.6101 2.71985 18.0101 1.97986 18.2201 1.31986C18.4301 0.639857 19.0902 0.369845 20.1702 0.479845L20.1602 0.459856Z" fill="#EE5425"/>
<path d="M33.7903 20.1C33.8503 21.09 33.6103 21.59 32.9203 21.78C32.2003 21.98 31.6603 21.68 31.3803 20.91C31.2203 20.48 31.1103 20.02 31.0103 19.57C30.1703 15.86 27.9703 13.14 24.8603 11.1C23.4703 10.19 22.0203 9.37001 20.2903 9.33001C20.2203 9.33001 20.1602 9.33001 20.0902 9.30001C18.9402 8.99001 18.4302 8.39 18.5902 7.54C18.7502 6.71 19.5103 6.36001 20.6803 6.61001C27.2603 8.03001 32.3303 13.08 33.7403 19.62C33.8003 19.88 33.8103 20.15 33.8003 20.1H33.7903Z" fill="#EE5425"/>
<path d="M27.79 19.68C27.79 20.47 27.2899 21.23 26.6999 21.35C25.9999 21.49 25.5199 21.13 25.3399 20.48C24.5599 17.62 22.74 15.82 19.88 15.02C19.23 14.84 18.86 14.36 19.03 13.66C19.2 12.97 20.0199 12.44 20.7399 12.6C22.3899 12.95 23.87 13.71 25.05 14.91C26.22 16.09 27.21 17.42 27.63 19.08C27.69 19.33 27.76 19.59 27.79 19.68Z" fill="#EE5425"/>
</svg>
