<svg width="23" height="24" viewBox="0 0 23 24" fill="none" xmlns="http://www.w3.org/2000/svg">
<path d="M0.159825 11.7201C0.139825 5.09012 5.30982 0.820116 10.5598 0.430116C13.9798 0.170116 17.0098 1.26012 19.4898 3.72012C21.9798 6.20012 23.0698 9.25012 22.8098 12.6601C22.3998 18.0201 17.9398 23.1101 11.2398 23.0901C5.34982 23.0701 0.00982477 17.9201 0.159825 11.7101V11.7201ZM6.21982 16.6701C6.21982 16.6701 6.17982 16.7401 6.21982 16.7801C6.21982 16.8001 6.21982 16.8201 6.23982 16.8501C6.26982 16.8701 6.29982 16.9201 6.32982 16.9201C6.95982 16.9201 7.58982 16.9301 8.22982 16.9301C8.44982 16.9301 8.43982 16.7601 8.43982 16.6101C8.43982 14.4401 8.43982 12.2801 8.42982 10.1101C8.43982 10.0401 8.42982 9.98011 8.36982 9.94011C7.66982 9.77011 6.95982 9.89012 6.25982 9.88012C6.22982 9.88012 6.20982 9.93012 6.17982 9.96012C6.18982 10.2301 6.10982 10.5001 6.24982 10.7601C6.19982 10.7901 6.18982 10.8201 6.23982 10.8601C6.23982 12.8001 6.23982 14.7301 6.23982 16.6701H6.21982ZM17.1198 16.5901C17.1198 15.4901 17.1198 14.4001 17.1198 13.3001C17.1898 13.0801 17.2198 12.8501 17.0998 12.6301C17.0198 11.6601 16.7498 10.7701 15.8798 10.2001C14.9698 9.61012 13.2598 9.57012 12.4098 10.5101C12.3598 10.5601 12.3198 10.6101 12.2498 10.6001C12.1398 10.5801 12.1698 10.4801 12.1598 10.4101C12.1298 10.2301 12.2398 10.0301 12.0898 9.87012C11.3998 9.71012 10.6898 9.84012 9.98982 9.80012C9.89982 9.80012 9.79982 9.78012 9.74982 9.89012C9.74982 12.1101 9.74982 14.3401 9.72982 16.5601C9.72982 16.8101 9.83982 16.8401 10.0498 16.8401C10.6398 16.8401 11.2398 16.8201 11.8298 16.8401C12.1198 16.8501 12.1898 16.7501 12.1898 16.4701C12.1798 15.2601 12.1898 14.0401 12.1898 12.8301C12.1898 12.2101 12.6298 11.6901 13.2198 11.6601C13.8598 11.6301 14.4098 11.8601 14.5298 12.5601C14.5498 12.6601 14.5898 12.7601 14.6198 12.8601C14.6198 14.1101 14.6198 15.3601 14.6098 16.6101C14.6098 16.8201 14.6598 16.9301 14.8998 16.9301C15.5698 16.9201 16.2398 16.9301 16.9098 16.9301C17.1698 16.9301 17.2598 16.8401 17.1498 16.5901H17.1198ZM7.20982 8.99012C7.87982 9.09012 8.50982 8.50012 8.50982 7.79012C8.50982 7.09012 7.96982 6.55012 7.18982 6.55012C6.49982 6.55012 5.81982 6.96012 5.90982 7.91012C5.96982 8.59012 6.39982 8.99012 7.21982 8.99012H7.20982Z" fill="white"/>
</svg>
