<svg width="38" height="27" viewBox="0 0 38 27" fill="none" xmlns="http://www.w3.org/2000/svg">
<path d="M18.7501 0.180176C23.2101 0.180176 27.6601 0.180176 32.1201 0.180176C33.9001 0.180176 35.3502 0.770178 36.4202 2.01018C37.0702 2.76018 37.3801 3.62019 37.3801 4.55019C37.3801 5.10019 37.0802 5.52018 36.5502 5.84018C34.8002 6.89018 33.0601 7.94018 31.3201 9.00018C27.5101 11.3002 23.7001 13.6102 19.8901 15.9202C19.0601 16.4202 18.4301 16.4102 17.6101 15.9202C12.4201 12.7802 7.24016 9.64018 2.05016 6.51018C1.67016 6.28018 1.29015 6.05019 0.910145 5.82019C0.320145 5.47019 0.100116 4.98018 0.130116 4.37018C0.250116 2.42018 1.80009 0.850178 3.85009 0.370178C4.36009 0.250178 4.91006 0.21018 5.45006 0.20018C9.88006 0.19018 14.3101 0.20018 18.7401 0.20018L18.7501 0.180176ZM3.68016 3.91019C3.81016 3.99019 3.91013 4.06018 4.02013 4.12018C5.15013 4.81018 6.28015 5.49018 7.42015 6.18018C11.1402 8.43018 14.8601 10.6802 18.5701 12.9402C18.7201 13.0302 18.8101 13.0202 18.9601 12.9402C23.8501 9.98019 28.7401 7.02018 33.6301 4.06018C33.7001 4.02018 33.7701 3.96019 33.8401 3.91019C33.4801 3.40019 33.0002 3.10019 32.3002 3.10019C31.5102 3.10019 30.7202 3.10019 29.9302 3.10019C24.2802 3.10019 18.6401 3.10019 12.9901 3.10019C10.4101 3.10019 7.83011 3.10019 5.25011 3.10019C4.55011 3.10019 4.05016 3.38018 3.68016 3.92018V3.91019Z" fill="#EE5425"/>
<path d="M18.7201 26.5401C14.3101 26.5401 9.90011 26.5401 5.49011 26.5401C3.56011 26.5401 2.01018 25.9101 0.930176 24.5001C0.370176 23.7701 0.130127 22.9501 0.130127 22.0801C0.130127 18.2301 0.130127 14.3701 0.130127 10.5201C0.130127 9.73008 0.670151 9.15007 1.53015 9.00007C2.24015 8.87007 3.06009 9.24008 3.34009 9.85008C3.45009 10.0801 3.50012 10.3501 3.50012 10.6001C3.50012 14.4101 3.50012 18.2301 3.50012 22.0401C3.50012 22.8001 3.91018 23.3401 4.68018 23.5601C4.89018 23.6201 5.12009 23.6401 5.34009 23.6401C13.7901 23.6401 22.2401 23.6401 30.6901 23.6401C31.1901 23.6401 31.6901 23.6401 32.1901 23.6401C33.3101 23.6301 34.0001 23.0201 34.0001 22.0501C34.0001 18.2201 34.0001 14.3901 34.0001 10.5601C34.0001 9.84007 34.4101 9.31007 35.1301 9.08007C36.2501 8.73007 37.3701 9.45007 37.3801 10.5301C37.3801 12.6301 37.3801 14.7201 37.3801 16.8201C37.3801 18.5701 37.4001 20.3201 37.3801 22.0701C37.3501 23.9801 36.3302 25.3701 34.3102 26.1901C33.6202 26.4701 32.8701 26.5601 32.1101 26.5601C27.6401 26.5601 23.1801 26.5601 18.7101 26.5601L18.7201 26.5401Z" fill="#EE5425"/>
</svg>
