<svg width="146" height="58" viewBox="0 0 146 58" fill="none" xmlns="http://www.w3.org/2000/svg">
<path d="M40.5198 52.49C40.5698 55.36 38.1198 57.71 35.2498 57.71H24.5498C24.5498 57.71 28.2398 57.09 30.6898 56.21C31.0698 56.07 31.2298 55.62 31.0098 55.27C30.5298 54.49 30.2498 53.57 30.2498 52.59C30.2498 50.66 31.3198 48.98 32.8898 48.1C33.6298 47.69 34.4698 47.46 35.3798 47.46C37.7798 47.46 39.7998 49.12 40.3598 51.35C40.4498 51.72 40.4998 52.11 40.5098 52.51L40.5198 52.49Z" fill="#1A4793"/>
<path d="M65.4599 43.88C65.4599 43.56 65.4599 43.23 65.4599 42.88C65.4599 42.45 65.4499 42 65.4399 41.53C65.4299 40.68 65.42 39.95 65.41 39.33C65.41 38.71 65.39 38.38 65.39 38.34C65.39 38.3 65.4 38.28 65.39 38.26C65.31 35.79 64.2999 33.61 62.3499 31.72C60.3999 29.81 58.21 28.86 55.78 28.86H42.5699C42.2499 28.86 41.9499 28.73 41.6899 28.48C41.4299 28.23 41.2799 27.93 41.2399 27.59C41.2399 27.45 41.2399 27.19 41.2399 26.82C41.2399 26.45 41.23 26.05 41.21 25.62C41.2 25.19 41.1899 24.65 41.1799 24C41.1999 23.8 41.2799 23.62 41.4199 23.46C41.5599 23.32 41.7599 23.24 42.0099 23.24H65.1899C65.1699 22.97 65.16 22.4 65.14 21.54C65.12 20.68 65.1099 19.73 65.0999 18.72C65.0899 17.7 65.07 16.43 65.03 14.9H38.6699C35.0699 14.9 33.0099 16.86 32.4899 20.79C32.4899 21.08 32.5 21.69 32.52 22.61C32.53 23.54 32.5499 24.49 32.5499 25.46C32.5499 26.43 32.5599 27.13 32.5599 27.54V27.78C32.5599 27.78 32.58 27.84 32.59 27.86C32.66 30.38 33.68 32.57 35.64 34.42C37.58 36.27 39.7699 37.2 42.2199 37.2H55.5099C55.8299 37.2 56.13 37.34 56.4 37.61C56.67 37.88 56.7799 38.18 56.7399 38.5C56.7399 38.64 56.7399 38.9 56.7399 39.27C56.7399 39.64 56.76 40.04 56.77 40.47C56.78 40.9 56.7899 41.44 56.7999 42.09C56.7399 42.61 56.45 42.87 55.95 42.87H27.5599L16.4699 0.740021H5.16992C2.83992 0.740021 0.939941 2.64002 0.939941 4.97002C0.939941 7.30002 2.83992 9.20002 5.16992 9.20002H9.94995L21.0399 51.33H28.9999C29.3599 49.46 30.5299 47.82 32.2299 46.88C33.1899 46.35 34.28 46.06 35.39 46.06C38.39 46.06 40.99 48.09 41.71 51C41.74 51.11 41.76 51.22 41.78 51.33H46.3599C46.3799 51.22 46.4099 51.11 46.4299 51C47.1499 48.09 49.7499 46.06 52.7499 46.06C55.7499 46.06 58.3499 48.09 59.0699 51C59.0999 51.11 59.12 51.22 59.14 51.33H59.4699C61.2599 51.3 62.7 50.74 63.78 49.66C64.89 48.53 65.4599 47.07 65.4899 45.28C65.4699 45.06 65.4599 44.6 65.4499 43.87L65.4599 43.88Z" fill="#1A4793"/>
<path d="M57.89 52.63C57.86 55.46 55.4599 57.71 52.6199 57.71H41.9199C41.9199 57.71 45.6099 57.09 48.0599 56.21C48.4399 56.07 48.5999 55.62 48.3799 55.27C47.8999 54.49 47.6199 53.57 47.6199 52.59C47.6199 52.16 47.67 51.74 47.77 51.34C48.33 49.11 50.3499 47.45 52.7499 47.45C55.1499 47.45 57.1699 49.11 57.7299 51.34C57.8399 51.75 57.89 52.19 57.89 52.64V52.63Z" fill="#1A4793"/>
<path d="M87.1399 46.09V34.29H74.6799V46.09H69.3398V17.16H74.6799V28.95H87.1399V17.16H92.4799V46.09H87.1399Z" fill="#26ABE1"/>
<path d="M127.82 45.88V17.02H132.44C135.91 17.02 138.89 18.03 141.32 20.01H141.34C142.66 21.18 143.56 22.28 144.19 23.47C144.93 24.87 145.3 26.37 145.3 27.93C145.3 29.49 144.93 31.05 144.19 32.39C143.53 33.71 142.57 34.89 141.32 35.92C139.06 37.77 136.31 38.79 133.16 38.96V45.89H127.82V45.88ZM133.16 33.6C134.98 33.44 136.55 32.83 137.95 31.73C139.31 30.7 139.96 29.45 139.96 27.93C139.96 26.41 139.3 25.23 137.95 24.2H137.93C136.58 23.07 135.02 22.48 133.15 22.38V33.6H133.16Z" fill="#26ABE1"/>
<path d="M125.21 43.86C125.22 44.03 125.16 44.18 125.04 44.31C124.84 44.52 124.51 44.54 124.27 44.37C123.89 44.09 123.51 43.8 123.13 43.51L120.72 41.7L119.94 41.17L119.7 45.63C119.7 45.63 119.68 45.61 119.65 45.57L115.91 39.96C114.86 38.39 113.81 36.81 112.76 35.24C112.71 35.17 112.7 35.14 112.7 35.14C112.74 35.14 112.81 35.16 112.84 35.17C114.51 35.66 116.17 36.14 117.84 36.63L124.62 38.6C124.62 38.6 124.69 38.62 124.65 38.66L120.83 40.34L124.94 43.44C125.09 43.55 125.18 43.7 125.2 43.88L125.21 43.86Z" fill="#1A4793"/>
<path d="M114.55 39.6C113.29 40.36 111.9 40.75 110.39 40.75C108.05 40.75 106.04 39.85 104.39 38.07C102.73 36.28 101.89 34.06 101.89 31.48C101.89 28.9 102.71 26.85 104.39 25.03C106.03 23.25 108.05 22.35 110.39 22.35C112.73 22.35 114.75 23.25 116.46 25.03C118.14 26.85 118.96 28.95 118.96 31.48C118.96 33.02 118.66 34.41 118.05 35.68C118.07 35.68 118.09 35.69 118.11 35.7L123.2 37.18C123.93 35.42 124.3 33.52 124.3 31.48C124.3 27.68 122.94 24.24 120.23 21.24C117.57 18.44 114.26 17.01 110.39 17.01C106.52 17.01 103.14 18.43 100.47 21.25C97.8697 24.14 96.5498 27.58 96.5498 31.48C96.5498 35.38 97.8697 38.89 100.47 41.71C103.15 44.61 106.49 46.08 110.38 46.08C113.01 46.08 115.39 45.37 117.49 44.01L115.12 40.46C114.93 40.17 114.73 39.88 114.54 39.59L114.55 39.6Z" fill="#26ABE1"/>
<path d="M84.1899 51.21C83.8599 50.66 83.3999 50.23 82.8199 49.91C82.2399 49.59 81.59 49.44 80.86 49.44C80.13 49.44 79.48 49.6 78.89 49.91C78.31 50.22 77.85 50.66 77.52 51.21C77.19 51.76 77.02 52.38 77.02 53.07C77.02 53.76 77.18 54.38 77.52 54.93C77.85 55.48 78.31 55.91 78.89 56.23C79.25 56.42 79.6401 56.55 80.0601 56.63C80.0201 56.53 80 56.42 80 56.29C80 56.04 80.08 55.84 80.24 55.67C80.4 55.5 80.61 55.42 80.85 55.42C81.09 55.42 81.29 55.5 81.46 55.67C81.63 55.84 81.71 56.04 81.71 56.29C81.71 56.42 81.69 56.53 81.65 56.63C82.07 56.56 82.4599 56.43 82.8199 56.24C83.3999 55.93 83.8599 55.49 84.1899 54.94C84.5199 54.39 84.6899 53.77 84.6899 53.08C84.6899 52.39 84.5199 51.77 84.1899 51.22V51.21ZM82.76 54.23C82.57 54.57 82.31 54.84 81.97 55.03C81.64 55.22 81.26 55.32 80.85 55.32C80.44 55.32 80.06 55.22 79.73 55.03C79.4 54.84 79.1299 54.57 78.9399 54.23C78.7499 53.89 78.65 53.5 78.65 53.07C78.65 52.64 78.7399 52.25 78.9399 51.91C79.1299 51.57 79.39 51.3 79.73 51.11C80.06 50.92 80.44 50.82 80.85 50.82C81.26 50.82 81.64 50.92 81.97 51.11C82.3 51.3 82.57 51.57 82.76 51.91C82.95 52.25 83.05 52.64 83.05 53.07C83.05 53.5 82.96 53.89 82.76 54.23Z" fill="#1A4793"/>
<path d="M80.3601 56.76C80.2301 56.64 80.1602 56.47 80.1602 56.27C80.1602 56.07 80.2201 55.9 80.3601 55.77C80.4901 55.64 80.6601 55.57 80.8601 55.57C81.0601 55.57 81.2201 55.64 81.3501 55.77C81.4801 55.9 81.5502 56.07 81.5502 56.27C81.5502 56.47 81.4901 56.63 81.3601 56.76C81.2301 56.88 81.0601 56.94 80.8601 56.94C80.6601 56.94 80.4901 56.88 80.3601 56.76Z" fill="#1A4793"/>
<path d="M101.23 55.41C101.47 55.41 101.67 55.49 101.84 55.66C101.94 55.76 102 55.87 102.04 56V49.57H100.42V55.99C100.46 55.87 100.52 55.75 100.62 55.66C100.78 55.49 100.99 55.41 101.23 55.41Z" fill="#1A4793"/>
<path d="M75.7999 49.56V56.56H74.4698L70.9799 52.31V56.56H69.3799V49.56H70.7198L74.1998 53.81V49.56H75.7999Z" fill="#1A4793"/>
<path d="M81.46 49.21L80.85 48.69L80.25 49.21H79.46L80.37 48.21H81.33L82.25 49.21H81.46Z" fill="#1A4793"/>
<path d="M133.97 49.21L133.37 48.69L132.77 49.21H131.97L132.89 48.21H133.85L134.77 49.21H133.97Z" fill="#1A4793"/>
<path d="M85.9102 49.56H87.5302V56.56H85.9102V49.56Z" fill="#1A4793"/>
<path d="M91.1997 52.47H95.5198V53.55H91.1997V52.47ZM92.1498 49.57H95.3297C96.0897 49.57 96.7597 49.72 97.3497 50.01C97.9297 50.3 98.3897 50.71 98.7097 51.24C99.0297 51.77 99.1997 52.38 99.1997 53.08C99.1997 53.78 99.0397 54.39 98.7097 54.92C98.3897 55.45 97.9297 55.86 97.3497 56.15C96.7697 56.44 96.0897 56.59 95.3297 56.59H92.1498V49.59V49.57ZM95.2498 55.24C95.9498 55.24 96.5098 55.04 96.9298 54.65C97.3498 54.26 97.5598 53.73 97.5598 53.06C97.5598 52.39 97.3498 51.86 96.9298 51.47C96.5098 51.08 95.9498 50.88 95.2498 50.88H93.7698V55.22H95.2498V55.24Z" fill="#1A4793"/>
<path d="M100.73 56.76C100.6 56.64 100.53 56.47 100.53 56.27C100.53 56.07 100.59 55.9 100.73 55.77C100.86 55.64 101.03 55.57 101.23 55.57C101.43 55.57 101.59 55.64 101.72 55.77C101.85 55.9 101.92 56.07 101.92 56.27C101.92 56.47 101.86 56.63 101.73 56.76C101.6 56.88 101.43 56.94 101.23 56.94C101.03 56.94 100.86 56.88 100.73 56.76Z" fill="#1A4793"/>
<path d="M108.31 55.07H105.06L104.44 56.57H102.78L105.9 49.57H107.5L110.63 56.57H108.93L108.31 55.07ZM107.8 53.84L106.69 51.16L105.58 53.84H107.8Z" fill="#1A4793"/>
<path d="M120.62 49.56V56.56H119.29L115.8 52.31V56.56H114.2V49.56H115.54L119.02 53.81V49.56H120.62Z" fill="#1A4793"/>
<path d="M128.7 49.56V56.56H127.08V53.69H123.9V56.56H122.28V49.56H123.9V52.32H127.08V49.56H128.7Z" fill="#1A4793"/>
<path d="M134.17 49.56H132.57L129.45 56.56H131.11L131.73 55.06H134.98L135.6 56.56H137.3L134.17 49.56ZM132.25 53.83L133.36 51.15L134.47 53.83H132.25Z" fill="#1A4793"/>
<path d="M132.87 56.76C132.74 56.64 132.67 56.47 132.67 56.27C132.67 56.07 132.73 55.9 132.87 55.77C133 55.64 133.17 55.57 133.37 55.57C133.57 55.57 133.73 55.64 133.86 55.77C133.99 55.9 134.06 56.07 134.06 56.27C134.06 56.47 134 56.63 133.87 56.76C133.74 56.88 133.57 56.94 133.37 56.94C133.17 56.94 133 56.88 132.87 56.76Z" fill="#1A4793"/>
<path d="M139.13 50.89H136.89V49.57H142.99V50.89H140.75V56.57H139.13V50.89Z" fill="#1A4793"/>
</svg>
