<svg width="152" height="64" viewBox="0 0 152 64" fill="none" xmlns="http://www.w3.org/2000/svg">
<path d="M34.1401 53.96L37.2701 32.99H46.2201L45.8001 35.82H39.8501L38.9001 42.18H44.0801L43.6601 45.01H38.4801L37.1401 53.96H34.1401Z" fill="#027DC2"/>
<path d="M57.2 37.55L56.98 39.02H53.98L54.08 38.34C54.33 36.65 53.75 35.81 52.34 35.81C50.93 35.81 50.17 36.71 49.9 38.52C49.77 39.38 49.77 39.97 49.9 40.29C50.06 40.68 50.49 41.03 51.19 41.32L53.35 42.23C54.53 42.72 55.28 43.43 55.6 44.35C55.88 45.14 55.89 46.34 55.65 47.97C55.04 52.07 53 54.13 49.55 54.13C48.1 54.13 46.95 53.65 46.11 52.7C45.27 51.75 44.96 50.56 45.17 49.15L45.34 48.03H48.34L48.2 48.97C47.99 50.4 48.59 51.12 50 51.12C50.92 51.12 51.58 50.84 51.98 50.27C52.25 49.88 52.48 49.12 52.64 48C52.79 47 52.82 46.34 52.73 46.03C52.58 45.56 52.13 45.16 51.38 44.82L49.36 43.94C48.2 43.43 47.44 42.72 47.08 41.82C46.75 41.03 46.68 39.94 46.89 38.55C47.14 36.88 47.77 35.53 48.79 34.49C49.88 33.37 51.25 32.81 52.9 32.81C54.33 32.81 55.47 33.31 56.3 34.31C57.08 35.25 57.38 36.33 57.2 37.55Z" fill="#027DC2"/>
<path d="M56.9902 53.96L60.1202 32.99H69.0703L68.6503 35.82H62.7003L61.7502 42.18H66.9302L66.5103 45.01H61.3303L59.9902 53.96H56.9902Z" fill="#027DC2"/>
<path d="M67.98 53.96L71.11 32.99H74.11L70.98 53.96H67.98Z" fill="#027DC2"/>
<path d="M73.7803 53.96L76.9102 32.99H79.8203L82.5002 45.63L84.3903 32.99H87.3903L84.2603 53.96H81.4102L78.6602 41.35L76.7803 53.96H73.7803Z" fill="#027DC2"/>
<path d="M85.6201 53.96L93.4301 32.99H95.9301L97.4801 53.96H94.4801L94.2701 49.45H90.1801L88.6201 53.96H85.6201ZM94.1401 46.63L93.8001 39.03H93.7401L91.1301 46.63H94.1301H94.1401Z" fill="#027DC2"/>
<path d="M98.8403 53.96L101.97 32.99H104.88L107.56 45.63L109.45 32.99H112.45L109.32 53.96H106.47L103.72 41.35L101.84 53.96H98.8403Z" fill="#027DC2"/>
<path d="M122.47 47.98L122.28 49.28C122.08 50.6 121.45 51.73 120.37 52.7C119.29 53.66 118.1 54.14 116.78 54.14C115.46 54.14 114.37 53.8 113.61 53.11C112.66 52.25 112.31 50.94 112.57 49.19L114.29 37.64C114.5 36.25 115.13 35.09 116.18 34.18C117.23 33.27 118.47 32.81 119.9 32.81C121.33 32.81 122.38 33.28 123.15 34.22C123.92 35.16 124.2 36.36 123.98 37.81L123.8 38.99H120.8L120.95 37.99C121.04 37.38 120.95 36.87 120.67 36.44C120.39 36.02 119.97 35.81 119.42 35.81C118.18 35.81 117.44 36.63 117.2 38.25L115.6 48.97C115.39 50.4 115.89 51.12 117.1 51.12C118.31 51.12 119.09 50.41 119.3 49L119.45 47.97H122.45L122.47 47.98Z" fill="#027DC2"/>
<path d="M124.11 53.96L127.24 32.99H130.24L127.11 53.96H124.11Z" fill="#027DC2"/>
<path d="M128.68 53.96L136.49 32.99H138.99L140.54 53.96H137.54L137.33 49.45H133.24L131.68 53.96H128.68ZM137.2 46.63L136.86 39.03H136.8L134.19 46.63H137.19H137.2Z" fill="#027DC2"/>
<path d="M142.02 53.96L145.15 32.99H148.15L145.47 50.96H151.42L150.97 53.96H142.02Z" fill="#027DC2"/>
<path d="M36.2102 62.12C36.2902 62.12 36.3602 62.12 36.4202 62.11C36.4802 62.1 36.5502 62.09 36.6102 62.08C36.6702 62.07 36.7302 62.05 36.7802 62.03C36.8302 62.01 36.8902 61.98 36.9402 61.95L37.0302 61.21H36.5802C36.5802 61.21 36.5202 61.21 36.5002 61.18C36.4802 61.16 36.4702 61.14 36.4802 61.1L36.5202 60.78H37.6002L37.4302 62.19C37.3402 62.25 37.2402 62.31 37.1502 62.36C37.0602 62.41 36.9502 62.45 36.8502 62.48C36.7402 62.51 36.6302 62.54 36.5102 62.55C36.3902 62.56 36.2602 62.57 36.1302 62.57C35.9102 62.57 35.7102 62.53 35.5302 62.45C35.3502 62.37 35.2002 62.26 35.0702 62.12C34.9402 61.98 34.8502 61.81 34.7802 61.62C34.7102 61.42 34.6802 61.21 34.6802 60.98C34.6802 60.67 34.7302 60.39 34.8302 60.14C34.9302 59.88 35.0602 59.66 35.2302 59.48C35.4002 59.29 35.6002 59.15 35.8402 59.05C36.0802 58.95 36.3302 58.9 36.6002 58.9C36.7402 58.9 36.8702 58.91 36.9902 58.94C37.1102 58.97 37.2102 59 37.3102 59.04C37.4002 59.08 37.4902 59.13 37.5602 59.19C37.6402 59.25 37.7002 59.31 37.7602 59.38L37.5802 59.62C37.5802 59.62 37.5102 59.69 37.4702 59.7C37.4302 59.7 37.3902 59.7 37.3402 59.67C37.3002 59.64 37.2502 59.61 37.2102 59.58C37.1602 59.55 37.1102 59.52 37.0502 59.49C36.9902 59.46 36.9202 59.44 36.8402 59.42C36.7602 59.4 36.6702 59.39 36.5602 59.39C36.3702 59.39 36.1902 59.43 36.0302 59.5C35.8702 59.58 35.7302 59.68 35.6202 59.82C35.5102 59.96 35.4202 60.12 35.3502 60.32C35.2902 60.52 35.2602 60.73 35.2602 60.97C35.2602 61.15 35.2802 61.31 35.3302 61.45C35.3802 61.59 35.4402 61.71 35.5302 61.81C35.6102 61.91 35.7202 61.99 35.8402 62.04C35.9602 62.09 36.0902 62.12 36.2402 62.12H36.2102Z" fill="#58595B"/>
<path d="M38.7202 62.54H38.1602L38.6002 58.94H39.1602L38.7202 62.54Z" fill="#58595B"/>
<path d="M42.42 62.54H41.99C41.99 62.54 41.9 62.53 41.87 62.5C41.84 62.48 41.82 62.44 41.81 62.4L41.64 61.59H40.24L39.87 62.4C39.87 62.4 39.83 62.47 39.79 62.49C39.75 62.52 39.71 62.53 39.67 62.53H39.23L40.98 58.93H41.55L42.42 62.53V62.54ZM40.42 61.2H41.55L41.27 59.85C41.27 59.8 41.25 59.74 41.24 59.67C41.23 59.6 41.22 59.53 41.2 59.45C41.17 59.53 41.14 59.6 41.11 59.67C41.08 59.74 41.06 59.8 41.03 59.85L40.41 61.19L40.42 61.2ZM40.87 58.09C40.92 58.05 40.99 58.02 41.08 58C41.17 57.98 41.25 57.96 41.35 57.96C41.5 57.96 41.61 57.99 41.68 58.05C41.75 58.11 41.78 58.19 41.77 58.28C41.77 58.36 41.72 58.43 41.66 58.48C41.6 58.53 41.52 58.57 41.44 58.59L41.39 58.73H41.15L41.18 58.46C41.26 58.45 41.32 58.43 41.36 58.41C41.4 58.39 41.42 58.36 41.42 58.33C41.42 58.3 41.42 58.27 41.38 58.25C41.34 58.23 41.31 58.22 41.26 58.22C41.23 58.22 41.2 58.22 41.18 58.22C41.16 58.22 41.13 58.23 41.11 58.24C41.09 58.24 41.07 58.26 41.05 58.26C41.03 58.26 41.02 58.27 41.01 58.27C40.99 58.27 40.98 58.27 40.97 58.26C40.97 58.26 40.95 58.24 40.95 58.22L40.87 58.08V58.09Z" fill="#58595B"/>
<path d="M43.4902 62.54H42.9302L43.3702 58.94H43.9302L43.4902 62.54Z" fill="#58595B"/>
<path d="M46.3503 61.23L46.1904 62.54H45.6304L46.0704 58.94H47.1104C47.3104 58.94 47.4804 58.96 47.6204 59.01C47.7604 59.06 47.8803 59.12 47.9803 59.21C48.0703 59.3 48.1404 59.4 48.1904 59.52C48.2404 59.64 48.2604 59.77 48.2604 59.91C48.2604 60.1 48.2303 60.28 48.1703 60.44C48.1103 60.6 48.0204 60.74 47.9004 60.86C47.7804 60.98 47.6304 61.07 47.4504 61.13C47.2704 61.2 47.0704 61.23 46.8304 61.23H46.3503ZM46.5804 59.38L46.4103 60.78H46.8904C47.0204 60.78 47.1404 60.76 47.2404 60.72C47.3404 60.68 47.4204 60.62 47.4904 60.55C47.5604 60.48 47.6104 60.39 47.6404 60.29C47.6704 60.19 47.6904 60.08 47.6904 59.96C47.6904 59.78 47.6403 59.64 47.5403 59.54C47.4403 59.44 47.2804 59.38 47.0604 59.38H46.5804Z" fill="#58595B"/>
<path d="M51.3501 62.54H50.7901L50.9901 60.93H49.3601L49.1601 62.54H48.6001L49.0401 58.94H49.6101L49.4101 60.52H51.0401L51.2401 58.94H51.8101L51.3701 62.54H51.3501Z" fill="#58595B"/>
<path d="M55.0504 62.54H54.6204C54.6204 62.54 54.5304 62.53 54.5004 62.5C54.4704 62.48 54.4504 62.44 54.4404 62.4L54.2704 61.59H52.8704L52.5004 62.4C52.5004 62.4 52.4603 62.47 52.4203 62.49C52.3803 62.52 52.3404 62.53 52.3004 62.53H51.8604L53.6104 58.93H54.1804L55.0504 62.53V62.54ZM53.0504 61.2H54.1804L53.9004 59.85C53.9004 59.8 53.8804 59.74 53.8704 59.67C53.8604 59.6 53.8504 59.53 53.8304 59.45C53.8004 59.53 53.7704 59.6 53.7404 59.67C53.7104 59.74 53.6903 59.8 53.6603 59.85L53.0403 61.19L53.0504 61.2ZM54.9404 57.9L54.1204 58.61C54.1204 58.61 54.0603 58.65 54.0403 58.66C54.0103 58.66 53.9804 58.66 53.9404 58.66H53.5904L54.1703 57.98C54.1703 57.98 54.2003 57.94 54.2203 57.93C54.2303 57.92 54.2504 57.91 54.2704 57.9C54.2904 57.9 54.3104 57.89 54.3304 57.89C54.3504 57.89 54.3804 57.89 54.4004 57.89H54.9504L54.9404 57.9Z" fill="#58595B"/>
<path d="M56.2801 61.23L56.1201 62.54H55.5601L56.0001 58.94H57.04C57.24 58.94 57.41 58.96 57.55 59.01C57.69 59.06 57.81 59.12 57.91 59.21C58 59.3 58.0701 59.4 58.1201 59.52C58.1701 59.64 58.1901 59.77 58.1901 59.91C58.1901 60.1 58.16 60.28 58.1 60.44C58.04 60.6 57.9501 60.74 57.8301 60.86C57.7101 60.98 57.5601 61.07 57.3801 61.13C57.2001 61.2 57.0001 61.23 56.7601 61.23H56.2801ZM56.5101 59.38L56.3401 60.78H56.8201C56.9501 60.78 57.07 60.76 57.17 60.72C57.27 60.68 57.35 60.62 57.42 60.55C57.49 60.48 57.5401 60.39 57.5701 60.29C57.6001 60.19 57.6201 60.08 57.6201 59.96C57.6201 59.78 57.57 59.64 57.47 59.54C57.37 59.44 57.2101 59.38 56.9901 59.38H56.5101Z" fill="#58595B"/>
<path d="M62.2001 58.94L62.1401 59.41H61.1201L60.7401 62.54H60.1801L60.5601 59.41H59.54L59.6 58.94H62.2101H62.2001Z" fill="#58595B"/>
<path d="M64.8204 62.54H64.3904C64.3904 62.54 64.3004 62.53 64.2704 62.5C64.2404 62.48 64.2204 62.44 64.2104 62.4L64.0403 61.59H62.6404L62.2704 62.4C62.2704 62.4 62.2304 62.47 62.1904 62.49C62.1504 62.52 62.1104 62.53 62.0704 62.53H61.6304L63.3804 58.93H63.9504L64.8204 62.53V62.54ZM63.3204 57.9C63.3204 57.9 63.3704 57.9 63.3904 57.9C63.4104 57.9 63.4304 57.9 63.4404 57.91C63.4604 57.91 63.4703 57.93 63.4803 57.94C63.4903 57.95 63.5104 57.97 63.5204 57.99L63.9504 58.67H63.6003C63.6003 58.67 63.5304 58.67 63.5104 58.67C63.4904 58.67 63.4604 58.65 63.4404 58.62L62.8004 57.9H63.3204ZM62.8204 61.2H63.9504L63.6703 59.85C63.6703 59.8 63.6504 59.74 63.6404 59.67C63.6304 59.6 63.6203 59.53 63.6003 59.45C63.5703 59.53 63.5404 59.6 63.5104 59.67C63.4804 59.74 63.4604 59.8 63.4304 59.85L62.8104 61.19L62.8204 61.2Z" fill="#58595B"/>
<path d="M65.8901 62.54H65.3301L65.7701 58.94H66.3301L65.8901 62.54Z" fill="#58595B"/>
<path d="M69.5101 62.09C69.6101 62.09 69.71 62.09 69.79 62.06C69.87 62.04 69.9401 62.02 70.0001 62C70.0601 61.97 70.1101 61.95 70.1501 61.92C70.1901 61.89 70.2301 61.86 70.2601 61.84C70.2901 61.81 70.3201 61.79 70.3401 61.78C70.3601 61.76 70.39 61.76 70.41 61.76C70.43 61.76 70.4401 61.76 70.4501 61.77C70.4601 61.77 70.47 61.79 70.48 61.79L70.6801 62.04C70.5201 62.21 70.3401 62.35 70.1301 62.44C69.9201 62.53 69.68 62.58 69.41 62.58C69.19 62.58 69.0001 62.54 68.8301 62.46C68.6601 62.38 68.5101 62.27 68.4001 62.14C68.2801 62 68.1901 61.84 68.1301 61.65C68.0701 61.46 68.04 61.25 68.04 61.02C68.04 60.71 68.0901 60.42 68.1901 60.16C68.2901 59.9 68.4201 59.68 68.5901 59.49C68.7601 59.3 68.9601 59.16 69.1901 59.06C69.4201 58.96 69.6701 58.9 69.9301 58.9C70.0601 58.9 70.1801 58.91 70.2801 58.94C70.3801 58.97 70.4801 59 70.5701 59.04C70.6601 59.08 70.73 59.13 70.8 59.19C70.87 59.25 70.9301 59.32 70.9901 59.39L70.8 59.63C70.8 59.63 70.7701 59.66 70.7501 59.68C70.7301 59.69 70.71 59.7 70.67 59.7C70.65 59.7 70.63 59.7 70.6 59.68C70.58 59.67 70.5501 59.65 70.5301 59.62C70.5001 59.6 70.4701 59.57 70.4401 59.55C70.4001 59.52 70.3601 59.5 70.3101 59.48C70.2601 59.46 70.2001 59.44 70.1301 59.42C70.0601 59.41 69.9801 59.4 69.8901 59.4C69.7101 59.4 69.5401 59.44 69.3801 59.51C69.2201 59.58 69.08 59.69 68.97 59.83C68.85 59.97 68.7601 60.13 68.7001 60.33C68.6301 60.53 68.6 60.74 68.6 60.98C68.6 61.15 68.62 61.31 68.67 61.45C68.71 61.59 68.78 61.71 68.86 61.81C68.94 61.91 69.0401 61.98 69.1501 62.03C69.2601 62.08 69.3801 62.11 69.5101 62.11V62.09Z" fill="#58595B"/>
<path d="M74 62.54H73.44L73.64 60.93H72.01L71.81 62.54H71.25L71.69 58.94H72.26L72.06 60.52H73.69L73.89 58.94H74.46L74.02 62.54H74Z" fill="#58595B"/>
<path d="M75.4702 62.54H74.9102L75.3502 58.94H75.9102L75.4702 62.54ZM76.7102 57.9L75.8902 58.61C75.8902 58.61 75.8302 58.65 75.8102 58.66C75.7802 58.66 75.7502 58.66 75.7202 58.66H75.3702L75.9502 57.98C75.9502 57.98 75.9802 57.94 76.0002 57.93C76.0102 57.92 76.0302 57.91 76.0502 57.9C76.0702 57.9 76.0902 57.89 76.1102 57.89C76.1302 57.89 76.1602 57.89 76.1802 57.89H76.7302L76.7102 57.9Z" fill="#58595B"/>
<path d="M77.2203 58.96C77.2203 58.96 77.2703 59 77.2903 59.04L78.7604 61.63C78.7604 61.63 78.7604 61.54 78.7604 61.5C78.7604 61.46 78.7604 61.42 78.7704 61.38L79.0704 58.94H79.5704L79.1304 62.54H78.8503C78.8503 62.54 78.7704 62.54 78.7404 62.52C78.7104 62.5 78.6903 62.48 78.6603 62.44L77.1904 59.85C77.1904 59.85 77.1904 59.92 77.1904 59.96C77.1904 60 77.1904 60.03 77.1904 60.06L76.8904 62.55H76.4004L76.8404 58.95H77.1304C77.1304 58.95 77.2204 58.95 77.2404 58.96H77.2203Z" fill="#58595B"/>
<path d="M82.8003 62.54H82.2403L82.4403 60.93H80.8103L80.6103 62.54H80.0503L80.4903 58.94H81.0603L80.8603 60.52H82.4903L82.6803 58.94H83.2503L82.8103 62.54H82.8003Z" fill="#58595B"/>
<path d="M87.5201 58.94L87.4601 59.41H86.4401L86.0501 62.54H85.4901L85.8701 59.41H84.8501L84.9101 58.94H87.5201Z" fill="#58595B"/>
<path d="M90.92 60.49C90.92 60.69 90.9 60.88 90.85 61.06C90.81 61.24 90.74 61.41 90.66 61.56C90.58 61.71 90.4801 61.85 90.3701 61.98C90.2501 62.1 90.13 62.21 89.98 62.3C89.84 62.39 89.6901 62.46 89.5201 62.5C89.3501 62.54 89.1801 62.57 89.0001 62.57C88.7701 62.57 88.5701 62.53 88.3901 62.45C88.2101 62.37 88.0601 62.26 87.9301 62.12C87.8001 61.98 87.7101 61.81 87.6401 61.62C87.5701 61.43 87.54 61.22 87.54 60.99C87.54 60.79 87.56 60.6 87.61 60.42C87.65 60.24 87.72 60.07 87.8 59.92C87.88 59.76 87.9801 59.63 88.0901 59.5C88.2001 59.37 88.33 59.27 88.47 59.18C88.61 59.09 88.7701 59.03 88.9301 58.98C89.0901 58.93 89.2701 58.91 89.4501 58.91C89.6801 58.91 89.8801 58.95 90.0601 59.03C90.2401 59.11 90.3901 59.22 90.5201 59.36C90.6501 59.5 90.7401 59.67 90.8101 59.86C90.8801 60.05 90.91 60.27 90.91 60.49H90.92ZM90.3401 60.5C90.3401 60.33 90.3201 60.17 90.2701 60.03C90.2301 59.89 90.1601 59.77 90.0801 59.67C90.0001 59.57 89.9001 59.49 89.7801 59.44C89.6601 59.39 89.5301 59.36 89.3801 59.36C89.1901 59.36 89.02 59.4 88.86 59.47C88.7 59.55 88.5701 59.65 88.4601 59.79C88.3501 59.93 88.2601 60.1 88.2001 60.3C88.1401 60.5 88.11 60.72 88.11 60.96C88.11 61.13 88.1301 61.29 88.1801 61.43C88.2201 61.57 88.2901 61.69 88.3701 61.79C88.4501 61.89 88.55 61.97 88.67 62.02C88.79 62.07 88.9201 62.1 89.0701 62.1C89.2601 62.1 89.4301 62.06 89.5901 61.99C89.7501 61.91 89.8801 61.81 89.9901 61.67C90.1001 61.53 90.1901 61.36 90.2501 61.17C90.3101 60.98 90.3401 60.75 90.3401 60.51V60.5ZM90.29 58.67H89.9301C89.9301 58.67 89.88 58.67 89.85 58.66C89.82 58.66 89.7901 58.63 89.7701 58.58L89.5801 58.28C89.5801 58.28 89.5601 58.25 89.5601 58.23L89.5301 58.28L89.2701 58.58C89.2701 58.58 89.2 58.65 89.17 58.66C89.14 58.66 89.1101 58.67 89.0901 58.67H88.7501L89.3801 57.99H89.8201L90.3 58.67H90.29ZM91.11 57.65L90.4901 58.19C90.4301 58.25 90.3701 58.28 90.3201 58.27C90.2701 58.26 90.2301 58.23 90.1901 58.18L90.1301 58.09L90.41 57.76C90.41 57.76 90.4701 57.69 90.5001 57.67C90.5301 57.65 90.5701 57.64 90.6301 57.64H91.11V57.65Z" fill="#58595B"/>
<path d="M91.9604 62.54H91.4004L91.8404 58.94H92.4004L91.9604 62.54Z" fill="#58595B"/>
<path d="M95.4604 62.09C95.5804 62.09 95.7003 62.07 95.8003 62.02C95.9003 61.97 96.0004 61.91 96.0704 61.82C96.1504 61.73 96.2104 61.63 96.2604 61.51C96.3104 61.39 96.3403 61.26 96.3603 61.12L96.6304 58.95H97.1903L97.1304 59.46C97.2804 59.46 97.3903 59.42 97.4703 59.36C97.5503 59.3 97.6003 59.22 97.6003 59.12C97.6003 59.1 97.6003 59.07 97.6003 59.05C97.6003 59.03 97.5904 59.01 97.5804 58.99C97.5804 58.97 97.5703 58.95 97.5603 58.93C97.5503 58.91 97.5603 58.88 97.5603 58.85C97.5603 58.76 97.5904 58.69 97.6404 58.64C97.6904 58.59 97.7704 58.57 97.8804 58.57H98.1603C98.1603 58.57 98.1603 58.61 98.1603 58.64C98.1603 58.67 98.1603 58.7 98.1603 58.71C98.1603 58.86 98.1404 58.99 98.0904 59.11C98.0404 59.23 97.9804 59.34 97.8904 59.42C97.8004 59.51 97.6903 59.58 97.5603 59.62C97.4303 59.67 97.2803 59.69 97.1103 59.7L96.9403 61.09C96.9103 61.3 96.8604 61.49 96.7704 61.67C96.6904 61.85 96.5803 62 96.4403 62.13C96.3103 62.26 96.1503 62.36 95.9803 62.44C95.8003 62.51 95.6104 62.55 95.4004 62.55C95.1904 62.55 95.0103 62.51 94.8503 62.44C94.6903 62.37 94.5604 62.26 94.4604 62.13C94.3604 62 94.2903 61.84 94.2503 61.67C94.2103 61.49 94.2003 61.3 94.2303 61.09L94.4903 58.92H95.0503L94.7903 61.09C94.7703 61.23 94.7703 61.36 94.7903 61.48C94.8103 61.6 94.8503 61.7 94.9103 61.79C94.9703 61.88 95.0404 61.94 95.1404 61.99C95.2404 62.04 95.3403 62.06 95.4703 62.06L95.4604 62.09Z" fill="#58595B"/>
<path d="M99.5699 62.09C99.6899 62.09 99.8099 62.07 99.9099 62.02C100.01 61.97 100.11 61.91 100.18 61.82C100.26 61.73 100.32 61.63 100.37 61.51C100.42 61.39 100.45 61.26 100.47 61.12L100.74 58.95H101.3L101.04 61.12C101.01 61.33 100.96 61.52 100.87 61.7C100.79 61.88 100.68 62.03 100.54 62.16C100.41 62.29 100.25 62.39 100.08 62.47C99.9 62.54 99.7099 62.58 99.4999 62.58C99.2899 62.58 99.11 62.54 98.95 62.47C98.79 62.4 98.6599 62.29 98.5599 62.16C98.4599 62.03 98.3899 61.87 98.3499 61.7C98.3099 61.52 98.3 61.33 98.33 61.12L98.59 58.95H99.15L98.89 61.12C98.87 61.26 98.87 61.39 98.89 61.51C98.91 61.63 98.95 61.73 99.01 61.82C99.07 61.91 99.1399 61.97 99.2399 62.02C99.3399 62.07 99.4399 62.09 99.5699 62.09Z" fill="#58595B"/>
<path d="M104.45 62.09C104.55 62.09 104.65 62.09 104.73 62.06C104.81 62.03 104.88 62.02 104.94 62C105 61.97 105.05 61.95 105.09 61.92C105.13 61.89 105.17 61.86 105.2 61.84C105.23 61.81 105.26 61.79 105.28 61.78C105.3 61.76 105.33 61.76 105.35 61.76C105.37 61.76 105.38 61.76 105.4 61.77C105.42 61.78 105.42 61.79 105.43 61.79L105.63 62.04C105.47 62.21 105.29 62.35 105.08 62.44C104.87 62.54 104.63 62.58 104.36 62.58C104.14 62.58 103.95 62.54 103.78 62.46C103.61 62.38 103.46 62.27 103.35 62.14C103.24 62.01 103.14 61.84 103.08 61.65C103.02 61.46 102.99 61.25 102.99 61.02C102.99 60.71 103.04 60.42 103.14 60.16C103.24 59.9 103.37 59.68 103.54 59.49C103.71 59.3 103.91 59.16 104.14 59.06C104.37 58.96 104.62 58.9 104.88 58.9C105.01 58.9 105.13 58.91 105.23 58.94C105.34 58.96 105.43 59 105.52 59.04C105.61 59.08 105.68 59.13 105.75 59.19C105.82 59.25 105.88 59.32 105.94 59.39L105.75 59.63C105.75 59.63 105.72 59.66 105.7 59.68C105.68 59.69 105.66 59.7 105.62 59.7C105.6 59.7 105.58 59.7 105.56 59.68C105.54 59.66 105.51 59.65 105.49 59.62C105.46 59.6 105.43 59.57 105.4 59.55C105.36 59.52 105.32 59.5 105.27 59.48C105.22 59.46 105.16 59.44 105.09 59.42C105.02 59.4 104.94 59.4 104.85 59.4C104.67 59.4 104.5 59.44 104.34 59.51C104.18 59.58 104.04 59.69 103.93 59.83C103.81 59.97 103.72 60.13 103.66 60.33C103.59 60.53 103.56 60.74 103.56 60.98C103.56 61.15 103.58 61.31 103.63 61.45C103.68 61.59 103.74 61.71 103.82 61.81C103.9 61.91 104 61.98 104.11 62.03C104.22 62.08 104.34 62.11 104.47 62.11L104.45 62.09Z" fill="#58595B"/>
<path d="M108.94 62.54H108.38L108.58 60.93H106.95L106.75 62.54H106.19L106.63 58.94H107.2L107 60.52H108.63L108.82 58.94H109.39L108.95 62.54H108.94Z" fill="#58595B"/>
<path d="M113.22 60.49C113.22 60.69 113.2 60.88 113.15 61.06C113.11 61.24 113.04 61.41 112.96 61.56C112.88 61.71 112.78 61.85 112.67 61.98C112.55 62.1 112.43 62.21 112.28 62.3C112.14 62.39 111.99 62.46 111.82 62.5C111.65 62.54 111.48 62.57 111.3 62.57C111.07 62.57 110.87 62.53 110.69 62.45C110.51 62.37 110.36 62.26 110.23 62.12C110.1 61.98 110.01 61.81 109.94 61.62C109.87 61.43 109.84 61.22 109.84 60.99C109.84 60.79 109.86 60.6 109.91 60.42C109.95 60.24 110.02 60.07 110.1 59.92C110.18 59.76 110.28 59.63 110.39 59.5C110.5 59.37 110.63 59.27 110.77 59.18C110.91 59.09 111.07 59.03 111.23 58.98C111.39 58.93 111.57 58.91 111.75 58.91C111.98 58.91 112.18 58.95 112.36 59.03C112.54 59.11 112.69 59.22 112.82 59.36C112.95 59.5 113.04 59.67 113.11 59.86C113.18 60.05 113.21 60.27 113.21 60.49H113.22ZM112.64 60.5C112.64 60.33 112.62 60.17 112.57 60.03C112.53 59.89 112.46 59.77 112.38 59.67C112.3 59.57 112.2 59.49 112.08 59.44C111.96 59.39 111.83 59.36 111.68 59.36C111.49 59.36 111.32 59.4 111.16 59.47C111 59.55 110.87 59.65 110.76 59.79C110.65 59.93 110.56 60.1 110.5 60.3C110.44 60.5 110.41 60.72 110.41 60.96C110.41 61.13 110.43 61.29 110.48 61.43C110.52 61.57 110.59 61.69 110.67 61.79C110.75 61.89 110.85 61.97 110.97 62.02C111.09 62.07 111.22 62.1 111.37 62.1C111.56 62.1 111.73 62.06 111.89 61.99C112.05 61.91 112.18 61.81 112.29 61.67C112.4 61.53 112.49 61.36 112.55 61.17C112.61 60.98 112.64 60.75 112.64 60.51V60.5Z" fill="#58595B"/>
<path d="M118.08 60.49C118.08 60.69 118.06 60.88 118.02 61.06C117.98 61.24 117.91 61.4 117.83 61.56C117.75 61.71 117.65 61.85 117.54 61.97C117.43 62.09 117.3 62.19 117.16 62.28C117.02 62.37 116.87 62.43 116.7 62.47C116.53 62.51 116.36 62.54 116.18 62.54H114.93L115.37 58.94H116.63C116.86 58.94 117.06 58.98 117.24 59.06C117.42 59.14 117.57 59.24 117.7 59.38C117.83 59.52 117.92 59.68 117.99 59.87C118.06 60.06 118.09 60.27 118.09 60.49H118.08ZM117.5 60.51C117.5 60.34 117.48 60.19 117.44 60.05C117.4 59.91 117.34 59.8 117.26 59.7C117.18 59.6 117.08 59.53 116.96 59.48C116.84 59.43 116.71 59.4 116.57 59.4H115.88L115.55 62.09H116.24C116.43 62.09 116.6 62.05 116.76 61.98C116.92 61.91 117.05 61.8 117.16 61.67C117.27 61.53 117.36 61.37 117.42 61.17C117.48 60.97 117.51 60.76 117.51 60.51H117.5Z" fill="#58595B"/>
<path d="M121.94 60.49C121.94 60.69 121.92 60.88 121.87 61.06C121.83 61.24 121.76 61.41 121.68 61.56C121.6 61.71 121.5 61.85 121.39 61.98C121.27 62.1 121.15 62.21 121 62.3C120.86 62.39 120.71 62.46 120.54 62.5C120.37 62.54 120.2 62.57 120.02 62.57C119.79 62.57 119.59 62.53 119.41 62.45C119.23 62.37 119.08 62.26 118.95 62.12C118.82 61.98 118.73 61.81 118.66 61.62C118.59 61.43 118.56 61.22 118.56 60.99C118.56 60.79 118.58 60.6 118.63 60.42C118.67 60.24 118.74 60.07 118.82 59.92C118.9 59.76 119 59.63 119.11 59.5C119.22 59.37 119.35 59.27 119.49 59.18C119.63 59.09 119.79 59.03 119.95 58.98C120.11 58.93 120.29 58.91 120.47 58.91C120.7 58.91 120.9 58.95 121.08 59.03C121.26 59.11 121.41 59.22 121.54 59.36C121.67 59.5 121.76 59.67 121.83 59.86C121.9 60.05 121.93 60.27 121.93 60.49H121.94ZM121.36 60.5C121.36 60.33 121.34 60.17 121.29 60.03C121.25 59.89 121.18 59.77 121.1 59.67C121.02 59.57 120.92 59.49 120.8 59.44C120.68 59.39 120.55 59.36 120.4 59.36C120.21 59.36 120.04 59.4 119.88 59.47C119.72 59.55 119.59 59.65 119.48 59.79C119.37 59.93 119.28 60.1 119.22 60.3C119.16 60.5 119.13 60.72 119.13 60.96C119.13 61.13 119.15 61.29 119.2 61.43C119.24 61.57 119.31 61.69 119.39 61.79C119.47 61.89 119.57 61.97 119.69 62.02C119.81 62.07 119.94 62.1 120.09 62.1C120.28 62.1 120.45 62.06 120.61 61.99C120.77 61.91 120.9 61.81 121.01 61.67C121.12 61.53 121.21 61.36 121.27 61.17C121.33 60.98 121.36 60.75 121.36 60.51V60.5Z" fill="#58595B"/>
<path d="M125.11 62.54H124.68C124.63 62.54 124.59 62.53 124.56 62.5C124.53 62.48 124.51 62.44 124.5 62.4L124.33 61.59H122.93L122.56 62.4C122.56 62.4 122.52 62.47 122.48 62.49C122.44 62.52 122.4 62.53 122.36 62.53H121.92L123.67 58.93H124.24L125.11 62.53V62.54ZM123.11 61.2H124.24L123.96 59.85C123.96 59.8 123.94 59.74 123.93 59.67C123.92 59.6 123.91 59.53 123.9 59.45C123.87 59.53 123.84 59.6 123.81 59.67C123.78 59.74 123.76 59.8 123.73 59.85L123.11 61.19V61.2Z" fill="#58595B"/>
<path d="M126.46 58.96C126.46 58.96 126.51 59 126.53 59.04L128 61.63C128 61.63 128 61.54 128 61.5C128 61.46 128 61.42 128.01 61.38L128.31 58.94H128.81L128.37 62.54H128.08C128.08 62.54 128 62.54 127.97 62.52C127.94 62.5 127.91 62.48 127.89 62.44L126.42 59.85C126.42 59.85 126.42 59.92 126.42 59.96C126.42 60 126.42 60.03 126.42 60.06L126.11 62.55H125.62L126.06 58.95H126.35C126.4 58.95 126.44 58.95 126.46 58.96Z" fill="#58595B"/>
<path d="M132.05 62.54H131.49L131.69 60.93H130.06L129.86 62.54H129.3L129.74 58.94H130.31L130.11 60.52H131.74L131.93 58.94H132.5L132.06 62.54H132.05Z" fill="#58595B"/>
<path d="M135.03 58.96C135.03 58.96 135.08 59 135.1 59.04L136.57 61.63C136.57 61.63 136.57 61.54 136.57 61.5C136.57 61.46 136.57 61.42 136.58 61.38L136.88 58.94H137.38L136.94 62.54H136.65C136.65 62.54 136.57 62.54 136.54 62.52C136.51 62.5 136.48 62.48 136.46 62.44L134.99 59.85C134.99 59.85 134.99 59.92 134.99 59.96C134.99 60 134.99 60.03 134.99 60.06L134.68 62.55H134.19L134.63 58.95H134.92C134.97 58.95 135.01 58.95 135.03 58.96Z" fill="#58595B"/>
<path d="M139.41 62.12C139.49 62.12 139.56 62.12 139.62 62.11C139.69 62.11 139.75 62.09 139.81 62.08C139.87 62.07 139.93 62.05 139.98 62.03C140.03 62.01 140.09 61.98 140.14 61.95L140.23 61.21H139.78C139.78 61.21 139.72 61.21 139.7 61.18C139.68 61.16 139.67 61.14 139.68 61.1L139.72 60.78H140.8L140.63 62.19C140.54 62.25 140.44 62.31 140.35 62.36C140.25 62.41 140.15 62.45 140.04 62.48C139.93 62.51 139.82 62.54 139.7 62.55C139.58 62.56 139.45 62.57 139.32 62.57C139.1 62.57 138.9 62.53 138.72 62.45C138.54 62.37 138.39 62.26 138.26 62.12C138.13 61.98 138.04 61.81 137.97 61.62C137.9 61.42 137.87 61.21 137.87 60.98C137.87 60.67 137.92 60.39 138.02 60.14C138.12 59.88 138.25 59.66 138.42 59.48C138.59 59.29 138.79 59.15 139.03 59.05C139.27 58.95 139.52 58.9 139.79 58.9C139.93 58.9 140.06 58.91 140.18 58.94C140.3 58.97 140.4 59 140.5 59.04C140.59 59.08 140.68 59.13 140.75 59.19C140.82 59.25 140.89 59.31 140.96 59.38L140.78 59.62C140.78 59.62 140.71 59.69 140.67 59.7C140.63 59.7 140.59 59.7 140.54 59.67C140.5 59.64 140.45 59.61 140.41 59.58C140.37 59.55 140.31 59.52 140.25 59.49C140.19 59.46 140.12 59.44 140.04 59.42C139.96 59.4 139.87 59.39 139.76 59.39C139.57 59.39 139.39 59.43 139.23 59.5C139.07 59.57 138.93 59.68 138.82 59.82C138.7 59.96 138.62 60.12 138.55 60.32C138.49 60.52 138.46 60.73 138.46 60.97C138.46 61.15 138.48 61.31 138.53 61.45C138.58 61.59 138.64 61.71 138.73 61.81C138.81 61.91 138.92 61.99 139.04 62.04C139.16 62.09 139.29 62.12 139.44 62.12H139.41Z" fill="#58595B"/>
<path d="M144.11 62.54H143.55L143.75 60.93H142.12L141.92 62.54H141.36L141.8 58.94H142.37L142.17 60.52H143.8L143.99 58.94H144.56L144.12 62.54H144.11Z" fill="#58595B"/>
<path d="M145.58 62.54H145.02L145.46 58.94H146.02L145.58 62.54Z" fill="#58595B"/>
<path d="M149.01 58.94L148.95 59.4H147.44L147.3 60.51H148.5L148.44 60.95H147.24L147.1 62.09H148.61L148.55 62.55H146.47L146.91 58.95H148.98L149.01 58.94ZM147.84 63.17C147.84 63.17 147.84 63.26 147.81 63.3C147.79 63.34 147.77 63.37 147.74 63.4C147.71 63.43 147.68 63.45 147.64 63.47C147.6 63.49 147.56 63.5 147.52 63.5C147.48 63.5 147.44 63.5 147.4 63.47C147.36 63.45 147.33 63.43 147.3 63.4C147.27 63.37 147.25 63.34 147.23 63.3C147.21 63.26 147.2 63.22 147.2 63.17C147.2 63.12 147.2 63.08 147.23 63.04C147.26 63 147.27 62.96 147.3 62.93C147.33 62.9 147.36 62.88 147.4 62.86C147.44 62.84 147.48 62.83 147.52 62.83C147.56 62.83 147.6 62.83 147.64 62.86C147.68 62.88 147.71 62.9 147.74 62.93C147.77 62.96 147.79 63 147.81 63.04C147.83 63.08 147.84 63.12 147.84 63.17ZM148.84 58.67H148.48C148.48 58.67 148.43 58.67 148.4 58.66C148.37 58.66 148.34 58.63 148.32 58.58L148.13 58.28C148.13 58.28 148.11 58.25 148.1 58.23L148.07 58.28L147.81 58.58C147.81 58.58 147.74 58.65 147.71 58.66C147.68 58.66 147.65 58.67 147.63 58.67H147.29L147.92 57.99H148.36L148.84 58.67Z" fill="#58595B"/>
<path d="M149.99 61.23L149.83 62.54H149.27L149.71 58.94H150.75C150.95 58.94 151.12 58.96 151.26 59.01C151.4 59.06 151.52 59.12 151.62 59.21C151.71 59.3 151.78 59.4 151.83 59.52C151.88 59.64 151.9 59.77 151.9 59.91C151.9 60.1 151.87 60.28 151.81 60.44C151.75 60.6 151.66 60.74 151.54 60.86C151.42 60.98 151.27 61.07 151.09 61.13C150.91 61.19 150.71 61.23 150.47 61.23H149.99ZM150.22 59.38L150.05 60.78H150.53C150.66 60.78 150.78 60.76 150.88 60.72C150.98 60.68 151.06 60.62 151.13 60.55C151.2 60.48 151.25 60.39 151.28 60.29C151.31 60.19 151.33 60.08 151.33 59.96C151.33 59.78 151.28 59.64 151.17 59.54C151.07 59.44 150.91 59.38 150.69 59.38H150.21H150.22Z" fill="#58595B"/>
<path d="M19.3604 53.98H10.1104L17.6504 11.93H26.9004L19.3604 53.98Z" fill="#027DC2"/>
<path d="M33.1201 42.26H23.8701L30.0302 6.56003H39.2802L33.1201 42.26Z" fill="#05A8EA"/>
<path d="M50.1204 9.93002H40.8604L42.6003 0.27002H51.8503L50.1204 9.93002Z" fill="#73CBDE"/>
<path d="M9.93018 43.99H0.680176L2.41016 34.33H11.6602L9.93018 43.99Z" fill="#73CBDE"/>
<path d="M47.0803 28.83H37.8203L40.5003 11.96H49.7503L47.0803 28.83Z" fill="#73CBDE"/>
</svg>
