<svg width="145" height="32" viewBox="0 0 145 32" fill="none" xmlns="http://www.w3.org/2000/svg">
<path d="M139.42 6.47002H128.42L127.29 10.55C127.29 10.55 133.82 10.57 136.5 10.57C139.18 10.57 138.08 13.11 138.08 13.11H129.48C125.55 13.11 124.61 17.54 124.61 19.62C124.61 24.09 127.86 23.68 127.86 23.68H137.51C141.26 23.68 141.84 20.33 141.84 20.33C141.84 20.33 143.02 16.06 144.08 11.53C145.2 6.76002 139.42 6.46002 139.42 6.46002V6.47002ZM134.33 19.85H131.54C130.38 19.85 129.89 18.89 129.89 18.38C129.89 16.84 131.54 16.87 131.54 16.87H137.09C136.37 20.16 134.33 19.85 134.33 19.85Z" fill="#67BA52"/>
<path fill-rule="evenodd" clip-rule="evenodd" d="M122.84 8.76001C121.92 7.33001 119.81 6.01001 114.92 6.01001C107.95 6.01001 105.96 8.31001 105.21 10.32C104.46 12.33 103.37 16.07 103.37 18.42C103.37 23.9 109.6 23.69 109.6 23.69H113.24C120.18 23.69 121.6 19.35 121.89 18.39C122.17 17.43 122.74 15.74 123.15 13.86C123.56 11.99 123.76 10.19 122.84 8.76001ZM117.29 14.27C116.66 17.13 115.87 19.31 112.34 19.31C108.81 19.31 108.91 16.62 109.92 13.95C110.93 11.28 112.37 10.3 114.33 10.3C116.81 10.3 117.92 11.42 117.3 14.27H117.29Z" fill="#67BA52"/>
<path d="M96.5503 8.48001H91.5403L93.2703 0.290009H87.0103L82.0903 23.63H88.3503L90.3603 14.07H95.3703L93.3503 23.63H99.6503L104.57 0.290009H98.2703L96.5503 8.48001Z" fill="#67BA52"/>
<path d="M19.6101 2.21003C19.0801 1.42003 17.8201 1.03003 15.8401 1.03003H12.0801L11.1301 5.23003H12.6501C13.6101 5.23003 13.7301 5.50003 13.5001 6.59003L9.89014 23.72H16.1101L19.7601 6.41003C20.1901 4.38003 20.1301 2.99003 19.6001 2.21003H19.6101Z" fill="#67BA52"/>
<path d="M4.01025 7.31001L0.460255 23.72H6.16026L11.4803 0.200012H6.47026L0.0102539 7.31001H4.01025Z" fill="#FB6601"/>
<path fill-rule="evenodd" clip-rule="evenodd" d="M60.2405 23.49L64.2205 8.44003C64.2205 8.44003 65.0305 5.82003 68.2905 5.82003H78.0105C78.0105 5.82003 82.5005 5.50002 82.5005 10.31C82.5005 11.34 80.6605 18.12 79.1105 23.5H73.3105L75.6105 14.39C75.6105 14.39 75.9305 13.07 75.9305 12.25C75.9305 11.43 75.7505 10.13 73.8405 10.13H71.7505C71.7505 10.13 69.7705 9.92003 69.2005 12.11C68.6305 14.3 66.2605 23.49 66.2605 23.49H60.2305H60.2405Z" fill="#67BA52"/>
<path fill-rule="evenodd" clip-rule="evenodd" d="M37.4103 5.75002C35.7303 5.75002 32.0203 5.71002 29.1503 5.71002C26.2803 5.71002 24.9903 6.52002 23.7103 7.79002C21.1803 10.31 20.2203 15.92 20.2203 17.96C20.2203 23.44 25.2603 23.47 25.2603 23.47H31.3603C30.8803 26.38 28.2503 26.27 28.2503 26.27H19.1703C18.9203 27.37 18.0703 30.43 18.0703 30.43H29.3303C34.8503 30.43 36.8503 25.51 37.1703 24.12C37.4803 22.73 38.5703 18.84 38.8803 17.38C39.1903 15.92 41.0903 9.65002 41.0903 8.63002C41.0903 6.68002 39.1003 5.76003 37.4203 5.76003L37.4103 5.75002ZM34.3803 12.5L32.4203 19.5H28.1803C25.8103 19.5 25.7603 16.95 26.5703 13.77C27.3803 10.59 29.0503 10.2 32.0203 10.2C34.9903 10.2 34.3903 12.5 34.3903 12.5H34.3803Z" fill="#67BA52"/>
<path d="M55.9804 6.47002H44.9804L43.8504 10.55C43.8504 10.55 50.3804 10.57 53.0604 10.57C54.2504 10.57 54.6904 11.07 54.8204 11.63C54.9804 12.33 54.6404 13.11 54.6404 13.11H46.0404C42.1104 13.11 41.1704 17.54 41.1704 19.62C41.1704 24.09 44.4104 23.68 44.4104 23.68H54.0604C57.8104 23.68 58.3904 20.33 58.3904 20.33C58.3904 20.33 59.5604 16.11 60.6104 11.62C60.6104 11.59 60.6304 11.56 60.6304 11.53C61.7504 6.76002 55.9704 6.46002 55.9704 6.46002L55.9804 6.47002ZM50.8804 19.85H48.1004C46.9404 19.85 46.4504 18.88 46.4504 18.38C46.4504 16.84 48.1004 16.87 48.1004 16.87H53.6504C52.9304 20.16 50.8804 19.85 50.8804 19.85Z" fill="#67BA52"/>
<path d="M44.0804 25.77L43.1904 30.23H42.6703L40.6804 26.8L40.0004 30.23H39.3604L40.2504 25.77H40.7703L42.7604 29.2L43.4404 25.77H44.0804Z" fill="#6D6E71"/>
<path d="M48.5103 27.01C48.3803 27.15 48.2103 27.24 47.9903 27.28C48.2403 27.53 48.3703 27.86 48.3703 28.27C48.3703 28.65 48.2903 28.99 48.1203 29.29C47.9503 29.59 47.7203 29.83 47.4203 30C47.1203 30.17 46.7803 30.26 46.4003 30.26C46.0803 30.26 45.8003 30.2 45.5703 30.08C45.3303 29.96 45.1503 29.79 45.0203 29.57C44.8903 29.35 44.8203 29.09 44.8203 28.81C44.8203 28.43 44.9003 28.09 45.0703 27.79C45.2403 27.49 45.4803 27.25 45.7803 27.08C46.0803 26.91 46.4203 26.82 46.8003 26.82C46.8903 26.82 47.1003 26.82 47.4203 26.84C47.5503 26.85 47.6703 26.86 47.8003 26.86C47.9403 26.86 48.0503 26.82 48.1403 26.75C48.2303 26.67 48.2703 26.57 48.2703 26.44C48.2703 26.31 48.2303 26.17 48.1403 26.04L48.5203 25.89C48.6403 26.05 48.7003 26.24 48.7003 26.46C48.7003 26.68 48.6403 26.88 48.5103 27.02V27.01ZM47.1203 29.55C47.3203 29.43 47.4803 29.26 47.5903 29.04C47.7003 28.82 47.7603 28.58 47.7603 28.3C47.7603 28 47.6703 27.76 47.5003 27.6C47.3303 27.43 47.0803 27.35 46.7503 27.35C46.5003 27.35 46.2703 27.41 46.0803 27.53C45.8803 27.65 45.7203 27.82 45.6103 28.04C45.5003 28.26 45.4403 28.5 45.4403 28.78C45.4403 29.08 45.5303 29.31 45.7003 29.48C45.8803 29.65 46.1203 29.73 46.4403 29.73C46.6903 29.73 46.9203 29.67 47.1203 29.55Z" fill="#6D6E71"/>
<path d="M49.9205 26.85H50.5305L49.8605 30.23H49.2505L49.9205 26.85ZM50.1305 26.09C50.0605 26.02 50.0205 25.93 50.0205 25.83C50.0205 25.71 50.0605 25.61 50.1405 25.53C50.2205 25.45 50.3305 25.41 50.4505 25.41C50.5605 25.41 50.6505 25.45 50.7305 25.51C50.8005 25.58 50.8405 25.66 50.8405 25.76C50.8405 25.89 50.8005 26 50.7205 26.08C50.6405 26.16 50.5305 26.2 50.4005 26.2C50.2905 26.2 50.2005 26.16 50.1305 26.09Z" fill="#6D6E71"/>
<path d="M54.4106 29.15C54.4006 29.21 54.3906 29.27 54.3906 29.33C54.3906 29.47 54.4306 29.57 54.5006 29.64C54.5706 29.71 54.6906 29.75 54.8306 29.75C55.0106 29.75 55.1706 29.7 55.3106 29.59L55.4406 30.05C55.2406 30.19 54.9806 30.26 54.6606 30.26C54.3906 30.26 54.1806 30.18 54.0106 30.03C53.8506 29.88 53.7606 29.67 53.7606 29.41C53.7606 29.32 53.7606 29.24 53.7906 29.16L54.1506 27.35H53.5806L53.6806 26.85H54.2606L54.4106 26.11H55.0206L54.8706 26.85H55.8406L55.7406 27.35H54.7706L54.4106 29.15Z" fill="#6D6E71"/>
<path d="M57.1905 26.85H57.8005L57.1305 30.23H56.5205L57.1905 26.85ZM57.4005 26.09C57.3305 26.02 57.2905 25.93 57.2905 25.83C57.2905 25.71 57.3305 25.61 57.4105 25.53C57.4905 25.45 57.6005 25.41 57.7205 25.41C57.8305 25.41 57.9205 25.45 58.0005 25.51C58.0705 25.58 58.1105 25.66 58.1105 25.76C58.1105 25.89 58.0705 26 57.9905 26.08C57.9105 26.16 57.8005 26.2 57.6705 26.2C57.5605 26.2 57.4705 26.16 57.4005 26.09Z" fill="#6D6E71"/>
<path d="M61.9702 27.12C62.1802 27.32 62.2902 27.59 62.2902 27.95C62.2902 28.07 62.2802 28.2 62.2502 28.35L61.8702 30.24H61.2602L61.6402 28.35C61.6602 28.24 61.6702 28.14 61.6702 28.07C61.6702 27.85 61.6002 27.68 61.4702 27.56C61.3402 27.44 61.1401 27.38 60.8801 27.38C60.5501 27.38 60.2802 27.47 60.0602 27.65C59.8502 27.83 59.7001 28.1 59.6301 28.46L59.2701 30.24H58.6602L59.3302 26.86H59.9202L59.8401 27.29C60.1501 26.98 60.5502 26.83 61.0602 26.83C61.4502 26.83 61.7502 26.93 61.9602 27.12H61.9702Z" fill="#6D6E71"/>
<path d="M66.6904 27.12C66.9004 27.32 67.0104 27.59 67.0104 27.95C67.0104 28.07 67.0004 28.2 66.9704 28.35L66.5904 30.24H65.9804L66.3604 28.35C66.3804 28.24 66.3904 28.14 66.3904 28.07C66.3904 27.85 66.3204 27.68 66.1904 27.56C66.0604 27.44 65.8604 27.38 65.6004 27.38C65.2704 27.38 65.0004 27.47 64.7804 27.65C64.5704 27.83 64.4204 28.1 64.3504 28.46L63.9904 30.24H63.3804L64.3204 25.52H64.9304L64.5804 27.26C64.8804 26.98 65.2804 26.83 65.7704 26.83C66.1604 26.83 66.4604 26.93 66.6704 27.12H66.6904Z" fill="#6D6E71"/>
<path d="M73.5102 27.12C73.7202 27.32 73.8302 27.59 73.8302 27.95C73.8302 28.07 73.8202 28.2 73.7902 28.35L73.4102 30.24H72.8002L73.1802 28.35C73.2002 28.24 73.2102 28.14 73.2102 28.07C73.2102 27.85 73.1402 27.68 73.0102 27.56C72.8802 27.44 72.6802 27.38 72.4202 27.38C72.0902 27.38 71.8202 27.47 71.6002 27.65C71.3902 27.83 71.2402 28.1 71.1702 28.46L70.8102 30.24H70.2002L71.1402 25.52H71.7502L71.4002 27.26C71.7002 26.98 72.1002 26.83 72.5902 26.83C72.9802 26.83 73.2802 26.93 73.4902 27.12H73.5102Z" fill="#6D6E71"/>
<path d="M75.6904 30.09C75.4504 29.97 75.2704 29.8 75.1404 29.58C75.0104 29.36 74.9404 29.1 74.9404 28.82C74.9404 28.44 75.0204 28.1 75.1904 27.8C75.3604 27.5 75.6004 27.26 75.9004 27.09C76.2004 26.92 76.5404 26.83 76.9204 26.83C77.2404 26.83 77.5204 26.89 77.7504 27.01C77.9904 27.13 78.1704 27.3 78.3004 27.52C78.4304 27.74 78.4904 27.99 78.4904 28.29C78.4904 28.67 78.4104 29.01 78.2404 29.31C78.0704 29.61 77.8404 29.85 77.5404 30.02C77.2404 30.19 76.9004 30.28 76.5204 30.28C76.2004 30.28 75.9204 30.22 75.6904 30.1V30.09ZM77.2404 29.55C77.4404 29.43 77.6004 29.26 77.7104 29.04C77.8204 28.82 77.8804 28.58 77.8804 28.3C77.8804 28 77.7904 27.76 77.6204 27.6C77.4504 27.43 77.2004 27.35 76.8704 27.35C76.6204 27.35 76.3904 27.41 76.2004 27.53C76.0004 27.65 75.8404 27.82 75.7304 28.04C75.6204 28.26 75.5604 28.5 75.5604 28.78C75.5604 29.08 75.6504 29.31 75.8204 29.48C76.0004 29.65 76.2404 29.73 76.5604 29.73C76.8104 29.73 77.0404 29.67 77.2404 29.55Z" fill="#6D6E71"/>
<path d="M83.2204 26.85L82.5504 30.23H81.9604L82.0403 29.82C81.8903 29.96 81.7103 30.08 81.5103 30.15C81.3103 30.22 81.0904 30.27 80.8504 30.27C80.5604 30.27 80.3004 30.21 80.0804 30.1C79.8604 29.99 79.6804 29.81 79.5504 29.59C79.4204 29.37 79.3604 29.11 79.3604 28.81C79.3604 28.43 79.4404 28.09 79.6104 27.78C79.7804 27.48 80.0003 27.24 80.2903 27.07C80.5803 26.9 80.9104 26.82 81.2704 26.82C81.5604 26.82 81.8103 26.87 82.0103 26.97C82.2203 27.07 82.3703 27.22 82.4803 27.42L82.5903 26.85H83.2003H83.2204ZM81.6703 29.55C81.8703 29.43 82.0304 29.26 82.1404 29.04C82.2504 28.82 82.3103 28.58 82.3103 28.3C82.3103 28 82.2204 27.76 82.0504 27.6C81.8804 27.43 81.6304 27.35 81.3004 27.35C81.0504 27.35 80.8204 27.41 80.6304 27.53C80.4304 27.65 80.2704 27.82 80.1604 28.04C80.0504 28.26 79.9904 28.5 79.9904 28.78C79.9904 29.08 80.0804 29.31 80.2504 29.48C80.4304 29.65 80.6704 29.73 80.9904 29.73C81.2404 29.73 81.4703 29.67 81.6703 29.55Z" fill="#6D6E71"/>
<path d="M88.3004 28.28L89.5004 30.23H88.7904L87.8204 28.64L86.9904 29.28L86.8004 30.23H86.1904L87.1304 25.51H87.7404L87.1404 28.52L89.2304 26.86H90.0904L88.2904 28.28H88.3004Z" fill="#6D6E71"/>
<path d="M91.0601 26.85H91.6701L91.0001 30.23H90.3901L91.0601 26.85ZM91.2701 26.09C91.2001 26.02 91.1601 25.93 91.1601 25.83C91.1601 25.71 91.2001 25.61 91.2801 25.53C91.3601 25.45 91.4701 25.41 91.5901 25.41C91.7001 25.41 91.7901 25.45 91.8701 25.51C91.9401 25.58 91.9801 25.66 91.9801 25.76C91.9801 25.89 91.9401 26 91.8601 26.08C91.7801 26.16 91.6701 26.2 91.5401 26.2C91.4301 26.2 91.3401 26.16 91.2701 26.09Z" fill="#6D6E71"/>
<path d="M93.1403 28.73V28.77C93.1403 29.08 93.2303 29.32 93.4103 29.49C93.5903 29.66 93.8603 29.74 94.2103 29.74C94.4203 29.74 94.6103 29.7 94.8003 29.64C94.9803 29.57 95.1403 29.48 95.2603 29.36L95.5203 29.8C95.3503 29.95 95.1503 30.07 94.9203 30.16C94.6803 30.24 94.4303 30.29 94.1703 30.29C93.8403 30.29 93.5503 30.23 93.3103 30.11C93.0703 29.99 92.8803 29.82 92.7503 29.6C92.6203 29.38 92.5503 29.12 92.5503 28.82C92.5503 28.44 92.6303 28.1 92.8003 27.8C92.9603 27.5 93.1903 27.26 93.4803 27.09C93.7703 26.92 94.1003 26.84 94.4603 26.84C94.9203 26.84 95.2803 26.97 95.5603 27.23C95.8303 27.49 95.9703 27.85 95.9703 28.3C95.9703 28.44 95.9603 28.59 95.9303 28.75H93.1603L93.1403 28.73ZM93.6403 27.58C93.4203 27.75 93.2803 27.98 93.2003 28.28H95.3803C95.4003 27.98 95.3203 27.74 95.1403 27.58C94.9603 27.41 94.7203 27.33 94.4203 27.33C94.1203 27.33 93.8603 27.41 93.6403 27.58ZM95.2303 26.36L94.7003 26L94.0803 26.36H93.5103L94.4503 25.72H95.0203L95.7803 26.36H95.2303ZM96.0803 25.08H96.8003L95.7703 25.8H95.2503L96.0803 25.08Z" fill="#6D6E71"/>
<path d="M100.11 27.12C100.32 27.32 100.43 27.59 100.43 27.95C100.43 28.07 100.42 28.2 100.39 28.35L100.01 30.24H99.4003L99.7803 28.35C99.8003 28.24 99.8103 28.14 99.8103 28.07C99.8103 27.85 99.7403 27.68 99.6103 27.56C99.4803 27.44 99.2803 27.38 99.0203 27.38C98.6903 27.38 98.4203 27.47 98.2003 27.65C97.9903 27.83 97.8403 28.1 97.7703 28.46L97.4103 30.24H96.8003L97.4703 26.86H98.0603L97.9803 27.29C98.2903 26.98 98.6903 26.83 99.2003 26.83C99.5903 26.83 99.8903 26.93 100.1 27.12H100.11Z" fill="#6D6E71"/>
<path d="M104.54 29.15C104.53 29.21 104.52 29.27 104.52 29.33C104.52 29.47 104.56 29.57 104.63 29.64C104.7 29.71 104.82 29.75 104.96 29.75C105.14 29.75 105.3 29.7 105.44 29.59L105.57 30.05C105.37 30.19 105.11 30.26 104.79 30.26C104.52 30.26 104.31 30.18 104.14 30.03C103.98 29.88 103.89 29.67 103.89 29.41C103.89 29.32 103.89 29.24 103.92 29.16L104.28 27.35H103.71L103.81 26.85H104.39L104.54 26.11H105.15L105 26.85H105.97L105.87 27.35H104.9L104.54 29.15Z" fill="#6D6E71"/>
<path d="M108.36 26.95C108.58 26.87 108.84 26.82 109.15 26.82L109.04 27.41C109.04 27.41 108.95 27.41 108.88 27.41C108.18 27.41 107.76 27.79 107.61 28.54L107.27 30.23H106.66L107.33 26.85H107.92L107.82 27.35C107.97 27.16 108.15 27.03 108.37 26.94L108.36 26.95Z" fill="#6D6E71"/>
<path d="M113.46 26.85L112.79 30.23H112.2L112.28 29.8C112.13 29.96 111.95 30.07 111.74 30.15C111.53 30.23 111.31 30.27 111.07 30.27C110.7 30.27 110.4 30.17 110.18 29.97C109.96 29.77 109.86 29.49 109.86 29.14C109.86 29.02 109.87 28.89 109.9 28.75L110.28 26.86H110.89L110.51 28.76C110.49 28.87 110.48 28.97 110.48 29.05C110.48 29.27 110.54 29.44 110.67 29.56C110.8 29.68 110.99 29.74 111.25 29.74C111.57 29.74 111.84 29.65 112.06 29.47C112.28 29.29 112.42 29.02 112.49 28.67L112.85 26.88H113.46V26.85ZM112.44 25.53H113.24L112.08 26.36H111.48L112.44 25.53Z" fill="#6D6E71"/>
<path d="M115.091 30.09C114.851 29.97 114.661 29.8 114.531 29.58C114.401 29.36 114.331 29.11 114.331 28.81C114.331 28.43 114.411 28.09 114.581 27.79C114.751 27.49 114.991 27.25 115.291 27.08C115.591 26.91 115.931 26.82 116.311 26.82C116.981 26.82 117.441 27.06 117.701 27.55L117.181 27.84C117.001 27.52 116.701 27.36 116.261 27.36C116.011 27.36 115.781 27.42 115.581 27.54C115.381 27.66 115.221 27.83 115.111 28.05C115.001 28.27 114.941 28.51 114.941 28.79C114.941 29.09 115.031 29.32 115.201 29.49C115.381 29.66 115.631 29.74 115.951 29.74C116.151 29.74 116.341 29.7 116.521 29.62C116.701 29.54 116.841 29.42 116.961 29.26L117.411 29.58C117.251 29.8 117.041 29.97 116.781 30.09C116.521 30.21 116.231 30.27 115.931 30.27C115.611 30.27 115.331 30.21 115.081 30.09H115.091Z" fill="#6D6E71"/>
<path d="M123.74 27.12C123.95 27.32 124.06 27.59 124.06 27.95C124.06 28.07 124.05 28.2 124.02 28.35L123.64 30.24H123.03L123.41 28.35C123.43 28.24 123.44 28.14 123.44 28.07C123.44 27.85 123.37 27.68 123.24 27.56C123.11 27.44 122.91 27.38 122.65 27.38C122.32 27.38 122.05 27.47 121.83 27.65C121.62 27.83 121.47 28.1 121.4 28.46L121.04 30.24H120.43L121.37 25.52H121.98L121.63 27.26C121.93 26.98 122.33 26.83 122.82 26.83C123.21 26.83 123.51 26.93 123.72 27.12H123.74Z" fill="#6D6E71"/>
<path d="M125.93 30.09C125.69 29.97 125.51 29.8 125.38 29.58C125.25 29.36 125.18 29.1 125.18 28.82C125.18 28.44 125.26 28.1 125.43 27.8C125.6 27.5 125.84 27.26 126.14 27.09C126.44 26.92 126.78 26.83 127.16 26.83C127.48 26.83 127.76 26.89 127.99 27.01C128.23 27.13 128.41 27.3 128.54 27.52C128.67 27.74 128.73 27.99 128.73 28.29C128.73 28.67 128.65 29.01 128.48 29.31C128.31 29.61 128.08 29.85 127.78 30.02C127.48 30.19 127.14 30.28 126.76 30.28C126.44 30.28 126.16 30.22 125.93 30.1V30.09ZM127.48 29.55C127.68 29.43 127.84 29.26 127.95 29.04C128.06 28.82 128.12 28.58 128.12 28.3C128.12 28 128.03 27.76 127.86 27.6C127.69 27.43 127.44 27.35 127.11 27.35C126.86 27.35 126.63 27.41 126.44 27.53C126.24 27.65 126.08 27.82 125.97 28.04C125.86 28.26 125.8 28.5 125.8 28.78C125.8 29.08 125.89 29.31 126.06 29.48C126.24 29.65 126.48 29.73 126.8 29.73C127.05 29.73 127.28 29.67 127.48 29.55ZM126.17 31.4C126.12 31.35 126.09 31.28 126.1 31.19C126.1 31.09 126.14 31.01 126.21 30.94C126.28 30.87 126.37 30.84 126.46 30.84C126.54 30.84 126.61 30.87 126.67 30.92C126.73 30.97 126.75 31.04 126.75 31.13C126.75 31.24 126.72 31.32 126.65 31.39C126.58 31.46 126.49 31.49 126.39 31.49C126.3 31.49 126.23 31.46 126.18 31.41L126.17 31.4ZM127.98 26.37L127.45 25.89L126.81 26.37H126.24L127.19 25.54H127.77L128.52 26.37H127.98Z" fill="#6D6E71"/>
<path d="M130.28 26.85H130.89L130.22 30.23H129.61L130.28 26.85ZM130.49 26.09C130.42 26.02 130.38 25.93 130.38 25.83C130.38 25.71 130.42 25.61 130.5 25.53C130.58 25.45 130.69 25.41 130.81 25.41C130.92 25.41 131.01 25.45 131.09 25.51C131.16 25.58 131.2 25.66 131.2 25.76C131.2 25.89 131.16 26 131.08 26.08C131 26.16 130.89 26.2 130.76 26.2C130.65 26.2 130.56 26.16 130.49 26.09Z" fill="#6D6E71"/>
<path d="M134.77 29.15C134.76 29.21 134.75 29.27 134.75 29.33C134.75 29.47 134.79 29.57 134.86 29.64C134.93 29.71 135.05 29.75 135.19 29.75C135.37 29.75 135.53 29.7 135.67 29.59L135.8 30.05C135.6 30.19 135.34 30.26 135.02 30.26C134.75 30.26 134.54 30.18 134.37 30.03C134.21 29.88 134.12 29.67 134.12 29.41C134.12 29.32 134.12 29.24 134.15 29.16L134.51 27.35H133.94L134.04 26.85H134.62L134.77 26.11H135.38L135.23 26.85H136.2L136.1 27.35H135.13L134.77 29.15Z" fill="#6D6E71"/>
<path d="M140.701 26.85L140.031 30.23H139.441L139.521 29.8C139.371 29.96 139.191 30.07 138.981 30.15C138.771 30.23 138.551 30.27 138.311 30.27C137.941 30.27 137.641 30.17 137.421 29.97C137.201 29.77 137.101 29.49 137.101 29.14C137.101 29.02 137.111 28.89 137.141 28.75L137.521 26.86H138.131L137.751 28.76C137.731 28.87 137.721 28.97 137.721 29.05C137.721 29.27 137.781 29.44 137.911 29.56C138.041 29.68 138.231 29.74 138.491 29.74C138.811 29.74 139.081 29.65 139.301 29.47C139.521 29.29 139.661 29.02 139.731 28.67L140.091 26.88H140.701V26.85ZM138.001 31.39C137.951 31.34 137.921 31.27 137.931 31.18C137.931 31.08 137.971 31 138.041 30.93C138.111 30.86 138.201 30.83 138.291 30.83C138.371 30.83 138.441 30.86 138.501 30.91C138.561 30.96 138.581 31.03 138.581 31.12C138.581 31.23 138.551 31.31 138.481 31.38C138.411 31.45 138.321 31.48 138.221 31.48C138.131 31.48 138.061 31.45 138.011 31.4L138.001 31.39Z" fill="#6D6E71"/>
<path d="M46.8701 5.33002L51.6401 1.65002H55.3501L58.6901 5.33002H55.0601L53.3201 3.30003L50.7501 5.33002H46.8701Z" fill="#67BA52"/>
</svg>
