<svg width="125" height="59" viewBox="0 0 125 59" fill="none" xmlns="http://www.w3.org/2000/svg">
<path d="M14.1404 49.98H15.2804V56.99H19.6104V57.98H14.1304V49.98H14.1404Z" fill="#010000"/>
<path d="M20.5703 50.05C20.5703 49.65 20.8903 49.33 21.3103 49.33C21.7303 49.33 22.0503 49.64 22.0503 50.03C22.0503 50.44 21.7403 50.76 21.3103 50.76C20.8803 50.76 20.5703 50.45 20.5703 50.05ZM20.7603 51.92H21.8603V57.98H20.7603V51.92Z" fill="#010000"/>
<path d="M29.4004 55.32H24.4804C24.6204 56.38 25.4704 57.09 26.6704 57.09C27.3804 57.09 27.9704 56.85 28.4204 56.36L29.0304 57.07C28.4804 57.71 27.6504 58.05 26.6404 58.05C24.6904 58.05 23.3804 56.76 23.3804 54.95C23.3804 53.14 24.6704 51.86 26.4204 51.86C28.1704 51.86 29.4204 53.12 29.4204 54.98C29.4204 55.07 29.4104 55.21 29.4004 55.31V55.32ZM25.3604 51.04H24.3704L25.8904 49.55H26.9404L28.4604 51.04H27.4704L26.4204 50.16L25.3704 51.04H25.3604ZM24.4804 54.53H28.3704C28.2604 53.51 27.4904 52.79 26.4304 52.79C25.3704 52.79 24.6004 53.5 24.4904 54.53H24.4804Z" fill="#010000"/>
<path d="M36.7002 54.5V57.99H35.6002V54.63C35.6002 53.44 35.0102 52.86 33.9702 52.86C32.8002 52.86 32.0502 53.56 32.0502 54.87V57.99H30.9502V51.93H32.0002V52.84C32.4502 52.22 33.2202 51.87 34.1802 51.87C35.6502 51.87 36.7002 52.72 36.7002 54.5Z" fill="#010000"/>
<path d="M44.1603 55.16L42.9003 56.33V57.99H41.8003V49.51H42.9003V54.95L46.2003 51.93H47.5303L44.9803 54.43L47.7803 57.99H46.4303L44.1603 55.17V55.16Z" fill="#010000"/>
<path d="M54.0703 54.99C54.0703 55.08 54.0603 55.22 54.0503 55.32H49.1303C49.2703 56.38 50.1203 57.09 51.3203 57.09C52.0303 57.09 52.6203 56.85 53.0703 56.36L53.6803 57.07C53.1303 57.71 52.3003 58.05 51.2903 58.05C49.3403 58.05 48.0303 56.76 48.0303 54.95C48.0303 53.14 49.3203 51.86 51.0703 51.86C52.8203 51.86 54.0603 53.12 54.0603 54.98L54.0703 54.99ZM50.0203 51.05H49.0103L50.5403 49.91H51.5703L53.1003 51.05H52.0903L51.0503 50.41L50.0103 51.05H50.0203ZM49.1303 54.54H53.0203C52.9103 53.52 52.1403 52.8 51.0803 52.8C50.0203 52.8 49.2503 53.51 49.1403 54.54H49.1303ZM53.1003 50.05H52.2003L53.5503 48.76H54.8003L53.1103 50.05H53.1003Z" fill="#010000"/>
<path d="M58.9904 57.63C58.6604 57.92 58.1605 58.05 57.6605 58.05C56.4405 58.05 55.7404 57.38 55.7404 56.15V52.82H54.7104V51.92H55.7404V50.59H56.8405V51.92H58.5804V52.82H56.8405V56.1C56.8405 56.75 57.1805 57.12 57.7905 57.12C58.1105 57.12 58.4205 57.02 58.6505 56.83L58.9904 57.62V57.63Z" fill="#010000"/>
<path d="M68.7506 51.93L66.1006 57.99H64.9806L62.3306 51.93H63.4706L65.5506 56.79L67.6806 51.93H68.7506Z" fill="#010000"/>
<path d="M69.7004 50.25C69.4504 50.25 69.3104 50.51 69.3104 50.96H68.6904C68.6904 50.07 69.0404 49.57 69.6404 49.57C70.3104 49.57 70.5904 50.34 70.9504 50.34C71.2004 50.34 71.3404 50.08 71.3404 49.67H71.9604C71.9604 50.53 71.6104 51.03 71.0104 51.03C70.3404 51.03 70.0604 50.26 69.7004 50.26V50.25ZM69.7804 51.93H70.8804V57.99H69.7804V51.93Z" fill="#010000"/>
<path d="M78.7202 54.5V57.99H77.6202V54.63C77.6202 53.44 77.0302 52.86 75.9902 52.86C74.8202 52.86 74.0702 53.56 74.0702 54.87V57.99H72.9702V51.93H74.0202V52.84C74.4702 52.22 75.2402 51.87 76.2002 51.87C77.6702 51.87 78.7202 52.72 78.7202 54.5Z" fill="#010000"/>
<path d="M86.5005 54.5V57.99H85.4005V54.63C85.4005 53.44 84.8105 52.86 83.7705 52.86C82.6005 52.86 81.8505 53.56 81.8505 54.87V57.99H80.7505V49.51H81.8505V52.79C82.3105 52.21 83.0605 51.88 83.9905 51.88C85.4605 51.88 86.5105 52.73 86.5105 54.51L86.5005 54.5Z" fill="#010000"/>
<path d="M91.0503 54.96C91.0503 53.15 92.3903 51.87 94.2503 51.87C95.3403 51.87 96.2403 52.32 96.7203 53.16L95.8903 53.7C95.5003 53.11 94.9103 52.83 94.2403 52.83C93.0503 52.83 92.1603 53.66 92.1603 54.96C92.1603 56.26 93.0503 57.1 94.2403 57.1C94.9003 57.1 95.5003 56.83 95.8903 56.23L96.7203 56.76C96.2403 57.61 95.3403 58.06 94.2503 58.06C92.3903 58.06 91.0503 56.77 91.0503 54.96Z" fill="#010000"/>
<path d="M103.78 52.68V57.98H102.74V57.07C102.29 57.7 101.54 58.05 100.68 58.05C99.1103 58.05 98.0703 57.19 98.0703 55.41V51.92H99.1703V55.28C99.1703 56.47 99.7603 57.06 100.8 57.06C101.94 57.06 102.67 56.35 102.67 55.05V51.92H103.23C103.73 51.92 103.96 51.6 103.96 51.18C103.96 50.89 103.87 50.64 103.73 50.46L104.43 50.2C104.62 50.46 104.75 50.82 104.75 51.22C104.75 51.95 104.4 52.5 103.77 52.68H103.78ZM100.13 49.62L99.8803 49.11C100.17 48.89 100.55 48.79 100.92 48.79C101.61 48.79 102.09 49.2 102.09 49.85C102.09 50.42 101.79 50.86 101.15 51.15L100.77 50.7C101.22 50.49 101.41 50.25 101.41 49.93C101.41 49.61 101.17 49.39 100.82 49.39C100.58 49.39 100.36 49.46 100.13 49.61V49.62Z" fill="#010000"/>
<path d="M111.47 51.93V57.99H110.43V57.08C109.98 57.71 109.23 58.06 108.37 58.06C106.8 58.06 105.76 57.2 105.76 55.42V51.93H106.86V55.29C106.86 56.48 107.45 57.07 108.49 57.07C109.63 57.07 110.36 56.36 110.36 55.06V51.93H111.46H111.47Z" fill="#010000"/>
<path d="M20.1202 10.96C8.80018 10.96 0.700195 18.53 0.700195 29.41C0.700195 37.51 6.73017 43.19 16.3302 43.19C27.6502 43.19 35.7502 35.62 35.7502 24.74C35.7502 16.64 29.7202 10.96 20.1202 10.96ZM17.2102 34.78C13.4202 34.78 11.1802 32.36 11.1802 28.79C11.1802 23.73 14.1302 19.37 19.2402 19.37C23.0302 19.37 25.2702 21.79 25.2702 25.36C25.2702 30.42 22.3202 34.78 17.2102 34.78ZM60.5402 11.66L57.6802 26.01L48.8302 11.66H40.2902L34.1302 42.48H44.2602L47.1202 28.13L55.9702 42.48H64.5102L70.6702 11.66H60.5402ZM87.4602 19.5C88.2102 17.11 89.7702 15.02 92.1102 13.26C92.9302 12.65 93.7802 12.12 94.6802 11.67H72.1602L66.0002 42.49H81.6102L82.2402 41.38C82.3002 41.27 82.3602 41.17 82.4202 41.07L83.7402 38.89C84.5902 37.48 85.4402 36.06 86.2902 34.65H77.7602L78.5502 30.6H91.6302L91.6802 30.34C91.3302 30.14 90.9902 29.93 90.6602 29.69C88.3602 28.02 87.1002 25.74 86.9702 23.11H80.0902L80.7902 19.5H87.4502H87.4602Z" fill="#D40010"/>
<path d="M119.99 10.46C122.7 10.46 124.9 8.26002 124.9 5.55002C124.9 2.84002 122.7 0.640015 119.99 0.640015C117.28 0.640015 115.08 2.84002 115.08 5.55002C115.08 8.26002 117.28 10.46 119.99 10.46ZM104.55 11.6C103.39 11.6 102.22 11.65 101.05 11.81C98.3104 12.16 95.6804 13.06 93.3104 14.85C91.1804 16.46 89.6604 18.46 89.1304 20.96C88.4704 24.1 89.5304 26.43 91.8304 28.1C93.6604 29.43 95.8704 29.97 98.2604 30.05C100.24 30.12 102.23 30.07 104.22 30.09C105.03 30.09 105.8 30.19 106.45 30.6C106.95 30.91 107.29 31.34 107.32 31.98C107.35 32.84 106.74 33.66 105.74 34.13C104.99 34.48 104.23 34.58 103.46 34.58C98.6604 34.58 93.8704 34.59 89.0704 34.58C88.7304 34.58 88.5604 34.69 88.3804 34.99C86.9704 37.36 85.5404 39.72 84.1104 42.08C84.0304 42.21 83.9604 42.34 83.8604 42.51C84.0504 42.51 84.1804 42.53 84.3104 42.53C89.5704 42.53 94.8204 42.51 100.08 42.53C102.13 42.53 104.18 42.5 106.27 41.98C109.14 41.27 111.79 40.02 113.95 37.73C116.16 35.38 117.21 32.76 116.64 29.91C116.14 27.42 114.45 25.92 112.21 24.97C110.2 24.12 107.99 23.91 105.7 23.92C104.11 23.92 102.51 23.96 100.94 23.89C100.31 23.86 99.6904 23.66 99.1504 23.4C98.5204 23.1 98.1604 22.53 98.3204 21.72C98.4804 20.91 99.0604 20.43 99.7804 20.08C100.53 19.72 101.29 19.62 102.06 19.62C105.84 19.62 109.63 19.62 113.42 19.62C113.57 19.62 113.71 19.62 113.93 19.62C113.71 20.95 113.55 22.23 113.27 23.5C113.09 24.32 113.25 24.75 113.94 25.16C117.95 27.59 118.57 32.47 115.48 36.77C114.23 38.52 112.61 39.84 110.75 40.88C110.6 40.96 110.4 41.11 110.37 41.24C110.26 41.65 110.22 42.06 110.15 42.47H119.71C121.42 32.16 123.12 21.9 124.83 11.57H124.1C117.58 11.57 111.07 11.57 104.55 11.58V11.6Z" fill="#009544"/>
</svg>
