<svg width="144" height="32" viewBox="0 0 144 32" fill="none" xmlns="http://www.w3.org/2000/svg">
<path d="M10.7 8.95001L9.75 13.12H12.96L13.83 8.95001H10.7Z" fill="#FB6601"/>
<path d="M43.5499 0.0500183H34.4299L22.9199 22.54H29.15L31.0599 18.67H39.14L39.4999 22.54H45.6199L43.5499 0.0500183ZM33.3099 14.29L38.1299 4.55002H38.1899L38.8799 14.29H33.3099Z" fill="#2E318F"/>
<path d="M57.8801 0.0500183L53.1101 22.54H47.1001L51.8701 0.0500183H57.8801Z" fill="#2E318F"/>
<path d="M61.8303 22.53H55.8203L60.5903 0.0400085H71.8903C73.9103 0.0400085 75.4103 0.360008 76.3903 1.00001C77.6103 1.78001 78.2203 3.12 78.2203 5.02C78.2203 5.98 78.0903 7.07001 77.8303 8.29001C77.1503 11.45 76.2103 13.62 75.0103 14.8C73.6503 16.12 71.4303 16.78 68.3503 16.78H63.0403L61.8203 22.54L61.8303 22.53ZM64.1603 11.56H68.2703C69.5103 11.56 70.3403 11.33 70.7603 10.87C71.0803 10.51 71.3803 9.65001 71.6603 8.29001C71.8003 7.61001 71.8703 7.09001 71.8703 6.73001C71.8703 6.11001 71.6303 5.69001 71.1503 5.47001C70.8303 5.33001 70.3103 5.26001 69.5903 5.26001H65.4903L64.1603 11.56Z" fill="#2E318F"/>
<path d="M101.91 0.0500183L97.1401 22.54H91.1301L93.0001 13.72H85.1901L83.3201 22.54H77.3101L82.0801 0.0500183H88.0901L86.3 8.51002H94.0701L95.8901 0.0500183H101.9H101.91Z" fill="#2E318F"/>
<path d="M119.3 0.0500183H110.18L98.6699 22.54H104.9L106.81 18.67H114.89L115.25 22.54H121.37L119.3 0.0500183ZM109.06 14.29L113.88 4.55002H113.94L114.63 14.29H109.06Z" fill="#2E318F"/>
<path d="M136.47 5.26001L132.81 22.53H126.8L130.46 5.26001H124.7L125.81 0.0400085H143.62L142.51 5.26001H136.46H136.47Z" fill="#2E318F"/>
<path d="M12.7101 0.0400085L11.5302 5.26001L10.7001 8.95L9.75012 13.12L8.80011 17.32L7.62012 22.53H1.6001L3.63013 13.12H3.61011L4.97009 6.82001H1.14014L6.09015 1.38L7.30011 0.0400085H12.7101Z" fill="#FB6601"/>
<path d="M23.0703 1.06001C21.8703 0.380005 20.1003 0.0400085 17.7603 0.0400085H13.3403L12.1602 5.26001H16.5103C18.1803 5.26001 19.0203 5.90001 19.0203 7.18001C19.0203 7.60001 18.9502 8.13 18.8102 8.77L17.7902 13.48C17.2302 16.04 15.9503 17.32 13.9503 17.32H9.42023L8.24023 22.54H13.8002C16.8602 22.54 19.1902 21.77 20.7902 20.23C22.2302 18.83 23.2902 16.58 23.9702 13.49L24.9902 8.78001C25.2502 7.58001 25.3802 6.54001 25.3802 5.66001C25.3802 3.48001 24.6103 1.95001 23.0703 1.07001V1.06001Z" fill="#2E318F"/>
<path d="M3.63031 13.12L1.60028 22.53H1.57031L3.61029 13.12H3.63031Z" fill="#FB6601"/>
<path d="M12.7198 0.0100098L12.7098 0.0400085H7.2998L7.32983 0.0100098H12.7198Z" fill="#FB6601"/>
<path d="M3.05005 30.17L1.44006 26.68H1.43005L0.690063 30.17H0.290039L1.13007 26.2H1.67004L3.18005 29.49H3.19006L3.89008 26.2H4.29004L3.45007 30.17H3.05005Z" fill="#58595B"/>
<path d="M4.58008 30.17L5.42004 26.2H5.82007L4.98004 30.17H4.58008Z" fill="#58595B"/>
<path d="M6.08032 30.17L6.92029 26.2H9.09033L9.01031 26.56H7.2403L6.94031 27.98H8.65033L8.57031 28.34H6.86029L6.55029 29.8H8.32031L8.2403 30.16H6.07031L6.08032 30.17ZM8.53033 25.87L8.15033 25.48L7.59033 25.87H7.10028L8.02032 25.2H8.3703L9.00031 25.87H8.52032H8.53033ZM8.78033 25.32L7.84033 24.75L8.08032 24.43L9.02032 25.02L8.78033 25.33V25.32Z" fill="#58595B"/>
<path d="M13.0098 30.17L13.7598 26.64H13.7498L11.5198 30.17H11.1798L10.4598 26.64H10.4498L9.69983 30.17H9.2998L10.1398 26.2H10.7498L11.4698 29.58L13.6298 26.2H14.2398L13.3998 30.17H12.9998H13.0098Z" fill="#58595B"/>
<path d="M18.0502 26.57L17.2803 30.17H16.8802L17.6503 26.57H16.7402L16.8203 26.21H19.0303L18.9503 26.57H18.0402H18.0502Z" fill="#58595B"/>
<path d="M18.9502 30.17L19.7902 26.2H20.1902L19.3502 30.17H18.9502Z" fill="#58595B"/>
<path d="M23.24 30.17L21.63 26.68H21.62L20.88 30.17H20.48L21.32 26.2H21.86L23.37 29.49H23.38L24.08 26.2H24.48L23.64 30.17H23.24Z" fill="#58595B"/>
<path d="M26.6099 28.84L26.6899 28.48H28.1499L28.0699 28.84H26.6099Z" fill="#58595B"/>
<path d="M34.42 29.13C33.86 29.87 33.17 30.24 32.36 30.24C31.79 30.24 31.34 30.04 31.02 29.65C30.7 29.25 30.6 28.77 30.72 28.2C30.84 27.62 31.15 27.14 31.63 26.74C32.11 26.35 32.64 26.15 33.22 26.15C33.85 26.15 34.32 26.39 34.64 26.86C34.73 26.99 34.78 27.11 34.81 27.24H34.37C34.15 26.76 33.74 26.52 33.15 26.52C32.7 26.52 32.27 26.69 31.87 27.03C31.47 27.37 31.23 27.76 31.13 28.22C31.04 28.67 31.12 29.06 31.38 29.39C31.64 29.73 32 29.9 32.44 29.9C32.72 29.9 32.99 29.83 33.27 29.7C33.52 29.57 33.76 29.39 33.99 29.16H34.43L34.42 29.13Z" fill="#58595B"/>
<path d="M37.5999 30.17L37.9999 28.31H35.9499L35.5499 30.17H35.1499L35.9899 26.2H36.3899L36.0199 27.95H38.0699L38.4399 26.2H38.8399L37.9999 30.17H37.5999Z" fill="#58595B"/>
<path d="M42.1901 30.17L41.9001 28.84H40.0601L39.2001 30.17H38.79L41.3201 26.2H41.7601L42.6201 30.17H42.1901ZM41.4401 26.66L40.2801 28.48H41.8201L41.4401 26.66ZM42.0801 25.88L41.7001 25.49L41.1501 25.88H40.66L41.5801 25.21H41.9301L42.55 25.88H42.0701H42.0801ZM42.3401 25.46L42.23 25.15L43.42 24.56L43.5201 24.88L42.3401 25.45V25.46Z" fill="#58595B"/>
<path d="M45.1098 26.57L44.3398 30.17H43.9398L44.7098 26.57H43.7998L43.8798 26.21H46.0898L46.0098 26.57H45.0998H45.1098Z" fill="#58595B"/>
<path d="M47.8498 30.17L48.6898 26.2H49.0898L48.3198 29.81H49.9598L49.8798 30.17H47.8398H47.8498Z" fill="#58595B"/>
<path d="M54.06 26.66L53.63 28.68C53.6 28.83 53.56 28.97 53.51 29.1C53.45 29.26 53.38 29.39 53.31 29.5C52.98 29.99 52.53 30.24 51.96 30.24C51.39 30.24 51.04 29.99 50.92 29.5C50.89 29.39 50.88 29.25 50.89 29.1C50.89 28.97 50.92 28.83 50.95 28.68L51.48 26.21H51.88L51.3499 28.68C51.3199 28.81 51.3 28.93 51.3 29.05C51.3 29.2 51.3 29.31 51.33 29.4C51.44 29.72 51.68 29.89 52.05 29.89C52.42 29.89 52.7299 29.73 52.9699 29.4C53.0399 29.31 53.1 29.2 53.15 29.05C53.19 28.93 53.23 28.81 53.25 28.68L53.78 26.21H54.18L54.1599 26.3C54.2399 26.25 54.29 26.19 54.31 26.12H54.14L54.24 25.65H54.73L54.63 26.14C54.6 26.23 54.56 26.3 54.52 26.35C54.48 26.41 54.43 26.45 54.37 26.49C54.32 26.53 54.27 26.56 54.24 26.58C54.2 26.6 54.15 26.63 54.08 26.66H54.06Z" fill="#58595B"/>
<path d="M58.4902 26.65C58.4902 26.65 58.5402 26.71 58.5702 26.74C58.9002 27.14 59.0102 27.63 58.8902 28.19C58.7702 28.76 58.4602 29.24 57.9502 29.65C57.4502 30.05 56.9202 30.25 56.3502 30.25C55.7802 30.25 55.3402 30.05 55.0102 29.66C54.6802 29.26 54.5702 28.78 54.6902 28.22C54.8102 27.64 55.1202 27.15 55.6202 26.75C56.1102 26.35 56.6502 26.15 57.2302 26.15C57.6402 26.15 57.9902 26.25 58.2702 26.46C58.3102 26.44 58.3402 26.43 58.3702 26.42C58.4102 26.4 58.4702 26.37 58.5502 26.32C58.6302 26.27 58.6802 26.21 58.7002 26.13H58.5302L58.6302 25.66H59.1202L59.0202 26.15C58.9902 26.24 58.9502 26.31 58.9102 26.36C58.8702 26.42 58.8202 26.46 58.7602 26.5C58.7102 26.54 58.6602 26.57 58.6302 26.59C58.6002 26.61 58.5502 26.63 58.5002 26.66L58.4902 26.65ZM58.2402 27C57.9702 26.67 57.6102 26.5 57.1402 26.5C56.6702 26.5 56.2302 26.67 55.8302 27.01C55.4302 27.35 55.1802 27.75 55.0802 28.22C54.9802 28.68 55.0702 29.07 55.3402 29.4C55.6102 29.73 55.9702 29.89 56.4302 29.89C56.8902 29.89 57.3302 29.73 57.7402 29.4C58.1502 29.07 58.4002 28.67 58.5002 28.21C58.6002 27.74 58.5202 27.34 58.2502 27.01L58.2402 27ZM55.9502 31.18L56.0902 30.5H56.4902L56.3502 31.18H55.9502Z" fill="#58595B"/>
<path d="M62.1799 30.17L60.5699 26.68H60.5599L59.8199 30.17H59.4199L60.2599 26.2H60.7999L62.3099 29.49H62.3199L63.02 26.2H63.4199L62.58 30.17H62.1799Z" fill="#58595B"/>
<path d="M68.1203 28.35C67.9603 28.89 67.6402 29.34 67.1602 29.7C66.6802 30.06 66.1703 30.24 65.6203 30.24C65.0703 30.24 64.6003 30.04 64.2603 29.64C63.9203 29.24 63.8103 28.75 63.9303 28.18C64.0503 27.61 64.3703 27.12 64.8803 26.72C65.3803 26.33 65.9203 26.13 66.4903 26.13C67.1403 26.13 67.6303 26.37 67.9603 26.86C68.0503 26.99 68.1003 27.12 68.1303 27.26H67.6702C67.5802 27.02 67.4203 26.84 67.1903 26.7C66.9603 26.57 66.7103 26.5 66.4303 26.5C65.9603 26.5 65.5202 26.67 65.1102 26.99C64.7002 27.32 64.4403 27.72 64.3403 28.19C64.2403 28.66 64.3302 29.07 64.6002 29.39C64.8702 29.71 65.2502 29.87 65.7202 29.87C66.0802 29.87 66.4303 29.76 66.7803 29.54C67.1503 29.31 67.4103 29.03 67.5703 28.69H65.3602L65.4403 28.33H68.1303L68.1203 28.35Z" fill="#58595B"/>
<path d="M70.54 28.84L70.6201 28.48H72.0801L72.0001 28.84H70.54Z" fill="#58595B"/>
<path d="M76.9099 29.85C76.7199 29.96 76.4899 30.04 76.2299 30.1C75.9999 30.15 75.7699 30.18 75.5399 30.18H74.3799L75.2198 26.21H76.3799C76.6099 26.21 76.8299 26.24 77.0299 26.29C77.2599 26.35 77.4499 26.43 77.5999 26.54C78.1199 26.92 78.2999 27.48 78.1399 28.21C77.9899 28.92 77.5699 29.46 76.8899 29.86L76.9099 29.85ZM77.3699 26.88C77.2199 26.76 77.0299 26.67 76.7999 26.63C76.6999 26.61 76.5898 26.6 76.4698 26.59C76.3698 26.59 76.2599 26.59 76.1299 26.59H75.5599L74.8699 29.84H75.5299C75.6599 29.84 75.7799 29.84 75.8799 29.83C75.9999 29.83 76.1099 29.81 76.2099 29.79C76.4499 29.74 76.6699 29.65 76.8699 29.52C77.0999 29.38 77.2899 29.18 77.4599 28.94C77.6199 28.71 77.7199 28.47 77.7699 28.21C77.8899 27.65 77.7599 27.21 77.3699 26.9V26.88Z" fill="#58595B"/>
<path d="M78.5103 31.18L78.6503 30.5H79.0502L78.9102 31.18H78.5103ZM78.7103 30.17L79.5502 26.2H79.9503L79.1102 30.17H78.7103Z" fill="#58595B"/>
<path d="M84.19 29.13C83.63 29.87 82.94 30.24 82.13 30.24C81.56 30.24 81.11 30.04 80.79 29.65C80.47 29.25 80.37 28.77 80.49 28.2C80.61 27.62 80.92 27.14 81.4 26.74C81.88 26.35 82.41 26.15 82.99 26.15C83.62 26.15 84.09 26.39 84.41 26.86C84.5 26.99 84.55 27.11 84.58 27.24H84.14C83.92 26.76 83.51 26.52 82.92 26.52C82.47 26.52 82.04 26.69 81.64 27.03C81.24 27.37 81 27.76 80.9 28.22C80.81 28.67 80.89 29.06 81.15 29.39C81.41 29.73 81.77 29.9 82.21 29.9C82.49 29.9 82.76 29.83 83.04 29.7C83.29 29.57 83.53 29.39 83.76 29.16H84.2L84.19 29.13Z" fill="#58595B"/>
<path d="M87.3699 30.17L87.77 28.31H85.7199L85.3199 30.17H84.9199L85.7599 26.2H86.1599L85.7899 27.95H87.84L88.21 26.2H88.6099L87.77 30.17H87.3699Z" fill="#58595B"/>
<path d="M92.3602 30.17H91.9702L91.1802 26.2H91.6202L92.2802 29.67L94.4202 26.2H94.8502L92.3602 30.17Z" fill="#58595B"/>
<path d="M97.7899 28.68C97.7599 28.83 97.7199 28.97 97.6699 29.1C97.6099 29.26 97.5399 29.39 97.4699 29.5C97.1399 29.99 96.6799 30.24 96.1099 30.24C95.5399 30.24 95.1899 29.99 95.0699 29.5C95.0399 29.39 95.0299 29.25 95.0399 29.1C95.0399 28.97 95.0599 28.83 95.0999 28.68L95.6299 26.21H96.0299L95.4999 28.68C95.4699 28.81 95.4499 28.93 95.4499 29.05C95.4499 29.2 95.4499 29.31 95.4799 29.4C95.5899 29.72 95.8299 29.89 96.1899 29.89C96.5499 29.89 96.8699 29.73 97.1099 29.4C97.1799 29.31 97.2399 29.2 97.2899 29.05C97.3299 28.93 97.3699 28.81 97.3999 28.68L97.9299 26.21H98.3299L97.7999 28.68H97.7899ZM95.7099 31.18L95.8499 30.5H96.2499L96.1099 31.18H95.7099Z" fill="#58595B"/>
<path d="M102.86 30.17L103.26 28.31H101.21L100.81 30.17H100.41L101.25 26.2H101.65L101.28 27.95H103.33L103.7 26.2H104.1L103.26 30.17H102.86Z" fill="#58595B"/>
<path d="M107.9 29.65C107.4 30.05 106.87 30.25 106.3 30.25C105.73 30.25 105.29 30.05 104.96 29.66C104.63 29.26 104.52 28.78 104.64 28.22C104.76 27.64 105.07 27.15 105.57 26.75C106.06 26.35 106.6 26.15 107.18 26.15C107.76 26.15 108.2 26.35 108.53 26.75C108.86 27.15 108.97 27.64 108.85 28.2C108.73 28.77 108.42 29.25 107.91 29.66L107.9 29.65ZM108.19 27C107.92 26.67 107.56 26.5 107.09 26.5C106.62 26.5 106.18 26.67 105.78 27.01C105.38 27.35 105.13 27.75 105.03 28.22C104.93 28.68 105.02 29.07 105.29 29.4C105.56 29.73 105.92 29.89 106.38 29.89C106.84 29.89 107.28 29.73 107.69 29.4C108.1 29.07 108.35 28.67 108.45 28.21C108.55 27.74 108.47 27.34 108.2 27.01L108.19 27Z" fill="#58595B"/>
<path d="M112.44 30.17L112.15 28.84H110.31L109.45 30.17H109.04L111.57 26.2H112.01L112.87 30.17H112.44ZM111.69 26.66L110.53 28.48H112.07L111.69 26.66ZM112.25 25.98L111.31 25.41L111.55 25.09L112.49 25.68L112.25 25.99V25.98Z" fill="#58595B"/>
<path d="M116.41 30.17L114.8 26.68H114.79L114.05 30.17H113.65L114.49 26.2H115.03L116.54 29.49H116.55L117.25 26.2H117.65L116.81 30.17H116.41Z" fill="#58595B"/>
<path d="M122.19 30.17L122.59 28.31H120.54L120.14 30.17H119.74L120.58 26.2H120.98L120.61 27.95H122.66L123.03 26.2H123.43L122.59 30.17H122.19Z" fill="#58595B"/>
<path d="M126.79 30.17L126.5 28.84H124.66L123.8 30.17H123.39L125.92 26.2H126.36L127.22 30.17H126.79ZM126.04 26.66L124.88 28.48H126.42L126.04 26.66ZM126.81 25.48C126.81 25.48 126.77 25.52 126.73 25.55L126.69 25.59L126.56 25.69C126.56 25.69 126.51 25.74 126.48 25.77C126.44 25.82 126.4 25.89 126.38 26H126.05L126.07 25.93C126.09 25.84 126.13 25.75 126.2 25.67C126.22 25.65 126.25 25.61 126.29 25.58C126.31 25.56 126.33 25.54 126.37 25.51L126.46 25.44C126.46 25.44 126.51 25.39 126.54 25.37C126.58 25.33 126.6 25.29 126.61 25.24C126.63 25.17 126.61 25.11 126.58 25.07C126.54 25.02 126.49 25 126.44 25C126.36 25 126.29 25.04 126.22 25.11C126.2 25.14 126.18 25.17 126.17 25.2C126.17 25.22 126.15 25.27 126.13 25.36H125.79L125.81 25.26C125.84 25.12 125.92 24.99 126.06 24.88C126.19 24.78 126.34 24.73 126.49 24.73C126.64 24.73 126.77 24.78 126.85 24.88C126.94 24.99 126.96 25.11 126.93 25.25C126.91 25.33 126.87 25.41 126.81 25.49V25.48Z" fill="#58595B"/>
<path d="M131.51 29.65C131.01 30.05 130.48 30.25 129.91 30.25C129.34 30.25 128.9 30.05 128.57 29.66C128.24 29.26 128.13 28.78 128.25 28.22C128.37 27.64 128.68 27.15 129.18 26.75C129.67 26.35 130.21 26.15 130.79 26.15C131.37 26.15 131.81 26.35 132.14 26.75C132.47 27.15 132.58 27.64 132.46 28.2C132.34 28.77 132.03 29.25 131.52 29.66L131.51 29.65ZM131.8 27C131.53 26.67 131.17 26.5 130.7 26.5C130.23 26.5 129.79 26.67 129.39 27.01C128.99 27.35 128.74 27.75 128.64 28.22C128.54 28.68 128.63 29.07 128.9 29.4C129.17 29.73 129.53 29.89 129.99 29.89C130.45 29.89 130.89 29.73 131.3 29.4C131.71 29.07 131.96 28.67 132.06 28.21C132.16 27.74 132.08 27.34 131.81 27.01L131.8 27Z" fill="#58595B"/>
</svg>
