<svg width="59" height="38" viewBox="0 0 59 38" fill="none" xmlns="http://www.w3.org/2000/svg">
<path d="M23.0009 26.1513C23.0009 29.3793 21.9226 32.0791 19.7661 34.2311C17.6095 36.383 14.9138 37.459 11.6789 37.459C8.44408 37.459 5.74837 36.383 3.5918 34.2311C1.43524 32.0791 0.356934 29.3891 0.356934 26.1513V15.6554C0.356934 13.3274 0.856884 10.9895 1.84694 8.66146C2.8272 6.33339 4.58185 4.35747 7.10111 2.74348C11.5907 0.415413 14.4726 -0.0345545 15.7372 1.39359C16.9919 2.83151 16.6292 4.44551 14.6589 6.23558C10.3458 8.57343 8.81656 11.4395 10.0713 14.8436C15.1 14.8436 18.5211 15.9195 20.3248 18.0715C22.1187 20.2235 23.0205 22.9135 23.0205 26.1415L23.0009 26.1513ZM58.0647 26.1513C58.0647 29.3793 56.9864 32.0791 54.8299 34.2311C52.6733 36.383 49.9776 37.459 46.7427 37.459C43.5079 37.459 40.8122 36.383 38.6556 34.2311C36.499 32.0791 35.4208 29.3891 35.4208 26.1513V15.6554C35.4208 13.3274 35.9109 10.9895 36.9009 8.66146C37.891 6.33339 39.6457 4.35747 42.1649 2.74348C46.6545 0.415413 49.5365 -0.0345545 50.801 1.39359C52.0557 2.83151 51.693 4.44551 49.7227 6.23558C45.4096 8.57343 43.8804 11.4395 45.1351 14.8436C50.1638 14.8436 53.5849 15.9195 55.3886 18.0715C57.1825 20.2235 58.0843 22.9135 58.0843 26.1415L58.0647 26.1513Z" fill="#EE5425"/>
</svg>
