<svg width="23" height="23" viewBox="0 0 23 23" fill="none" xmlns="http://www.w3.org/2000/svg">
<g clip-path="url(#clip0_80_242)">
<path d="M5.28005 10.6601C5.70005 11.2401 5.99005 11.7001 6.33005 12.0901C7.77005 13.7301 9.28005 15.3001 11.0301 16.6101C11.5701 17.0101 11.7301 16.9901 12.1601 16.4501C12.1801 16.4201 12.2101 16.3901 12.2301 16.3601C13.2001 15.0601 13.3801 15.0001 14.8901 15.5201C15.7501 15.8101 16.6101 16.1201 17.4601 16.4401C18.4001 16.7901 18.76 17.3401 18.8001 18.3501C18.8401 19.2901 18.6401 20.1601 18.1001 20.9501C17.3301 22.0701 16.2701 22.3801 14.9501 22.2601C12.5901 22.0601 10.7201 20.8201 8.89005 19.5101C6.12005 17.5301 3.83005 15.0901 1.99005 12.2201C1.27005 11.0901 0.600051 9.94012 0.270051 8.63012C0.0800515 7.87012 -0.139949 7.12012 0.0600514 6.30012C0.450051 4.70012 1.62005 3.63012 3.24005 3.51012C3.55005 3.49012 3.85005 3.49012 4.16005 3.51012C4.86005 3.55012 5.42005 3.85012 5.68005 4.52012C6.14005 5.72012 6.60005 6.93012 7.00005 8.16012C7.22005 8.85012 7.00005 9.43012 6.34005 9.84012C5.99005 10.0601 5.68005 10.3301 5.25005 10.6501L5.28005 10.6601Z" fill="#EE5425"/>
<path d="M10.96 0.00988451C13.07 0.339885 14.95 1.20988 16.66 2.45988C18.64 3.89988 20.16 5.74988 21.24 7.93988C21.79 9.06988 22.19 10.2499 22.35 11.5099C22.41 11.9999 22.18 12.3999 21.81 12.4899C21.5 12.5699 21.07 12.2999 20.92 11.9099C20.87 11.7699 20.89 11.6099 20.86 11.4599C20.34 9.00988 19.18 6.88988 17.44 5.11988C15.65 3.28988 13.48 2.05988 10.96 1.48988C10.85 1.45988 10.73 1.48988 10.62 1.44988C10.07 1.30988 9.71998 0.879884 9.83998 0.499885C9.95998 0.109885 10.34 -0.0501155 10.96 0.0198845V0.00988451Z" fill="#EE5425"/>
<path d="M18.7901 11.3102C18.8201 11.8802 18.6901 12.1702 18.2901 12.2802C17.8701 12.3902 17.5601 12.2202 17.4001 11.7802C17.3101 11.5302 17.2401 11.2702 17.1901 11.0102C16.7101 8.88016 15.4401 7.31016 13.6501 6.14016C12.8501 5.61016 12.0201 5.15016 11.0201 5.12016C10.9801 5.12016 10.9401 5.12016 10.9101 5.10016C10.2501 4.92016 9.95008 4.58016 10.0501 4.09016C10.1401 3.61016 10.5801 3.41016 11.2501 3.56016C15.0301 4.38016 17.9501 7.28016 18.7601 11.0402C18.7901 11.1902 18.8001 11.3402 18.7901 11.3102Z" fill="#EE5425"/>
<path d="M15.35 11.0598C15.35 11.5098 15.06 11.9498 14.72 12.0198C14.32 12.0998 14.04 11.8998 13.94 11.5198C13.49 9.8698 12.45 8.8398 10.8 8.3798C10.43 8.2798 10.21 7.9998 10.31 7.5998C10.41 7.2098 10.88 6.8998 11.29 6.9898C12.24 7.1898 13.09 7.6298 13.77 8.3198C14.44 8.9998 15.01 9.7598 15.25 10.7198C15.29 10.8698 15.33 11.0098 15.34 11.0698L15.35 11.0598Z" fill="#EE5425"/>
</g>
<defs>
<clipPath id="clip0_80_242">
<rect width="22.35" height="22.29" fill="white"/>
</clipPath>
</defs>
</svg>
