<svg width="25" height="12" viewBox="0 0 25 12" fill="none" xmlns="http://www.w3.org/2000/svg">
<g clip-path="url(#clip0_30_96)">
<path d="M0 6.0188H23.55" stroke="white" stroke-miterlimit="10"/>
<path d="M16.7199 10.8188C16.5699 10.5888 16.6399 10.2788 16.8699 10.1288L23.3199 6.01877L16.8699 1.90877C16.6399 1.75877 16.5699 1.44877 16.7199 1.21877C16.8699 0.988767 17.1799 0.918767 17.4099 1.06877L24.5199 5.59877C24.6599 5.68877 24.7499 5.84877 24.7499 6.01877C24.7499 6.18877 24.6599 6.34877 24.5199 6.43877L17.4099 10.9688C17.3299 11.0188 17.2299 11.0488 17.1399 11.0488C16.9699 11.0488 16.8099 10.9688 16.7199 10.8188Z" fill="white"/>
</g>
<defs>
<clipPath id="clip0_30_96">
<rect width="24.76" height="10.06" fill="white" transform="translate(0 0.98877)"/>
</clipPath>
</defs>
</svg>
