<svg width="24" height="22" viewBox="0 0 24 22" fill="none" xmlns="http://www.w3.org/2000/svg">
<path d="M14.4301 18.79C19.2847 18.79 23.2201 14.8545 23.2201 9.99996C23.2201 5.14538 19.2847 1.20996 14.4301 1.20996C9.57555 1.20996 5.64014 5.14538 5.64014 9.99996C5.64014 14.8545 9.57555 18.79 14.4301 18.79Z" stroke="white" stroke-width="1.15" stroke-miterlimit="10"/>
<path d="M7.60026 15.272L7.5941 15.2642C7.31844 14.9118 6.80936 14.8497 6.45703 15.1254L1.07785 19.3341C0.725528 19.6097 0.663383 20.1188 0.939045 20.4711L0.945208 20.479C1.22087 20.8313 1.72995 20.8935 2.08228 20.6178L7.46145 16.4091C7.81378 16.1334 7.87593 15.6244 7.60026 15.272Z" fill="white"/>
</svg>
