<svg width="63" height="63" viewBox="0 0 63 63" fill="none" xmlns="http://www.w3.org/2000/svg">
<path d="M31.8201 62.31C48.9133 62.31 62.7701 48.4532 62.7701 31.36C62.7701 14.2668 48.9133 0.410034 31.8201 0.410034C14.7269 0.410034 0.870117 14.2668 0.870117 31.36C0.870117 48.4532 14.7269 62.31 31.8201 62.31Z" fill="white"/>
<path d="M24.06 32.78L22.46 30.07C22.46 30.07 23.08 27.98 27.38 28.22C31.68 28.46 35.13 27.36 36.24 25.39L39.44 27.36C39.44 27.36 35.5 30.44 32.55 30.07V33.89H28.37V30.32C28.37 30.32 24.19 30.94 24.06 32.78Z" stroke="#000073" stroke-width="1.08" stroke-miterlimit="10"/>
<path d="M28.3699 33.88H33.2899C33.2899 33.88 37.5999 36.1 38.9499 42.13L35.6299 44.1C35.6299 44.1 34.3999 37.45 32.3099 37.08C30.2199 36.71 29.8499 37.82 29.8499 37.82C29.8499 37.82 24.9299 44.1 22.4699 42.87L21.3599 39.55C21.3599 39.55 27.7599 38.69 28.3799 33.89L28.3699 33.88Z" stroke="#000073" stroke-width="1.08" stroke-miterlimit="10"/>
<path d="M30.3999 28.1001C31.9297 28.1001 33.1699 26.8599 33.1699 25.33C33.1699 23.8002 31.9297 22.5601 30.3999 22.5601C28.87 22.5601 27.6299 23.8002 27.6299 25.33C27.6299 26.8599 28.87 28.1001 30.3999 28.1001Z" stroke="#000073" stroke-width="1.08" stroke-miterlimit="10"/>
<path d="M36.1201 32.41V23.42V18.62H42.2801V23.18L36.7401 23.42" stroke="#000073" stroke-width="1.08" stroke-miterlimit="10"/>
</svg>
