<svg width="63" height="62" viewBox="0 0 63 62" fill="none" xmlns="http://www.w3.org/2000/svg">
<path d="M31.3299 61.9601C48.4231 61.9601 62.2799 48.1033 62.2799 31.0101C62.2799 13.9169 48.4231 0.0600586 31.3299 0.0600586C14.2367 0.0600586 0.379883 13.9169 0.379883 31.0101C0.379883 48.1033 14.2367 61.9601 31.3299 61.9601Z" fill="#000073"/>
<path d="M23.5703 32.43L21.9702 29.72C21.9702 29.72 22.5903 27.63 26.8903 27.87C31.1903 28.11 34.6402 27.01 35.7502 25.04L38.9503 27.01C38.9503 27.01 35.0102 30.09 32.0602 29.72V33.54H27.8802V29.97C27.8802 29.97 23.7003 30.59 23.5703 32.43Z" stroke="white" stroke-width="1.08" stroke-miterlimit="10"/>
<path d="M27.8801 33.54H32.8001C32.8001 33.54 37.1101 35.76 38.4601 41.79L35.1401 43.76C35.1401 43.76 33.9101 37.11 31.8201 36.74C29.7301 36.37 29.3601 37.48 29.3601 37.48C29.3601 37.48 24.4401 43.76 21.9801 42.53L20.8701 39.21C20.8701 39.21 27.2701 38.35 27.8901 33.55L27.8801 33.54Z" stroke="white" stroke-width="1.08" stroke-miterlimit="10"/>
<path d="M29.9101 27.75C31.4399 27.75 32.6801 26.5098 32.6801 24.98C32.6801 23.4502 31.4399 22.21 29.9101 22.21C28.3803 22.21 27.1401 23.4502 27.1401 24.98C27.1401 26.5098 28.3803 27.75 29.9101 27.75Z" stroke="white" stroke-width="1.08" stroke-miterlimit="10"/>
<path d="M35.6401 32.06V23.08V18.28H41.7901V22.83L36.2501 23.08" stroke="white" stroke-width="1.08" stroke-miterlimit="10"/>
</svg>
