<svg width="23" height="24" viewBox="0 0 23 24" fill="none" xmlns="http://www.w3.org/2000/svg">
<path d="M22.9599 11.7499C22.9599 18.0099 17.8299 23.1399 11.5199 23.0999C5.30989 23.0599 0.219888 17.9699 0.249888 11.6799C0.279888 5.44988 5.38989 0.349882 11.6799 0.389882C17.8999 0.429882 22.9699 5.50988 22.9599 11.7499ZM11.5999 19.1599C12.6299 19.1599 13.6599 19.1599 14.6899 19.1599C15.0599 19.1599 15.4199 19.1199 15.7799 19.0199C17.6399 18.5399 18.9699 16.8399 18.9699 14.9099C18.9699 12.8399 18.9699 10.7799 18.9699 8.70988C18.9699 8.06988 18.8599 7.44988 18.5699 6.86988C17.7799 5.30988 16.5099 4.44988 14.7599 4.42988C12.6499 4.39988 10.5399 4.42988 8.42989 4.42988C7.79989 4.42988 7.18989 4.55988 6.63989 4.84988C5.07989 5.65988 4.25989 6.95988 4.24989 8.71988C4.22989 10.7799 4.24989 12.8499 4.24989 14.9099C4.24989 15.0499 4.24989 15.1999 4.26989 15.3399C4.37989 16.3099 4.75989 17.1499 5.43989 17.8499C6.23989 18.6699 7.21989 19.1199 8.36989 19.1399C9.44989 19.1599 10.5299 19.1399 11.6099 19.1399L11.5999 19.1599Z" fill="white"/>
<path d="M11.6099 5.81981C12.6699 5.81981 13.7299 5.81981 14.7799 5.81981C16.1199 5.81981 17.2499 6.71981 17.5499 8.02981C17.5899 8.21981 17.6199 8.41981 17.6199 8.61981C17.6199 10.7598 17.6199 12.9098 17.6199 15.0498C17.6199 16.3098 16.6999 17.4698 15.4699 17.7498C15.2399 17.7998 14.9999 17.8298 14.7599 17.8298C12.6599 17.8298 10.5599 17.8298 8.45986 17.8298C7.09986 17.8298 5.95986 16.9298 5.66986 15.6098C5.62986 15.4198 5.60986 15.2098 5.60986 15.0098C5.60986 12.8698 5.60986 10.7398 5.60986 8.59981C5.60986 7.25981 6.61986 6.06981 7.93986 5.84981C8.10986 5.81981 8.28986 5.80981 8.46986 5.80981C9.51986 5.80981 10.5699 5.80981 11.6099 5.80981V5.81981ZM11.6099 7.99981C9.49986 7.99981 7.78986 9.71981 7.78986 11.8298C7.78986 13.9398 9.48986 15.6598 11.6099 15.6598C13.7799 15.6598 15.4499 13.8898 15.4399 11.7998C15.4299 9.71981 13.7099 8.00981 11.6099 8.00981V7.99981ZM15.5499 8.74981C16.0499 8.74981 16.4499 8.35981 16.4499 7.85981C16.4499 7.36981 16.0499 6.96981 15.5599 6.96981C15.0699 6.96981 14.6599 7.36981 14.6599 7.85981C14.6599 8.34981 15.0499 8.74981 15.5499 8.74981Z" fill="white"/>
<path d="M11.6099 9.34985C12.9799 9.34985 14.0899 10.4599 14.0899 11.8399C14.0899 13.1799 12.9699 14.2999 11.6099 14.2999C10.2399 14.2999 9.12988 13.1899 9.12988 11.8099C9.12988 10.4499 10.2399 9.34985 11.6099 9.34985Z" fill="white"/>
</svg>
