<svg width="23" height="24" viewBox="0 0 23 24" fill="none" xmlns="http://www.w3.org/2000/svg">
<path d="M12.02 23.0999H10.69C10.62 23.0899 10.55 23.0699 10.47 23.0599C9.99 22.9899 9.51 22.9599 9.05 22.8599C6.9 22.4099 5.03 21.4299 3.45 19.8899C1.61 18.0999 0.5 15.9299 0.12 13.3899C0.08 13.0599 0.04 12.7299 0 12.4099C0 11.9699 0 11.5199 0 11.0799C0.03 10.7999 0.06 10.5099 0.1 10.2299C0.42 7.94989 1.33 5.93989 2.86 4.21989C4.69 2.15989 6.98 0.919893 9.71 0.509893C10.04 0.459893 10.37 0.429893 10.7 0.389893C11.14 0.389893 11.59 0.389893 12.03 0.389893C12.1 0.399893 12.17 0.419893 12.25 0.429893C12.73 0.499893 13.22 0.529893 13.7 0.629893C15.85 1.07989 17.72 2.06989 19.29 3.60989C21.12 5.39989 22.23 7.55989 22.61 10.0999C22.66 10.4299 22.69 10.7599 22.73 11.0899V12.4199C22.7 12.6999 22.67 12.9899 22.63 13.2699C22.31 15.5499 21.4 17.5599 19.87 19.2799C18.04 21.3299 15.75 22.5699 13.02 22.9899C12.69 23.0399 12.36 23.0699 12.03 23.1099L12.02 23.0999ZM16.58 10.6699V8.61989C14.83 8.41989 13.88 7.44989 13.7 5.73989H11.66C11.66 5.84989 11.66 5.92989 11.66 6.01989C11.66 8.61989 11.66 11.2199 11.66 13.8299C11.66 14.2099 11.58 14.5699 11.37 14.8999C11 15.4799 10.27 15.7899 9.56 15.6499C8.88 15.5199 8.32 14.9299 8.21 14.2599C8.1 13.5499 8.43 12.8299 9.02 12.4799C9.46 12.2199 9.92 12.1799 10.42 12.2899V10.1899C10.33 10.1799 10.25 10.1599 10.17 10.1599C8.03 10.0199 6.18 11.7099 6.13 13.8499C6.07 16.3799 8.41 18.2599 10.86 17.6499C12.48 17.2499 13.68 15.7999 13.72 14.1499C13.75 12.7899 13.73 11.4299 13.74 10.0699C13.74 9.97989 13.74 9.89989 13.74 9.75989C14.63 10.3599 15.56 10.6699 16.59 10.6799L16.58 10.6699Z" fill="white"/>
</svg>
