<svg width="25" height="17" viewBox="0 0 25 17" fill="none" xmlns="http://www.w3.org/2000/svg">
<g clip-path="url(#clip0_29_34)">
<path d="M12.01 0C14.89 0 17.77 0 20.64 0C21.79 0 22.72 0.38 23.41 1.18C23.83 1.66 24.03 2.22 24.03 2.82C24.03 3.18 23.84 3.45 23.49 3.65C22.36 4.33 21.24 5.01 20.12 5.69C17.66 7.18 15.2 8.67 12.75 10.15C12.22 10.47 11.81 10.47 11.28 10.15C7.93005 8.12 4.59005 6.1 1.24005 4.08C0.990046 3.93 0.750046 3.78 0.500046 3.63C0.130046 3.4 -0.0199543 3.09 4.56743e-05 2.69C0.0900457 1.43 1.09005 0.42 2.41005 0.11C2.74005 0.04 3.10005 0 3.44005 0C6.30005 0 9.16005 0 12.01 0ZM2.29005 2.41C2.37005 2.46 2.44005 2.5 2.51005 2.55C3.24005 2.99 3.97005 3.44 4.70005 3.88C7.10005 5.33 9.50005 6.79 11.9 8.24C12 8.3 12.06 8.29 12.15 8.24C15.3 6.33 18.46 4.42 21.61 2.51C21.66 2.48 21.7 2.45 21.75 2.42C21.51 2.09 21.21 1.9 20.76 1.9C20.25 1.9 19.74 1.9 19.23 1.9C15.59 1.9 11.94 1.9 8.30005 1.9C6.63005 1.9 4.97005 1.9 3.30005 1.9C2.85005 1.9 2.53005 2.08 2.29005 2.43V2.41Z" fill="white"/>
<path d="M11.99 17.0101C9.14 17.0101 6.3 17.0101 3.45 17.0101C2.2 17.0101 1.2 16.6001 0.51 15.6901C0.16 15.2201 0 14.6901 0 14.1301C0 11.6401 0 9.1601 0 6.6701C0 6.1601 0.35 5.7901 0.9 5.6901C1.36 5.6101 1.89 5.8401 2.07 6.2401C2.14 6.3901 2.17 6.5601 2.17 6.7201C2.17 9.1801 2.17 11.6401 2.17 14.1001C2.17 14.5901 2.43 14.9401 2.93 15.0801C3.06 15.1201 3.21 15.1301 3.35 15.1301C8.8 15.1301 14.25 15.1301 19.71 15.1301C20.03 15.1301 20.36 15.1301 20.68 15.1301C21.4 15.1301 21.85 14.7301 21.85 14.1001C21.85 11.6301 21.85 9.1601 21.85 6.6901C21.85 6.2301 22.11 5.8801 22.58 5.7301C23.3 5.5001 24.03 5.9701 24.03 6.6701C24.03 8.0201 24.03 9.3701 24.03 10.7301C24.03 11.8601 24.04 12.9901 24.03 14.1201C24.01 15.3501 23.35 16.2501 22.05 16.7801C21.6 16.9601 21.12 17.0201 20.63 17.0201C17.75 17.0201 14.87 17.0201 11.98 17.0201L11.99 17.0101Z" fill="white"/>
</g>
<defs>
<clipPath id="clip0_29_34">
<rect width="24.05" height="17.01" fill="white"/>
</clipPath>
</defs>
</svg>
