<svg width="20" height="20" viewBox="0 0 20 20" fill="none" xmlns="http://www.w3.org/2000/svg">
<g clip-path="url(#clip0_29_26)">
<path d="M4.97019 9.32993C5.34019 9.83993 5.59019 10.2399 5.89019 10.5799C7.15019 12.0199 8.47019 13.3899 10.0102 14.5399C10.4802 14.8899 10.6202 14.8699 11.0002 14.3999C11.0202 14.3699 11.0402 14.3499 11.0602 14.3199C11.9102 13.1799 12.0602 13.1299 13.3902 13.5799C14.1402 13.8399 14.9002 14.0999 15.6402 14.3799C16.4602 14.6899 16.7802 15.1699 16.8202 16.0499C16.8502 16.8799 16.6802 17.6399 16.2102 18.3299C15.5402 19.3099 14.6002 19.5799 13.4502 19.4799C11.3902 19.2999 9.75019 18.2199 8.15019 17.0699C5.73019 15.3399 3.72019 13.1999 2.11019 10.6899C1.48019 9.69993 0.890192 8.68993 0.610192 7.54993C0.440192 6.88993 0.250192 6.22993 0.430192 5.50993C0.770192 4.10993 1.80019 3.16993 3.22019 3.06993C3.49019 3.04993 3.76019 3.04993 4.03019 3.06993C4.65019 3.09993 5.14019 3.36993 5.37019 3.95993C5.78019 5.00993 6.18019 6.06993 6.52019 7.14993C6.71019 7.74993 6.52019 8.26993 5.95019 8.61993C5.65019 8.80993 5.37019 9.04993 5.00019 9.32993H4.97019Z" fill="white"/>
<path d="M9.94012 0.010082C11.7801 0.300082 13.4301 1.06008 14.9301 2.15008C16.6601 3.41008 17.9901 5.03008 18.9401 6.95008C19.4301 7.94008 19.7701 8.98008 19.9101 10.0701C19.9601 10.5001 19.7601 10.8501 19.4401 10.9301C19.1701 11.0001 18.7901 10.7601 18.6601 10.4201C18.6101 10.3001 18.6301 10.1601 18.6001 10.0301C18.1401 7.89008 17.1301 6.02008 15.6101 4.47008C14.0401 2.87008 12.1401 1.79008 9.94012 1.29008C9.84012 1.27008 9.74012 1.29008 9.64012 1.26008C9.16012 1.13008 8.86012 0.760082 8.96012 0.430082C9.07012 0.090082 9.40012 -0.049918 9.94012 0.010082Z" fill="white"/>
<path d="M16.8004 9.89992C16.8304 10.3999 16.7104 10.6499 16.3604 10.7499C16.0004 10.8499 15.7204 10.6999 15.5804 10.3099C15.5004 10.0899 15.4404 9.85992 15.3904 9.63992C14.9704 7.76992 13.8604 6.39992 12.2904 5.36992C11.5904 4.90992 10.8604 4.49992 9.99036 4.47992C9.96036 4.47992 9.92036 4.47992 9.89036 4.46992C9.31036 4.30992 9.05036 4.00992 9.13036 3.57992C9.21036 3.15992 9.59036 2.97992 10.1804 3.10992C13.4904 3.82992 16.0504 6.36992 16.7604 9.65992C16.7904 9.78992 16.7904 9.92992 16.7904 9.89992H16.8004Z" fill="white"/>
<path d="M13.7804 9.69007C13.7804 10.0901 13.5304 10.4701 13.2304 10.5301C12.8804 10.6001 12.6404 10.4201 12.5504 10.0901C12.1604 8.65007 11.2404 7.74007 9.80045 7.34007C9.47045 7.25007 9.29045 7.01007 9.37045 6.65007C9.45045 6.30007 9.87045 6.04007 10.2304 6.11007C11.0604 6.28007 11.8004 6.67007 12.4004 7.27007C12.9904 7.86007 13.4904 8.53007 13.7004 9.37007C13.7304 9.50007 13.7704 9.62007 13.7804 9.67007V9.69007Z" fill="white"/>
</g>
<defs>
<clipPath id="clip0_29_26">
<rect width="19.57" height="19.52" fill="white" transform="translate(0.340332)"/>
</clipPath>
</defs>
</svg>
