<svg width="24" height="24" viewBox="0 0 24 24" fill="none" xmlns="http://www.w3.org/2000/svg">
<path d="M13.2699 23.48H10.9799C11.0199 23.39 10.9499 23.39 10.8999 23.39C10.8499 23.39 10.7999 23.41 10.8399 23.48H10.5599C10.5899 23.36 10.4399 23.34 10.4199 23.35C10.2499 23.45 10.0799 23.33 9.92994 23.3C9.35994 23.21 8.80994 23.06 8.25994 22.89C7.46994 22.64 6.72994 22.3 6.01994 21.88C4.84994 21.19 3.80994 20.33 2.93994 19.28C2.39994 18.62 1.91994 17.93 1.51994 17.18C1.08994 16.37 0.769938 15.51 0.529938 14.62C0.479938 14.41 0.369937 14.21 0.349937 14.01C0.319937 13.75 0.249938 13.49 0.279938 13.22C0.279938 13.16 0.289941 13.09 0.189941 13.11C0.189941 12.97 0.189941 12.83 0.189941 12.7C0.199941 12.7 0.20994 12.7 0.21994 12.7C0.20994 12.69 0.199941 12.67 0.189941 12.66C0.189941 12.05 0.189941 11.44 0.189941 10.83C0.199941 10.82 0.20994 10.8 0.21994 10.79C0.20994 10.79 0.199941 10.79 0.189941 10.79C0.189941 10.65 0.189941 10.51 0.189941 10.38C0.279941 10.33 0.279938 10.33 0.279938 10.24C0.339938 9.49 0.519941 8.76 0.759941 8.06C0.999941 7.36 1.28994 6.68 1.65994 6.03C2.18994 5.1 2.82994 4.26 3.56994 3.49C4.02994 3.02 4.53994 2.6 5.07994 2.21C6.11994 1.45 7.25994 0.89 8.49994 0.51C9.19994 0.3 9.91994 0.15 10.6599 0.09C10.7099 0.09 10.7899 0.1 10.7399 0H12.9899C12.9499 0.08 13.0099 0.08 13.0499 0.09C13.5799 0.15 14.1099 0.18 14.6299 0.35C14.9299 0.45 15.2699 0.49 15.5799 0.59C16.5699 0.93 17.5099 1.38 18.3899 1.95C19.2499 2.52 19.9999 3.19 20.6999 3.94C21.3099 4.59 21.7799 5.34 22.2099 6.11C22.6199 6.84 22.9599 7.6 23.1899 8.41C23.2899 8.75 23.3999 9.09 23.4599 9.42C23.5299 9.75 23.5699 10.11 23.5799 10.45C23.5799 10.5 23.5399 10.61 23.6699 10.58V12.6C23.6699 12.6 23.6499 12.63 23.6399 12.64C23.6499 12.64 23.6599 12.64 23.6699 12.64V12.87C23.6699 12.87 23.6199 12.84 23.6099 12.87C23.5899 12.9 23.5899 12.94 23.5799 12.98C23.5299 13.49 23.4699 14 23.3399 14.5C23.0299 15.74 22.5099 16.9 21.8399 17.99C21.1899 19.05 20.3699 19.95 19.4399 20.74C18.8399 21.25 18.1799 21.68 17.4799 22.06C16.8999 22.37 16.3199 22.63 15.6999 22.84C14.9299 23.1 14.1599 23.3 13.3499 23.38C13.2999 23.38 13.2199 23.37 13.2599 23.47L13.2699 23.48ZM19.4399 7.08C18.9199 7.25 18.3999 7.45 17.7899 7.5C18.4099 7.05 18.8699 6.54 19.0999 5.81C18.4999 6.13 17.9099 6.38 17.2899 6.52C17.1899 6.54 17.1399 6.54 17.0699 6.47C16.8999 6.29 16.6899 6.15 16.4799 6.01C15.7999 5.58 15.0499 5.48 14.2899 5.62C13.0699 5.85 12.2799 6.6 11.8799 7.77C11.7199 8.23 11.7199 8.7 11.7999 9.16C11.8299 9.34 11.7999 9.39 11.6299 9.39C10.9899 9.37 10.3699 9.21 9.75994 9.04C8.96994 8.82 8.22994 8.46 7.52994 8.02C6.89994 7.62 6.30994 7.16 5.79994 6.62C5.69994 6.52 5.61994 6.39 5.52994 6.28C5.43994 6.17 5.35994 6.15 5.28994 6.31C5.16994 6.55 5.09994 6.8 5.01994 7.06C4.93994 7.34 5.02994 7.62 4.99994 7.89C4.95994 8.21 5.07994 8.49 5.15994 8.76C5.32994 9.3 5.66994 9.76 6.11994 10.12C6.16994 10.16 6.26994 10.2 6.23994 10.27C6.20994 10.36 6.10994 10.31 6.03994 10.31C5.99994 10.31 5.94994 10.28 5.90994 10.27C5.61994 10.21 5.33994 10.1 5.06994 9.99C4.91994 9.93 4.92994 10 4.91994 10.1C4.90994 10.21 5.02994 10.26 5.00994 10.35C4.93994 10.66 5.08994 10.92 5.20994 11.18C5.61994 12.14 6.37994 12.69 7.37994 13C6.93994 13.14 6.50994 13.11 6.06994 13.07C6.11994 13.25 6.15994 13.42 6.25994 13.57C6.47994 13.89 6.70994 14.18 6.99994 14.44C7.19994 14.62 7.43994 14.73 7.63994 14.88C7.88994 15.06 8.23994 15.1 8.54994 15.19C8.58994 15.2 8.64994 15.19 8.67994 15.17C8.74994 15.1 8.80994 15.1 8.86994 15.18C8.93994 15.28 8.82994 15.3 8.78994 15.33C8.47994 15.56 8.13994 15.74 7.78994 15.92C7.07994 16.28 6.32994 16.47 5.54994 16.53C5.18994 16.56 4.82994 16.53 4.40994 16.53C5.72994 17.36 7.09994 17.8 8.56994 17.9C9.14994 17.94 9.73994 17.91 10.3199 17.83C11.4299 17.68 12.4699 17.35 13.4599 16.83C14.5299 16.26 15.3599 15.42 16.1299 14.51C16.4899 14.08 16.6899 13.54 17.0099 13.08C17.0999 12.95 17.1099 12.78 17.1899 12.64C17.3899 12.27 17.5499 11.89 17.6399 11.49C17.7599 10.98 17.8699 10.48 17.9199 9.96C17.9599 9.53 18.0399 9.1 17.9799 8.67C17.9699 8.57 18.0099 8.57 18.0699 8.52C18.2899 8.36 18.5199 8.21 18.7199 8.02C18.7999 7.94 18.8099 7.81 18.9099 7.74C19.1699 7.59 19.3099 7.34 19.4699 7.09C19.4699 7.09 19.4899 7.07 19.4999 7.06C19.4799 7.06 19.4699 7.06 19.4499 7.06L19.4399 7.08Z" fill="white"/>
</svg>
