<svg width="481" height="514" viewBox="0 0 481 514" fill="none" xmlns="http://www.w3.org/2000/svg">
<g clip-path="url(#clip0_151_6793)">
<path d="M429.07 345.225C428.763 383.546 419.661 424.261 393.573 450.057C380.549 462.935 364.162 471.111 346.896 475.319C340.384 476.907 333.746 477.934 327.121 478.434C302.923 480.261 278.693 475.586 255.188 469.084C238.635 464.509 222.155 458.993 205.123 457.64C180.193 455.672 155.49 462.708 131.333 469.691C124.368 471.705 116.398 475.426 109.16 475.606C103.76 475.74 98.1132 473.699 92.6665 473.285C85.1624 472.705 77.6648 471.985 70.2539 470.511C63.7951 469.23 54.9925 463.722 48.7934 463.722C36.5284 458.006 25.3087 448.043 19.0497 435.512C16.333 430.083 14.5552 424.167 14.0225 417.919C11.8118 391.922 31.5078 369.094 53.4011 358.323C75.2944 347.553 99.8245 345.132 122.73 337.209C143.991 329.853 163.826 317.675 180.599 301.696C203.491 279.875 221.296 250.664 248.743 236.326C252.478 234.372 256.34 232.731 260.282 231.351C265.229 229.617 270.31 228.296 275.45 227.269C279.625 226.436 283.84 225.802 288.048 225.302C314.802 222.134 342.562 224.488 367.278 236.059C391.995 247.63 413.395 269.091 422.677 296.534C427.911 312.007 429.196 328.739 429.063 345.225H429.07Z" fill="#FF834D"/>
<path style="mix-blend-mode:overlay" opacity="0.65" d="M429.07 345.225C428.764 383.546 419.661 424.261 393.573 450.057C380.549 462.935 364.162 471.111 346.897 475.319C345.725 474.519 344.606 473.625 343.561 472.638C328.779 458.733 331.569 432.297 335.457 414.444C337.834 403.54 342.469 392.903 350.213 384.88C363.463 371.148 384.298 366.393 396.53 351.741C407.796 338.249 409.327 318.302 403.121 301.856C396.916 285.41 383.932 272.226 369.196 262.675C342.262 245.216 309.755 235.766 278.913 228.076C278.141 227.883 276.949 227.609 275.464 227.263C279.639 226.429 283.854 225.795 288.062 225.295C314.816 222.127 342.575 224.482 367.292 236.052C392.008 247.623 413.409 269.084 422.691 296.528C427.925 312 429.21 328.733 429.077 345.219L429.07 345.225Z" fill="url(#paint0_linear_151_6793)"/>
<path style="mix-blend-mode:overlay" opacity="0.65" d="M429.069 345.225C428.763 383.546 419.661 424.261 393.573 450.057C375.634 467.79 351.317 476.607 327.12 478.441C302.923 480.268 278.693 475.593 255.188 469.09C238.635 464.515 222.155 459 205.122 457.646C180.193 455.679 155.49 462.715 131.332 469.697C124.368 471.711 116.397 475.433 109.159 475.613C103.759 475.746 98.1129 473.705 92.6662 473.292C85.1621 472.712 77.6645 471.991 70.2536 470.518C63.7948 469.237 54.9922 463.729 48.7931 463.729C36.5281 458.013 25.3084 448.049 19.0494 435.518C18.9428 429.303 20.4011 423.154 23.7436 417.912C32.9125 403.54 53.0412 400.119 69.5678 404.247C86.0943 408.375 100.477 418.279 115.845 425.628C131.213 432.984 149.39 437.786 165.085 431.163C189.561 420.846 197.079 388.214 219.838 374.503C241.984 361.158 270.057 369.868 295.865 371.268C302.597 371.635 309.528 371.435 315.807 368.974C322.1 366.513 327.38 361.891 331.502 356.53C342.069 342.771 345.178 324.098 341.723 307.085C338.267 290.079 328.725 274.706 316.54 262.369C307.764 253.485 297.45 246.196 286.263 240.681C277.994 236.599 269.251 233.478 260.275 231.351C269.251 228.21 278.653 226.416 288.041 225.302C314.795 222.134 342.555 224.488 367.271 236.059C391.988 247.63 413.388 269.091 422.67 296.534C427.904 312.007 429.189 328.739 429.056 345.225H429.069Z" fill="url(#paint1_linear_151_6793)"/>
<path d="M139.543 320.396C155.384 313.974 170.572 304.617 181.365 290.752C187.984 282.249 192.811 269.911 187.458 260.461C184.468 255.179 178.782 252.058 173.022 251.251C167.262 250.444 161.41 251.685 155.863 253.512C125.686 263.469 103.24 289.739 82.3593 314.901C70.4005 329.313 89.99 329.873 99.2986 329.553C113.082 329.073 126.692 325.612 139.543 320.403V320.396Z" fill="url(#paint2_linear_151_6793)"/>
<path d="M215.763 293.473C211.595 278.981 212.274 263.562 214.658 248.624C216.895 234.585 222.062 220.407 216.149 207.442C207.586 188.669 183.369 181.439 164.259 185.641C145.329 189.796 125.833 205.508 117.729 223.288C115.386 228.43 114.4 234.439 116.025 239.394C118.435 246.75 126.079 250.271 133.603 250.144C141.381 250.011 149.278 246.816 157.434 244.349C165.864 241.801 175.299 240.034 183.689 243.182C191.073 245.956 196.86 252.565 198.691 260.515C200.948 270.312 198.624 281.029 198.83 291.126C199.057 302.15 200.688 313.467 205.882 323.938C212.014 336.302 223.061 347.113 236.544 354.549C253.244 363.766 275.99 369.768 295.726 365.593C300.64 364.552 307.298 360.278 302.031 355.483C297.783 351.614 283.76 350.887 278.447 349.5C254.802 343.331 235.199 328.773 224.033 311.607C220.204 305.724 217.534 299.656 215.763 293.48V293.473Z" fill="#F47A83"/>
<path d="M337.321 408.595C346.816 413.19 354.653 420.893 361.452 429.309C367.871 437.259 372.838 446.709 383.132 450.324C389.224 452.464 396.016 452.204 402.442 450.757C410.692 448.903 418.649 445.075 424.948 439.266C438.551 426.735 443.978 401.146 437.672 384.606C435.928 380.031 432.532 375.943 427.897 374.349C421.119 372.022 413.308 375.556 408.188 380.845C403.061 386.147 399.905 392.989 396.229 399.425C392.54 405.881 387.893 412.336 381.168 415.498C375.421 418.199 368.563 418.065 363.203 415.151C356.691 411.616 352.056 405.174 346.53 400.459C340.55 395.364 333.832 390.989 326.081 389.095C317.186 386.92 307.378 388.201 298.688 392.176C288.487 396.837 278.346 405.441 274.052 416.191C273.02 418.779 272.82 423.374 276.389 423.027C279.312 422.747 284.053 416.805 286.39 414.944C297.27 406.288 311.486 402.746 324.483 404.62C329.091 405.287 333.359 406.661 337.328 408.582L337.321 408.595Z" fill="#CBEAA2"/>
<path d="M219.938 373.429C210.929 380.852 198.231 387.881 187.025 385.8C179.094 384.326 173.288 378.297 168.853 371.902C164.938 366.26 160.211 353.622 152.414 352.975C149.144 352.702 145.782 354.849 143.325 357.443C135.9 365.266 134.629 377.397 138.81 386.12C143.018 394.903 151.821 400.459 161.416 402.926C176.371 406.781 193.317 403.74 208.039 396.037C219.818 389.875 230.192 380.805 238.415 370.295C241.139 366.813 243.662 363.112 245.114 359.05C246.039 356.456 247.051 341.271 240.992 347.113C240.093 347.98 239.534 349.107 238.955 350.201C234.46 358.75 227.815 366.94 219.938 373.429Z" fill="#CBEAA2"/>
<path d="M307.099 208.696C307.099 208.696 331.755 208.636 330.677 230.377C329.585 252.472 314.283 258.527 302.225 261.001C312.605 260.088 323.146 258.234 333.1 254.499C340.824 251.605 348.348 248.063 352.983 241.068C356.006 236.506 357.291 231.171 357.544 225.982C357.77 221.307 357.364 216.632 355.706 212.344C354.215 208.482 346.284 199.206 342.775 197.098C339.626 195.211 339.326 199.753 335.591 199.973C327.274 200.466 318.405 202.92 310.754 206.575C310.048 206.908 307.758 208.689 307.105 208.689L307.099 208.696Z" fill="#A8CE6B"/>
<path d="M234.041 238.693C241.591 217.106 262.3 201.807 283.88 194.484C294.78 190.789 306.299 188.862 317.532 189.195C323.645 189.375 329.364 190.436 334.838 192.737C337.767 193.964 340.557 195.478 343.074 197.318C345.085 198.786 347.269 201.046 349.779 203.727C326.941 194.164 295.246 209.83 286.603 235.199C280.757 252.358 284.046 269.745 291.923 284.81C295.106 290.906 297.923 297.868 296.065 304.931C294.893 309.386 291.97 313.36 288.714 316.855C283.274 322.691 275.883 327.819 268.232 327.372C257.119 326.719 250.441 315.054 245.134 307.172C238.362 297.121 233.401 285.77 231.284 273.766C229.22 262.042 230.132 249.864 234.034 238.707L234.041 238.693Z" fill="#CBEAA2"/>
<path d="M407.489 315.188C407.489 315.188 407.356 330.794 392.514 331.767C377.706 332.734 373.864 323.678 372.372 316.408C372.851 322.757 373.957 329.16 376.321 335.082C378.165 339.697 380.442 344.165 385.09 346.599C388.133 348.193 391.735 348.64 395.264 348.447C398.454 348.267 401.663 347.686 404.626 346.326C407.303 345.099 413.788 339.357 415.28 336.956C416.618 334.802 413.455 334.948 413.322 332.581C413.036 327.319 411.391 321.877 408.921 317.329C408.694 316.909 407.489 315.608 407.489 315.195V315.188Z" fill="#EFB21B"/>
<path d="M417.444 299.315C408.402 273.059 379.497 264.496 354.241 278.675C319.044 301.203 292.463 332.801 246.579 325.665C250.774 344.058 274.046 347.166 291.371 346.446C316.121 347.573 334.352 329.306 353.655 315.575C361.213 310.653 369.249 307.152 377.706 304.284C399.28 299.996 419.595 322.117 410.619 341.918C423.65 330.887 422.544 312.967 417.437 299.315H417.444Z" fill="#FFC82C"/>
<path d="M116.397 293.407C116.397 293.407 126.985 281.376 137.372 289.025C147.839 296.735 144.397 306.118 140.528 312.807C144.457 307.438 147.979 301.716 150.309 295.694C152.114 291.032 153.519 286.271 152.027 281.769C151.055 278.835 148.971 276.474 146.527 274.66C144.317 273.019 141.84 271.679 139.017 271.059C136.473 270.505 128.476 271.245 125.919 272.232C123.622 273.126 125.773 274.78 124.281 276.654C120.952 280.849 118.368 285.971 116.91 290.919C116.777 291.373 116.684 293.08 116.397 293.4V293.407Z" fill="#D67BC9"/>
<path d="M99.005 300.169C86.4803 326.685 99.6709 351.454 126.938 355.022C166.896 357.623 206.554 347.213 235.152 382.032C243.755 363.385 228.873 346.399 216.062 336.489C199.416 320.79 174.966 324.838 152.633 324.551C144.183 324.071 136.366 322.144 128.729 319.456C111.41 310.206 113.201 281.149 132.224 271.058C116.464 272.172 105.078 286.544 99.0117 300.169H99.005Z" fill="#DD97D0"/>
<path d="M283.747 358.137C290.459 358.37 297.217 356.329 303.556 353.869C325.796 345.225 346.217 329.613 352.203 309.833C361.359 279.568 334.864 251.071 341.07 221.734C346.417 196.458 387.161 167.341 417.45 182.386C430.108 188.675 435.435 202.24 433.185 214.398C429.056 236.679 400.125 232.358 381.468 239.814C373.804 242.882 367.445 248.39 364.096 254.899C357.623 267.464 362.571 281.362 362.857 294.947C363.257 314.121 353.555 334.081 336.709 348.373C326.768 356.81 314.163 363.359 300.686 365.026C292.356 366.053 267.054 363.872 267.267 354.409C272.887 355.302 277.714 357.937 283.747 358.15V358.137Z" fill="#DD97D0"/>
<path d="M414.507 249.357C413.628 250.931 413.135 252.732 413.075 254.566C412.949 258.534 414.687 262.322 417.157 265.43C420.553 269.698 425.234 272.806 428.916 276.881C432.478 280.815 435.528 285.297 437.133 290.399C439.723 298.622 438.358 307.872 434.662 316.021C430.947 324.211 406.363 350.667 399.771 357.21C404.512 353.395 427.897 330.327 432.578 326.559C435.754 324.004 436.014 324.431 438.418 321.183C440.488 318.389 446.468 308.265 447.813 305.124C452.74 293.573 455.956 285.024 454.764 272.659C453.486 259.408 444.177 249.604 431.466 245.402C428.243 244.335 424.748 243.602 421.339 244.309C418.229 244.956 415.885 246.883 414.5 249.364L414.507 249.357Z" fill="#F45B6D"/>
<path d="M299.801 361.558C333.833 366.793 369.389 355.896 402.589 343.098C411.598 339.623 420.713 335.909 428.171 329.813C436.388 323.104 442.041 312.9 447.814 305.118C443.952 314.348 443.04 316.282 440.243 321.55C437.227 327.226 433.804 332.741 429.882 337.936C425.687 343.498 420.873 348.32 415.839 353.195C411.085 357.803 404.999 361.431 399.333 364.966C385.856 373.382 371.394 380.378 356.186 384.853C342.362 388.921 328.579 390.362 314.496 390.602C301.799 390.822 289.074 388.228 278.767 381.492C271.629 376.83 260.682 363.986 268.772 354.435C273.107 349.327 276.956 352.321 281.084 354.882C286.85 358.457 292.869 360.484 299.788 361.545L299.801 361.558Z" fill="#F47A83"/>
<path style="mix-blend-mode:overlay" opacity="0.65" d="M402.722 354.736C410.645 351.194 418.13 346.919 424.182 341.417C415.999 348.86 405.811 355.029 396.436 360.878C384.77 368.147 372.359 375.09 359.035 378.944C351.351 381.172 343.308 382.332 335.63 379.411C334.365 378.931 333.06 378.291 332.388 377.144C332.194 376.817 332.061 376.423 332.154 376.057C332.334 375.396 333.127 375.136 333.799 374.983C348.182 371.695 362.378 367.82 376.68 364.319C385.023 361.565 394.126 358.584 402.722 354.742V354.736Z" fill="url(#paint3_linear_151_6793)"/>
<path style="mix-blend-mode:overlay" opacity="0.65" d="M347.276 229.29C347.695 216.332 352.876 204.394 363.33 195.798C374.289 186.788 390.317 181.553 404.506 182.686C408.175 182.98 411.924 183.673 415.02 185.661C418.116 187.648 420.447 191.169 420.14 194.844C419.361 204.274 404.353 207.735 397.048 209.99C387.374 212.977 377.193 215.352 368.81 221.334C363.363 225.222 359.008 230.584 356.158 236.633C354.733 239.66 353.675 242.862 353.042 246.149C352.496 248.99 353.189 253.039 351.131 255.273C351.244 255.153 349.12 247.57 348.98 246.796C348.341 243.155 347.769 239.5 347.449 235.819C347.256 233.618 347.196 231.437 347.262 229.283L347.276 229.29Z" fill="url(#paint4_linear_151_6793)"/>
<path d="M262.186 235.892C262.892 235.872 263.638 235.839 264.244 235.466C264.87 235.079 265.229 234.385 265.576 233.738C270.15 225.162 277.421 218.399 284.552 211.81C292.429 204.534 300.892 196.952 311.42 194.951C297.13 193.47 282.641 197.959 270.443 205.568C261.487 211.163 253.617 218.379 246.639 226.282C236.591 237.66 255.361 236.079 262.186 235.892Z" fill="url(#paint5_linear_151_6793)"/>
<path d="M112.649 315.495C117.949 326.779 129.821 334.348 142.219 335.555C144.716 335.795 147.293 335.822 149.624 336.756C151.954 337.689 154.032 339.85 153.938 342.358C153.839 345.012 151.461 346.993 149.091 348.187C142.466 351.521 134.669 351.481 127.298 350.667C120.299 349.9 113.062 348.367 107.608 343.918C102.042 339.377 99.0187 332.234 98.3529 325.071C97.687 317.915 99.1719 310.713 101.349 303.864C102.648 299.789 108.314 283.516 114.46 285.51C110.485 295.641 107.655 304.831 112.655 315.488L112.649 315.495Z" fill="url(#paint6_linear_151_6793)"/>
<path d="M128.81 216.545C125.986 221.02 124.002 227.336 127.584 231.237C129.575 233.411 132.725 234.065 135.675 234.198C141.82 234.465 148.039 232.911 153.333 229.77C158.327 226.816 162.409 222.567 167.05 219.086C172.49 215.005 178.715 211.984 185.287 210.236C191.28 208.642 197.859 208.156 203.532 210.67C209.205 213.177 213.58 219.32 212.514 225.435C215.264 220.567 215.404 214.438 213.373 209.229C211.342 204.021 207.287 199.733 202.473 196.911C198.158 194.384 193.271 192.983 188.364 192.016C165.372 187.501 141.581 196.305 128.816 216.532L128.81 216.545Z" fill="url(#paint7_linear_151_6793)"/>
<path d="M247.258 406.101C246.126 413.457 241.459 420.386 234.66 423.394C231.811 424.654 228.694 425.214 225.598 425.575C221.756 426.015 217.748 426.141 214.145 424.721C212.854 424.214 211.622 423.46 210.57 422.527C208.699 420.866 207.394 418.625 207.294 416.144C207.254 415.124 207.46 414.01 208.213 413.317C208.665 412.89 209.271 412.677 209.851 412.463C217.535 409.649 225.239 405.721 229.913 398.998C232.689 395.01 234.254 390.202 237.49 386.574C239.807 383.973 241.565 384.56 242.917 386.22C244.022 387.574 244.848 389.648 245.474 391.282C247.272 395.977 248.024 401.106 247.258 406.094V406.101Z" fill="#EFAF20"/>
<path style="mix-blend-mode:overlay" opacity="0.65" d="M247.258 406.101C246.126 413.457 241.458 420.386 234.66 423.394C231.81 424.654 228.694 425.214 225.598 425.575C221.756 426.015 217.747 426.141 214.145 424.721C212.853 424.214 211.621 423.46 210.569 422.527C211.768 420.093 215.044 419.146 217.761 418.239C224.998 415.811 231.184 410.682 235.512 404.387C239.061 399.225 241.498 393.216 242.777 387.087C242.837 386.814 242.877 386.52 242.917 386.22C244.022 387.574 244.848 389.648 245.473 391.282C247.271 395.977 248.024 401.106 247.258 406.094V406.101Z" fill="url(#paint8_linear_151_6793)"/>
<path d="M324.011 419.486C323.685 422.947 323.272 426.528 321.494 429.516C320.622 430.99 319.443 432.264 318.145 433.384C310.794 439.733 300.353 435.351 290.645 435.525C289.879 435.538 289.107 435.525 288.341 435.478C281.496 435.098 274.645 432.697 267.806 432.49C261.68 432.31 255.481 432.117 249.622 430.323C248.357 429.936 247.045 429.429 246.219 428.396C245.54 427.542 245.28 426.442 245.047 425.381C243.389 417.865 242.118 410.269 241.225 402.62C240.773 398.718 240.413 394.81 240.16 390.889C239.94 387.527 239.081 384.246 241.645 381.645C247.098 376.11 254.136 372.389 261.368 369.561C266.448 367.567 271.755 365.973 277.142 365.059C283.014 364.066 288.974 363.872 294.833 364.872C306.08 366.786 316.88 373.596 321.574 384.006C325.376 392.436 324.883 410.276 324.004 419.486H324.011Z" fill="url(#paint9_linear_151_6793)"/>
<path style="mix-blend-mode:overlay" opacity="0.65" d="M324.011 419.486C323.685 422.947 323.272 426.528 321.494 429.516C320.622 430.99 319.443 432.264 318.145 433.384C310.794 439.733 300.353 435.351 290.645 435.525C289.879 435.538 289.107 435.525 288.341 435.478C288.647 434.471 289.08 433.491 289.553 432.55C293.262 425.021 299.467 417.865 298.628 409.515C297.989 403.113 293.288 397.938 288.581 393.57C283.873 389.195 278.699 384.82 276.555 378.758C274.991 374.343 275.324 369.387 277.141 365.066C283.014 364.072 288.974 363.879 294.833 364.879C306.079 366.793 316.88 373.602 321.574 384.013C325.376 392.443 324.883 410.282 324.004 419.492L324.011 419.486Z" fill="url(#paint10_linear_151_6793)"/>
<path d="M427.731 438.713L81.1536 420.486C81.1536 420.486 70.2003 422.24 78.5568 426.688C86.9066 431.137 85.1754 435.091 61.0115 434.451C36.8477 433.811 -1.11936 445.649 20.0681 449.283C41.2556 452.918 80.581 460.007 59.9928 463.662C39.4112 467.323 17.8242 479.914 33.5717 484.443C42.887 487.124 65.0067 509.999 123.176 513.727C163.347 516.301 240.453 499.982 261.833 501.375C314.176 504.783 333.213 497.928 311.879 492.225C290.538 486.523 327.586 487.217 357.37 488.164C387.154 489.111 428.73 481.675 416.058 467.663C403.381 453.651 420.806 449.61 430.161 450.337C439.523 451.064 443.984 439.56 427.738 438.699L427.731 438.713Z" fill="url(#paint11_linear_151_6793)"/>
<path opacity="0.28" d="M209.105 492.766C209.105 493.973 201.487 494.946 192.099 494.946C182.71 494.946 175.093 493.973 175.093 492.766C175.093 491.559 182.71 490.585 192.099 490.585C201.487 490.585 209.105 491.559 209.105 492.766Z" fill="#38190E"/>
<path opacity="0.28" d="M220.065 479.487L209.591 481.195L260.822 499.635L326.435 475.326L268.492 462.595L220.065 479.487Z" fill="#38190E"/>
<path opacity="0.28" d="M286.464 435.498L265.929 459.24L374.683 466.243L385.243 444.481L286.464 435.498Z" fill="#38190E"/>
<path opacity="0.28" d="M77.625 475.326L80.3617 483.376L106.849 489.911L154.391 469.897H115.219L77.625 475.326Z" fill="#38190E"/>
<path opacity="0.28" d="M166.929 447.783L200.355 429.869L269.99 433.584C271.348 433.604 272.114 435.151 271.308 436.245L254.829 457.519C253.171 459.767 250.441 460.947 247.677 460.621L167.568 451.137C165.837 450.93 165.398 448.616 166.929 447.789V447.783Z" fill="#38190E"/>
<path d="M334.372 423.454C329.977 422 325.463 420.913 320.895 420.213C317.752 419.732 314.583 419.432 311.406 419.312C320.169 395.137 309.529 391.576 289.7 382.486C278.773 376.77 282.641 367.04 290.572 363.812C293.648 362.558 297.33 362.285 301.006 363.599C321.401 367.914 338.16 386.334 338.307 407.561C338.354 409.389 337.581 424.508 334.378 423.44L334.372 423.454Z" fill="#FFC229"/>
<path style="mix-blend-mode:overlay" opacity="0.65" d="M320.895 420.219C317.752 419.739 314.583 419.439 311.406 419.319C320.169 395.144 309.529 391.582 289.7 382.492C278.773 376.777 282.641 367.047 290.572 363.819C290.139 365.039 289.953 366.36 290.026 367.654C290.219 371.075 292.03 374.263 294.46 376.677C296.891 379.091 299.907 380.825 302.97 382.359C308.423 385.087 314.176 387.294 319.25 390.675C321.174 391.962 323.032 393.45 324.231 395.437C325.216 397.064 325.702 398.952 325.975 400.832C326.941 407.628 325.016 414.757 320.895 420.219Z" fill="url(#paint12_linear_151_6793)"/>
<path d="M260.888 391.155C264.371 391.049 267.873 390.235 270.31 389.315C277.362 386.64 288.222 378.611 287.243 369.901C284.839 369.394 282.402 370.401 280.158 371.402C272.461 374.816 264.804 378.324 257.193 381.919C255.209 382.852 248.057 384.713 250.501 387.667C252.785 390.428 256.827 391.275 260.895 391.149L260.888 391.155Z" fill="#F4A490"/>
<path d="M166.929 446.562L200.355 428.649L269.99 432.364C271.348 432.384 272.114 433.931 271.308 435.025L254.829 456.299C253.171 458.546 250.441 459.727 247.677 459.4L167.568 449.917C165.837 449.71 165.398 447.396 166.929 446.569V446.562Z" fill="#5B311B"/>
<path d="M262.493 443.955C262.493 444.595 261.741 445.115 260.822 445.115C259.903 445.115 259.15 444.595 259.15 443.955C259.15 443.314 259.903 442.794 260.822 442.794C261.741 442.794 262.493 443.314 262.493 443.955Z" fill="#38190E"/>
<path d="M171.93 445.889L200.302 429.99L263.319 433.357C264.464 433.384 265.116 434.931 264.437 436.025L250.001 453.705C248.616 455.946 246.319 457.119 243.989 456.779L172.476 449.243C168.954 448.923 168.914 447.282 171.923 445.889H171.93Z" fill="#38190E"/>
<path d="M197.678 435.358C198.497 435.692 199.403 435.752 200.295 435.778C203.857 435.892 207.606 435.585 210.596 433.651C211.242 433.237 211.848 432.737 212.247 432.084C212.753 431.25 212.86 430.243 212.946 429.269C213.08 427.789 213.166 426.248 212.627 424.861C211.595 422.213 208.412 420.886 205.595 421.246C202.779 421.606 200.308 423.3 198.211 425.214C195.042 428.102 192.212 433.131 197.678 435.351V435.358Z" fill="#C66A58"/>
<path d="M217.627 428.882C217.201 429.949 216.575 431.057 215.756 431.844C215.077 432.497 214.258 432.937 213.306 432.951C211.602 432.977 210.157 431.537 209.604 429.916C209.051 428.302 209.204 426.542 209.358 424.841C208.752 428.522 207.293 432.237 204.41 434.598C201.534 436.965 197.006 437.552 194.11 435.211C192.998 434.311 192.159 433.191 191.566 431.924C188.743 425.921 191.453 416.758 196.786 413.617C199.689 411.903 203.185 411.416 206.541 411.903C207.6 412.056 208.645 412.31 209.651 412.643C209.757 412.677 209.87 412.717 209.977 412.757C214.138 414.25 217.934 417.532 218.666 421.88C219.059 424.234 218.526 426.668 217.634 428.882H217.627Z" fill="#FFC1B0"/>
<path style="mix-blend-mode:overlay" opacity="0.65" d="M215.757 431.837C215.078 432.49 214.259 432.931 213.307 432.944C211.602 432.971 210.157 431.53 209.604 429.909C209.052 428.296 209.205 426.535 209.358 424.834C208.752 428.516 207.294 432.23 204.411 434.591C201.534 436.959 197.006 437.546 194.11 435.205C192.998 434.304 192.159 433.184 191.566 431.917C192.852 432.11 194.183 432.03 195.448 431.73C197.812 431.17 199.956 429.903 201.9 428.449C204.025 426.855 206.029 424.908 206.881 422.387C207.713 419.912 207.334 417.212 206.948 414.624C206.808 413.71 206.675 412.803 206.535 411.896C207.594 412.05 208.639 412.303 209.644 412.636C209.751 412.67 209.864 412.71 209.971 412.75C210.25 415.271 210.077 417.992 210.17 420.486C210.27 423.2 210.403 426.028 211.689 428.422C212.541 430.01 214.066 431.343 215.75 431.83L215.757 431.837Z" fill="url(#paint13_linear_151_6793)"/>
<path d="M208.299 436.919C208.299 436.919 200.795 394.25 200.735 393.903C200.362 391.769 204.078 392.116 204.73 393.443C204.85 393.683 204.837 394.216 204.877 394.51C205.203 396.871 205.523 399.225 205.849 401.586C206.888 409.175 207.933 416.765 208.972 424.354C209.544 428.542 210.124 432.73 210.696 436.919L210.363 438.706C210.29 439.113 209.751 439.219 209.531 438.866L208.293 436.912L208.299 436.919Z" fill="#5B311B"/>
<path style="mix-blend-mode:overlay" opacity="0.65" d="M202.02 393.436C201.414 393.956 202.02 397.778 202.02 397.778L208.785 436.178C208.785 436.178 209.132 437.212 209.391 436.692C209.651 436.178 202.02 393.436 202.02 393.436Z" fill="url(#paint14_linear_151_6793)"/>
<path d="M291.79 433.304L287.988 438.439L281.137 437.992L285.225 432.924L291.79 433.304Z" fill="url(#paint15_linear_151_6793)"/>
<path d="M299.201 433.744L295.373 438.919L287.988 438.439L291.79 433.304L299.201 433.744Z" fill="url(#paint16_linear_151_6793)"/>
<path d="M329.204 435.498L325.236 440.853L317.745 440.367L321.68 435.058L329.204 435.498Z" fill="url(#paint17_linear_151_6793)"/>
<path d="M336.21 435.905L332.214 441.307L325.236 440.853L329.205 435.498L336.21 435.905Z" fill="url(#paint18_linear_151_6793)"/>
<path d="M343.741 436.352L339.832 441.8L332.215 441.307L336.21 435.905L343.741 436.352Z" fill="url(#paint19_linear_151_6793)"/>
<path d="M350.938 436.772V436.865L347.19 442.274L339.832 441.8L343.741 436.352L350.938 436.772Z" fill="url(#paint20_linear_151_6793)"/>
<path d="M357.683 437.165L354.014 442.721L347.189 442.274L350.938 436.865V436.772L357.683 437.165Z" fill="url(#paint21_linear_151_6793)"/>
<path d="M371.733 437.986L368.404 443.654L360.64 443.148L364.135 437.546H364.142L371.733 437.986Z" fill="url(#paint22_linear_151_6793)"/>
<path d="M384.038 438.706L381.135 444.481L375.169 444.088L378.525 438.386L384.038 438.706Z" fill="url(#paint23_linear_151_6793)"/>
<path d="M381.135 444.481L378.538 449.643L372.146 449.23L375.168 444.088L381.135 444.481Z" fill="url(#paint24_linear_151_6793)"/>
<path d="M375.169 444.088L372.146 449.23L365.381 448.79L368.404 443.654L375.169 444.088Z" fill="url(#paint25_linear_151_6793)"/>
<path d="M368.403 443.654L365.38 448.79L357.443 448.276L360.639 443.148L368.403 443.654Z" fill="url(#paint26_linear_151_6793)"/>
<path d="M360.64 443.148L357.444 448.276L350.646 447.836L354.015 442.721L360.64 443.148Z" fill="url(#paint27_linear_151_6793)"/>
<path d="M354.014 442.721L350.645 447.836L343.66 447.382L347.189 442.274L354.014 442.721Z" fill="url(#paint28_linear_151_6793)"/>
<path d="M347.189 442.274L343.66 447.382L336.183 446.896L339.831 441.8L347.189 442.274Z" fill="url(#paint29_linear_151_6793)"/>
<path d="M339.831 441.8L336.183 446.896L328.445 446.395L332.214 441.307L339.831 441.8Z" fill="url(#paint30_linear_151_6793)"/>
<path d="M332.215 441.307L328.446 446.395L321.468 445.949L325.237 440.853L332.215 441.307Z" fill="url(#paint31_linear_151_6793)"/>
<path d="M325.236 440.853L321.467 445.949L313.977 445.462L317.745 440.367L325.236 440.853Z" fill="url(#paint32_linear_151_6793)"/>
<path d="M317.746 440.367L313.977 445.462L306.479 444.975L310.248 439.88L317.746 440.367Z" fill="url(#paint33_linear_151_6793)"/>
<path d="M310.248 439.88L306.479 444.975L298.988 444.488L302.757 439.4L310.248 439.88Z" fill="url(#paint34_linear_151_6793)"/>
<path d="M302.757 439.4L298.988 444.488L291.604 444.008L295.372 438.919L302.757 439.4Z" fill="url(#paint35_linear_151_6793)"/>
<path d="M287.989 438.439L284.22 443.528L277.049 443.061L281.137 437.992L287.989 438.439Z" fill="url(#paint36_linear_151_6793)"/>
<path d="M284.22 443.528L280.332 448.776L272.834 448.296L277.049 443.061L284.22 443.528Z" fill="url(#paint37_linear_151_6793)"/>
<path d="M378.538 449.643L375.861 454.972L369.036 454.532L372.146 449.23L378.538 449.643Z" fill="url(#paint38_linear_151_6793)"/>
<path d="M375.861 454.972L372.958 460.747L365.667 460.254L369.036 454.532L375.861 454.972Z" fill="url(#paint39_linear_151_6793)"/>
<path d="M369.036 454.532L365.667 460.254L358.908 459.8L362.264 454.092L369.036 454.532Z" fill="url(#paint40_linear_151_6793)"/>
<path d="M362.265 454.092L358.909 459.8L350.605 459.24L354.148 453.565L362.265 454.092Z" fill="url(#paint41_linear_151_6793)"/>
<path d="M354.147 453.565L350.605 459.24L343.44 458.753L347.163 453.111L354.147 453.565Z" fill="url(#paint42_linear_151_6793)"/>
<path d="M347.163 453.111L343.441 458.753L336.137 458.26L340.019 452.651L347.163 453.111Z" fill="url(#paint43_linear_151_6793)"/>
<path d="M340.018 452.651L336.136 458.26L328.426 457.739L332.421 452.157L340.018 452.651Z" fill="url(#paint44_linear_151_6793)"/>
<path d="M332.421 452.157L328.426 457.74L320.449 457.199L324.558 451.651L332.421 452.157Z" fill="url(#paint45_linear_151_6793)"/>
<path d="M324.558 451.651L320.449 457.199L313.484 456.726L317.579 451.19L324.558 451.651Z" fill="url(#paint46_linear_151_6793)"/>
<path d="M317.579 451.19L313.484 456.726L306.007 456.219L310.089 450.71L317.579 451.19Z" fill="url(#paint47_linear_151_6793)"/>
<path d="M310.089 450.71L306.007 456.219L298.529 455.712L302.598 450.224L310.089 450.71Z" fill="url(#paint48_linear_151_6793)"/>
<path d="M302.598 450.223L298.529 455.712L291.052 455.205L295.1 449.737L302.598 450.223Z" fill="url(#paint49_linear_151_6793)"/>
<path d="M295.1 449.737L291.052 455.205L284.014 454.732L284.047 454.212L287.716 449.256L295.1 449.737Z" fill="url(#paint50_linear_151_6793)"/>
<path d="M287.716 449.256L284.047 454.212L284.014 454.732L276.31 454.212L280.331 448.776L287.716 449.256Z" fill="url(#paint51_linear_151_6793)"/>
<path d="M280.331 448.776L276.309 454.212L268.492 453.685L272.834 448.296L280.331 448.776Z" fill="url(#paint52_linear_151_6793)"/>
<path d="M268.492 453.685V456.866L372.958 464.909V460.747L268.492 453.685Z" fill="#6D3C26"/>
<path d="M384.038 438.706L383.405 444.895L372.958 464.909V460.747L384.038 438.706Z" fill="#5B311B"/>
<path style="mix-blend-mode:overlay" opacity="0.65" d="M115.831 465.722L146.121 467.877L105.97 487.23C105.97 487.23 90.2957 486.197 82.5851 485.123C74.8479 484.042 70.9393 474.512 68.9351 463.715C64.9333 442.207 70.8661 424.674 73.2432 410.316C74.5416 402.46 78.53 399.405 80.0682 396.417C80.6475 395.29 81.0869 396.331 82.3787 396.304L102.847 394.103L105.923 393.576C105.923 393.576 97.4736 407.488 96.5947 435.572C95.769 462.048 101.449 472.718 101.449 472.718L115.845 465.722H115.831Z" fill="url(#paint53_linear_151_6793)"/>
<path d="M181.498 336.569L53.188 345.125C53.188 345.125 43.4998 365.653 43.1936 394.616C42.8939 423.287 52.2692 436.492 52.2692 436.492L169.852 453.951L181.492 336.569H181.498Z" fill="url(#paint54_linear_151_6793)"/>
<path d="M181.498 336.569L169.859 453.952C169.859 453.952 148.272 429.629 155.316 384.073C162.494 337.649 181.498 336.562 181.498 336.562V336.569Z" fill="url(#paint55_linear_151_6793)"/>
<path d="M114.932 465.309L147.033 468.717L103.579 485.37C103.579 485.37 87.9719 484.389 80.3678 483.376C72.7637 482.368 69.4478 473.559 68.0828 463.562C65.3594 443.548 69.0549 425.094 72.2843 411.503C74.0555 404.033 77.3648 397.891 79.096 395.01C79.7486 393.923 80.9338 393.236 82.2389 393.189L116.797 391.876L116.204 394.49C116.204 394.49 102.767 409.902 100.05 436.565C97.5136 461.448 101.322 469.724 101.322 469.724L114.932 465.302V465.309Z" fill="url(#paint56_linear_151_6793)"/>
<path d="M101.322 469.731C101.322 469.731 105.444 482.482 116.743 478.834C128.209 475.139 143.251 469.277 143.251 469.277L114.879 466.156L103.979 469.817C103.979 469.817 102.534 470.564 101.322 469.724V469.731Z" fill="url(#paint57_linear_151_6793)"/>
<path d="M10.8331 455.979C7.23748 457.179 3.62855 458.973 1.51779 462.121C-0.592969 465.269 -0.639578 470.051 2.27021 472.478C4.16123 474.052 6.87126 474.332 9.28165 473.839C11.692 473.345 13.9027 472.172 16.1133 471.084C25.3687 466.543 35.2766 463.335 45.4376 461.594C45.4309 460.507 45.4242 459.414 45.4176 458.326C34.3178 454.725 22.146 452.218 10.8398 455.986L10.8331 455.979Z" fill="#EDD6A2"/>
<path d="M419.622 455.139C417.178 456.899 415.986 460.621 417.75 463.062C418.53 464.135 419.728 464.815 420.64 465.776C423.816 469.09 422.798 474.452 421.572 478.881C428.384 480.461 435.296 476.326 440.023 471.171C441.775 469.264 443.379 467.143 444.218 464.689C445.051 462.235 445.024 459.38 443.652 457.179C442.281 454.965 439.744 453.685 437.187 453.238C432.632 452.438 423.47 452.358 419.615 455.139H419.622Z" fill="#EDD6A2"/>
<path d="M327.433 494.28C329.611 495.233 331.435 497.941 330.13 499.928C338.14 500.895 346.27 500.882 354.274 499.888C355.592 499.728 356.944 499.521 358.069 498.808C359.188 498.101 360.014 496.754 359.714 495.46C359.241 493.439 356.658 492.912 354.593 492.792C346.25 492.319 329.85 488.664 322.692 492.225C324.004 493.493 325.549 493.453 327.44 494.273L327.433 494.28Z" fill="#EDD6A2"/>
<path d="M295.373 438.919L291.604 444.008L284.22 443.528L287.988 438.439L295.373 438.919Z" fill="url(#paint58_linear_151_6793)"/>
<path d="M306.619 434.178L302.757 439.4L295.373 438.919L299.202 433.744L306.619 434.178Z" fill="url(#paint59_linear_151_6793)"/>
<path d="M314.15 434.618L310.248 439.88L302.757 439.4L306.619 434.178L314.15 434.618Z" fill="url(#paint60_linear_151_6793)"/>
<path d="M321.681 435.058L317.746 440.367L310.248 439.88L314.15 434.618L321.681 435.058Z" fill="url(#paint61_linear_151_6793)"/>
<path d="M364.136 437.546L360.64 443.148L354.015 442.721L357.684 437.165L364.136 437.546Z" fill="url(#paint62_linear_151_6793)"/>
<path d="M378.524 438.386L375.168 444.088L368.403 443.654L371.733 437.986L378.524 438.386Z" fill="url(#paint63_linear_151_6793)"/>
<path d="M291.604 444.008L287.715 449.256L280.331 448.776L284.22 443.528L291.604 444.008Z" fill="url(#paint64_linear_151_6793)"/>
<path d="M298.989 444.488L295.1 449.737L287.716 449.257L291.604 444.008L298.989 444.488Z" fill="url(#paint65_linear_151_6793)"/>
<path d="M313.977 445.462L310.089 450.71L302.598 450.223L306.48 444.975L313.977 445.462Z" fill="url(#paint66_linear_151_6793)"/>
<path d="M306.479 444.975L302.597 450.223L295.1 449.737L298.988 444.488L306.479 444.975Z" fill="url(#paint67_linear_151_6793)"/>
<path d="M321.467 445.949L317.579 451.191L310.088 450.71L313.976 445.462L321.467 445.949Z" fill="url(#paint68_linear_151_6793)"/>
<path d="M336.182 446.896L332.42 452.157L324.557 451.651L328.445 446.395L336.182 446.896Z" fill="url(#paint69_linear_151_6793)"/>
<path d="M328.446 446.395L324.557 451.651L317.579 451.191L321.468 445.949L328.446 446.395Z" fill="url(#paint70_linear_151_6793)"/>
<path d="M343.661 447.383L340.018 452.651L332.421 452.158L336.183 446.896L343.661 447.383Z" fill="url(#paint71_linear_151_6793)"/>
<path d="M350.646 447.836L347.163 453.111L340.019 452.651L343.661 447.382L350.646 447.836Z" fill="url(#paint72_linear_151_6793)"/>
<path d="M357.444 448.276L354.148 453.565L347.163 453.111L350.645 447.836L357.444 448.276Z" fill="url(#paint73_linear_151_6793)"/>
<path d="M365.38 448.79L362.264 454.092L354.147 453.565L357.443 448.276L365.38 448.79Z" fill="url(#paint74_linear_151_6793)"/>
<path d="M372.146 449.23L369.036 454.532L362.265 454.092L365.381 448.79L372.146 449.23Z" fill="url(#paint75_linear_151_6793)"/>
<path d="M334.545 422.52C333.586 427.575 331.841 432.47 329.391 436.945C328.639 438.319 327.467 439.833 325.969 439.586C325.483 439.506 325.063 439.233 324.723 438.859C324.344 438.426 324.078 437.866 323.964 437.285C323.791 436.418 323.898 435.525 324.058 434.651C324.091 434.438 324.138 434.224 324.177 434.018C322.819 435.692 321.314 437.245 319.696 438.639C319.15 439.106 318.558 439.573 317.865 439.7C316.893 439.873 315.974 439.3 315.382 438.459C315.095 438.052 314.889 437.592 314.782 437.112C314.503 435.832 314.776 434.511 315.115 433.231C315.168 433.031 315.222 432.844 315.275 432.65C314.003 434.078 312.731 435.505 311.46 436.925C311.047 437.386 310.614 437.866 310.048 438.092C309.182 438.446 308.204 438.399 307.485 437.972C306.965 437.666 306.586 437.165 306.479 436.479C306.253 435.031 308.237 432.57 308.337 431.403C308.35 431.237 308.33 431.097 308.257 430.997C307.238 431.93 305.467 434.104 304.475 435.338C303.862 436.105 302.897 436.605 301.925 436.699C301.339 436.752 300.806 436.499 300.466 436.085C300.193 435.752 300.047 435.305 300.094 434.838C300.253 433.351 301.019 431.683 301.665 430.57C304.641 425.488 308.61 418.805 314.736 418.239C318.178 417.918 321.667 418.145 325.05 418.885C325.536 418.992 328.079 419.679 330.41 420.459C332.621 421.2 334.645 422.027 334.551 422.513L334.545 422.52Z" fill="#FFC1B0"/>
<path style="mix-blend-mode:overlay" opacity="0.65" d="M334.545 422.52C333.586 427.575 331.842 432.47 329.391 436.945C328.639 438.319 327.467 439.833 325.969 439.586C325.483 439.506 325.063 439.233 324.724 438.859C327.294 434.611 329.478 430.003 330.323 425.081C330.497 424.067 330.29 422.067 330.397 420.459C332.607 421.2 334.632 422.027 334.538 422.513L334.545 422.52Z" fill="url(#paint76_linear_151_6793)"/>
<path style="mix-blend-mode:overlay" opacity="0.65" d="M326.868 426.582C326.841 429.383 325.762 432.09 324.211 434.418C324.158 434.498 324.104 434.571 324.051 434.651C324.084 434.438 324.131 434.231 324.171 434.018C322.813 435.692 321.308 437.245 319.69 438.639C319.144 439.106 318.551 439.573 317.859 439.7C316.886 439.873 315.968 439.3 315.375 438.459C315.475 438.306 315.595 438.146 315.735 437.986C317.566 435.918 320.609 433.177 321.947 430.703C323.379 428.049 323.086 426.088 324.863 423.654C325.03 423.427 325.223 423.187 325.496 423.12C326.129 422.96 326.555 423.754 326.681 424.401C326.814 425.121 326.881 425.848 326.874 426.582H326.868Z" fill="url(#paint77_linear_151_6793)"/>
<path style="mix-blend-mode:overlay" opacity="0.65" d="M316.561 430.336C316.248 431.37 315.695 432.31 315.102 433.231C315.156 433.037 315.209 432.844 315.262 432.65C313.99 434.078 312.719 435.505 311.447 436.925C311.034 437.385 310.601 437.866 310.035 438.092C309.17 438.446 308.191 438.399 307.472 437.972C308.391 436.752 310.368 435.625 311.027 434.805C311.693 433.978 312.213 433.051 312.732 432.124C313.438 430.87 314.15 429.616 314.856 428.362C315.229 427.709 315.622 427.028 316.261 426.635C316.927 427.722 316.927 429.116 316.561 430.33V430.336Z" fill="url(#paint78_linear_151_6793)"/>
<path style="mix-blend-mode:overlay" opacity="0.65" d="M309.595 429.683C309.389 430.143 309.063 430.53 308.743 430.91C308.603 431.076 308.463 431.237 308.324 431.403C308.337 431.237 308.317 431.096 308.244 430.996C307.225 431.93 305.454 434.104 304.462 435.338C303.849 436.105 302.883 436.605 301.911 436.699C301.325 436.752 300.793 436.498 300.453 436.085C301.445 434.738 303.476 433.424 304.315 432.264C305.687 430.363 306.785 428.275 308.084 426.315C308.237 426.081 308.417 425.835 308.683 425.741C309.069 425.615 309.489 425.881 309.675 426.241C309.862 426.595 309.875 427.022 309.882 427.422C309.895 428.182 309.902 428.976 309.595 429.669V429.683Z" fill="url(#paint79_linear_151_6793)"/>
<path d="M222.835 477.053L269.232 460.674L325.237 473.572L278.008 496.407L222.835 477.053Z" fill="#FFF1D7"/>
<path d="M212.707 478.974L259.11 462.595L315.115 475.493L267.886 498.328L212.707 478.974Z" fill="#F7E4C4"/>
<path d="M209.518 479.254L255.914 462.875L311.919 475.779L264.69 498.614L209.518 479.254Z" fill="#FFF1D7"/>
<path d="M211.143 478.16L258.578 465.096L313.538 481.922L264.817 501.362L211.143 478.16Z" fill="#F7E4C4"/>
<path d="M211.096 478.807L257.785 466.243L311.919 482.575L263.978 501.302L211.096 478.807Z" fill="#FFF1D7"/>
<path d="M314.336 314.774C314.083 318.216 313.471 322.897 311.999 327.866C311.766 328.666 311.506 329.48 311.22 330.293C307.438 341.137 294.321 341.411 294.321 341.411C294.321 341.411 290.485 340.15 287.655 337.436C286.63 336.456 285.744 335.282 285.218 333.908C284.812 332.848 284.306 331.387 283.74 329.713C283.108 327.852 282.409 325.725 281.709 323.598C279.958 318.289 278.194 312.96 277.421 311.627C277.082 311.033 276.622 310.226 276.149 309.279C275.484 307.959 274.784 306.365 274.338 304.731C274.325 304.684 274.312 304.637 274.305 304.597C274.105 303.83 273.952 303.057 273.892 302.296C273.819 301.369 273.866 300.469 274.099 299.629C274.119 299.535 274.145 299.449 274.179 299.355C275.504 295.201 308.15 301.249 314.476 309.179C314.476 309.179 314.589 311.36 314.343 314.781L314.336 314.774Z" fill="#894B30"/>
<path d="M315.122 347.64C309.642 360.538 294.321 358.644 294.321 358.644C292.723 366.26 284.573 378.171 266.828 384.186C259.65 386.62 251.04 387.881 242.331 387.674C239.281 387.601 236.218 387.347 233.202 386.907C232.516 386.807 231.83 386.694 231.151 386.574C221.443 384.84 212.354 381.045 205.842 374.756C198.724 367.88 195.135 358.07 193.411 348.313C192.259 341.811 191.846 335.208 191.293 328.633C190.947 324.591 190.088 317.842 190.434 312.4C190.461 311.913 190.507 311.433 190.554 310.966C190.714 309.539 190.974 308.239 191.38 307.158C192.951 302.917 197.752 301.149 206.355 300.036C210.203 299.535 214.818 299.169 220.238 298.762C235.519 297.628 253.85 299.082 262.626 300.222C263.925 300.396 265.017 300.556 265.856 300.703C269.032 301.256 271.981 302.677 274.345 304.731C274.412 304.791 274.478 304.851 274.545 304.911C275.364 305.644 276.103 306.458 276.762 307.338C276.769 307.345 276.776 307.358 276.782 307.365C276.922 307.552 277.055 307.745 277.182 307.938C277.488 308.392 277.768 308.865 278.027 309.352C278.64 310.513 279.113 311.76 279.419 313.087C280.911 319.576 287.829 322.851 287.829 322.851V336.796L294.321 338.476C294.321 338.476 295.047 333.554 298.036 330.027C298.11 329.94 298.183 329.853 298.256 329.773C298.429 329.573 298.616 329.386 298.809 329.2C298.929 329.08 299.048 328.973 299.175 328.859C299.195 328.839 299.222 328.819 299.241 328.806C299.321 328.733 299.401 328.666 299.488 328.599C299.514 328.579 299.541 328.559 299.568 328.533C299.634 328.479 299.708 328.426 299.781 328.373C299.874 328.299 299.967 328.233 300.061 328.166C300.14 328.106 300.227 328.046 300.314 327.992C300.433 327.912 300.553 327.839 300.673 327.766C300.773 327.706 300.866 327.652 300.966 327.599C301.073 327.539 301.179 327.486 301.286 327.432C301.392 327.379 301.505 327.326 301.619 327.279C301.725 327.232 301.832 327.185 301.945 327.145C301.952 327.145 301.965 327.139 301.978 327.132C302.431 326.959 302.917 326.812 303.423 326.705C303.55 326.679 303.683 326.652 303.809 326.632C303.942 326.612 304.076 326.592 304.215 326.572C304.349 326.559 304.488 326.545 304.628 326.532C305.274 326.479 305.953 326.485 306.672 326.559C308.723 326.765 310.501 327.212 311.999 327.886C318.132 330.647 319.523 337.296 315.122 347.66V347.64Z" fill="#FFC1B0"/>
<path style="mix-blend-mode:overlay" opacity="0.65" d="M315.123 347.64C309.643 360.538 294.321 358.644 294.321 358.644C292.723 366.26 284.573 378.171 266.828 384.186C259.65 386.62 251.041 387.881 242.331 387.674C239.282 387.601 236.219 387.347 233.202 386.907C233.289 386.907 233.376 386.9 233.462 386.894C244.715 386.347 256.001 382.759 264.711 375.603C273.42 368.447 279.293 357.543 279.206 346.259C279.113 334.982 272.548 323.684 262.254 319.103C254.077 315.468 244.735 316.175 235.786 316.462C226.391 316.762 216.982 316.508 207.62 315.708C202.953 315.308 198.212 314.748 193.924 312.854C192.745 312.333 191.607 311.7 190.548 310.96C190.708 309.532 190.967 308.232 191.374 307.152C193.644 301.016 202.686 300.056 220.238 298.755C235.52 297.621 253.851 299.075 262.627 300.216C263.925 300.389 265.017 300.549 265.856 300.696C269.032 301.249 271.982 302.67 274.346 304.724C274.412 304.784 274.479 304.844 274.545 304.904C275.364 305.638 276.103 306.451 276.763 307.332C276.769 307.338 276.776 307.352 276.783 307.358C276.922 307.545 277.056 307.738 277.182 307.932C277.488 308.385 277.768 308.859 278.028 309.346C278.64 310.506 279.113 311.753 279.419 313.08C280.911 319.569 287.829 322.844 287.829 322.844V336.789L294.321 338.47C294.321 338.47 295.047 333.548 298.037 330.02C298.11 329.933 298.183 329.846 298.256 329.766C298.43 329.566 298.616 329.38 298.809 329.193C298.929 329.073 299.049 328.966 299.175 328.853C299.195 328.833 299.222 328.813 299.242 328.799C299.322 328.726 299.402 328.659 299.488 328.593C299.515 328.573 299.542 328.553 299.568 328.526C299.635 328.473 299.708 328.419 299.781 328.366C299.875 328.293 299.968 328.226 300.061 328.159C300.141 328.099 300.227 328.039 300.314 327.986C300.434 327.906 300.554 327.832 300.674 327.759C300.773 327.699 300.867 327.646 300.967 327.592C301.073 327.532 301.18 327.479 301.286 327.426C301.393 327.372 301.506 327.319 301.619 327.272C301.726 327.225 301.832 327.179 301.945 327.139C301.952 327.139 301.965 327.132 301.979 327.125C302.431 326.952 302.917 326.805 303.424 326.699C303.55 326.672 303.683 326.645 303.81 326.625C303.943 326.605 304.076 326.585 304.216 326.565C304.349 326.552 304.489 326.539 304.629 326.525C305.275 326.472 305.954 326.479 306.673 326.552C308.724 326.759 310.502 327.205 312 327.879C318.132 330.64 319.524 337.289 315.123 347.653V347.64Z" fill="url(#paint80_linear_151_6793)"/>
<path style="mix-blend-mode:overlay" opacity="0.65" d="M314.337 314.774C314.084 318.216 313.471 322.897 311.999 327.866C318.132 330.627 319.524 337.276 315.122 347.64C309.642 360.538 294.321 358.644 294.321 358.644C292.723 366.26 284.573 378.171 266.828 384.186C259.65 386.62 251.04 387.881 242.331 387.674C254.41 384.293 265.45 377.03 274.865 368.54C278.087 365.633 281.244 362.465 282.975 358.484C285.079 353.648 284.853 348.06 283.408 342.985C282.056 338.243 279.712 333.861 277.322 329.546C277.155 329.246 276.989 328.946 276.822 328.653C275.977 327.132 275.131 325.612 274.292 324.091C272.128 320.196 269.971 316.308 267.807 312.413C267.194 311.313 266.581 310.206 265.996 309.079C264.524 306.251 263.232 303.337 262.626 300.222C262.606 300.109 262.58 299.996 262.56 299.876C261.581 294.32 263.232 290.472 266.455 287.891C276.296 280.022 300.773 284.07 309.662 288.131C314.396 290.285 318.878 293.22 322.12 297.295C322.52 297.795 322.899 298.315 323.252 298.855C324.158 305.798 323.126 313.24 316.307 316.442C315.788 315.721 315.269 315.001 314.749 314.281C314.696 314.481 314.55 314.688 314.337 314.774Z" fill="url(#paint81_linear_151_6793)"/>
<path style="mix-blend-mode:overlay" opacity="0.65" d="M305.021 331.634C307.771 330.24 311.96 330.327 313.411 333.514C313.997 334.802 314.057 336.262 313.937 337.669C313.724 340.217 313.424 342.784 312.306 345.105C311.041 347.726 308.584 349.354 306.313 351.034C305.374 351.734 304.469 352.495 303.423 353.035C299.109 355.276 296.379 350.461 296.725 346.606C297.477 339.637 299.974 334.181 305.015 331.62L305.021 331.634Z" fill="url(#paint82_linear_151_6793)"/>
<path style="mix-blend-mode:overlay" opacity="0.65" d="M231.151 386.574C221.443 384.84 212.354 381.045 205.842 374.756C198.724 367.88 195.135 358.07 193.411 348.313C192.259 341.811 191.846 335.208 191.293 328.633C190.947 324.591 190.088 317.842 190.434 312.4C190.461 311.913 190.507 311.433 190.554 310.966C190.714 309.539 190.974 308.239 191.38 307.158C192.951 302.917 197.752 301.149 206.355 300.036C204.723 304.304 203.851 308.785 203.358 313.414C202.067 325.698 202.866 338.196 205.716 350.214C207.214 356.529 209.298 362.772 212.707 368.294C217.295 375.73 223.993 381.459 231.151 386.58V386.574Z" fill="url(#paint83_linear_151_6793)"/>
<path d="M321.461 290.986C322.206 293.32 322.892 296.041 323.258 298.855C324.164 305.798 323.132 313.24 316.314 316.442C315.794 315.721 315.275 315.001 314.756 314.281C314.702 314.481 314.556 314.688 314.343 314.774C314.323 314.781 314.303 314.788 314.283 314.794C313.71 314.968 313.217 314.634 312.831 314.321C310.228 312.207 307.618 310.099 305.007 307.992C305.713 309.106 306.419 310.219 307.125 311.333C301.638 309.546 296.172 307.772 290.718 305.998C292.816 306.938 294.653 308.252 296.118 309.852C289.486 309.439 283.021 308.592 276.762 307.332C276.742 307.332 276.722 307.325 276.702 307.318C276.729 307.332 276.755 307.345 276.782 307.358C278.047 307.992 279.312 308.625 280.571 309.266C279.931 309.306 279.299 309.332 278.673 309.339C278.46 309.339 278.24 309.339 278.027 309.339C277.401 309.339 276.775 309.312 276.156 309.272C272.627 309.052 269.251 308.272 266.208 306.978C267.187 307.565 268.066 308.272 268.832 309.072C267.879 309.099 266.934 309.099 265.995 309.072C260.235 308.912 254.695 307.732 249.775 305.618C251.166 306.218 252.099 307.505 252.205 308.972C246.352 307.378 240.533 305.791 234.733 304.21C235.845 305.064 236.95 305.918 238.062 306.765C233.022 307.132 228.048 306.911 223.28 306.124C224.419 306.951 225.551 307.778 226.69 308.605C220.75 308.986 214.871 308.952 209.118 308.492C208.405 308.439 207.693 308.372 206.98 308.305C207.972 309.199 208.945 311.246 209.937 312.14C204.936 308.619 196.64 313.36 190.427 312.393C189.728 312.287 189.062 312.107 188.423 311.833C181.525 308.899 177.689 299.695 179.667 292.66C179.82 291.679 176.331 296.047 174.62 297.268C172.183 296.274 174.706 287.965 175.625 285.957C180.453 274.433 189.342 264.743 198.943 256.993C200.382 255.826 203.238 253.039 205.329 253.479C204.17 253.239 202.925 253.265 201.713 253.559C206.374 251.298 211.248 249.491 216.229 248.177C217.234 247.91 218.24 247.663 219.252 247.443C218.713 247.323 218.173 247.21 217.641 247.09C217.135 246.976 216.629 246.87 216.122 246.756C216.928 246.63 217.727 246.509 218.533 246.403C224.639 245.569 230.778 245.189 236.884 245.282C235.033 244.575 233.368 243.522 231.983 242.181C236.97 241.674 241.951 241.561 246.865 241.848C254.129 242.268 261.241 243.555 267.979 245.689C267.74 245.182 267.493 244.682 267.253 244.175C273.952 244.509 280.144 246.91 284.725 250.951C284.153 249.457 283.587 247.963 283.014 246.469C289.127 250.291 294.3 255.273 298.229 261.088C298.762 259.414 300.573 257.94 302.384 257.7C301.831 259.848 301.279 261.988 300.726 264.123C305.047 263.929 309.236 264.603 312.918 266.09C311.872 266.617 310.827 267.144 309.788 267.67C316.127 268.704 321.487 272.092 324.497 276.967C323.485 276.827 322.466 276.687 321.454 276.54C324.983 282.289 326.401 289.258 325.509 296.354C324.65 294.274 323.265 292.433 321.474 290.972L321.461 290.986Z" fill="url(#paint84_linear_151_6793)"/>
<path style="mix-blend-mode:overlay" opacity="0.32" d="M321.46 290.986C322.206 293.32 322.892 296.041 323.258 298.855C324.164 305.798 323.132 313.24 316.313 316.442C315.794 315.721 315.275 315.001 314.755 314.281C314.702 314.481 314.555 314.688 314.342 314.774C314.322 314.781 314.302 314.788 314.282 314.794C313.71 314.968 313.217 314.634 312.831 314.321C310.227 312.207 307.617 310.099 305.007 307.992C305.713 309.106 306.419 310.219 307.124 311.333C301.638 309.546 296.171 307.772 290.718 305.998C292.815 306.938 294.653 308.252 296.118 309.852C289.486 309.439 283.021 308.592 276.761 307.332C276.742 307.332 276.722 307.325 276.702 307.318C276.728 307.332 276.755 307.345 276.781 307.358C278.047 307.992 279.312 308.625 280.57 309.266C279.931 309.306 279.298 309.332 278.672 309.339C278.16 308.885 277.66 308.412 277.181 307.925C277.001 307.745 276.821 307.558 276.648 307.372C275.909 306.585 275.203 305.758 274.551 304.897C274.471 304.791 274.391 304.691 274.318 304.584C273.559 303.55 272.86 302.476 272.234 301.349C272.766 301.696 273.326 302.01 273.905 302.283C276.242 303.39 278.886 303.85 281.456 303.577C278.832 302.623 276.349 301.283 274.105 299.609C272.906 298.722 271.781 297.735 270.736 296.661C271.375 296.581 272.007 296.501 272.653 296.428C270.356 295.621 268.298 294.133 266.82 292.193C269.371 292.313 271.927 292.153 274.444 291.706C271.668 290.692 268.825 289.645 266.474 287.878C266.208 287.678 265.948 287.471 265.695 287.251C263.211 285.097 261.513 281.702 262.286 278.501C267.32 281.075 272.906 282.549 278.553 282.796C276.056 281.622 273.958 279.628 272.66 277.187C277.208 277.227 281.762 277.274 286.31 277.314C281.343 271.812 275.883 266.75 270.03 262.209C274.577 262.855 279.045 264.123 283.26 265.97C277.78 261.488 272.154 257.193 266.381 253.092C269.63 253.912 272.999 254.239 276.349 254.052C271.268 252.152 266.181 250.251 261.101 248.343C256.213 246.516 251.246 244.642 246.878 241.828C254.142 242.248 261.254 243.535 267.992 245.669C267.752 245.162 267.506 244.662 267.266 244.155C273.965 244.489 280.157 246.89 284.738 250.931C284.166 249.437 283.6 247.943 283.027 246.449C289.14 250.271 294.313 255.253 298.242 261.068C298.775 259.394 300.586 257.92 302.397 257.68C301.844 259.828 301.292 261.968 300.739 264.103C305.06 263.909 309.249 264.583 312.931 266.07C311.885 266.597 310.84 267.124 309.801 267.65C316.14 268.684 321.5 272.072 324.51 276.947C323.498 276.807 322.479 276.667 321.467 276.52C324.996 282.269 326.414 289.238 325.522 296.334C324.663 294.253 323.278 292.413 321.487 290.952L321.46 290.986Z" fill="url(#paint85_linear_151_6793)"/>
<path style="mix-blend-mode:overlay" opacity="0.65" d="M204.157 260.641C206.474 259.881 208.791 259.121 211.102 258.36C201.533 262.662 194.342 271.912 192.538 282.262C192.092 284.823 191.965 287.518 192.817 289.979C193.67 292.433 195.647 294.62 198.191 295.14C196.533 295.094 194.875 295.054 193.217 295.007C196.986 300.009 202.752 303.457 208.938 304.404C206.787 304.13 204.636 303.85 202.486 303.57C204.457 305.498 206.867 306.891 209.111 308.492C208.398 308.439 207.686 308.372 206.973 308.305C207.966 309.199 208.938 311.246 209.93 312.14C204.929 308.619 196.633 313.36 190.42 312.393C189.721 312.287 189.055 312.107 188.416 311.833C181.518 308.899 177.683 299.695 179.66 292.66C179.813 291.679 176.324 296.047 174.613 297.268C172.176 296.274 174.7 287.965 175.618 285.957C180.446 274.433 189.335 264.743 198.937 256.993C200.375 255.826 203.231 253.039 205.322 253.479C204.164 253.239 202.918 253.265 201.707 253.559C206.368 251.298 211.242 249.491 216.222 248.177C211.608 251.771 207.16 255.653 204.157 260.635V260.641Z" fill="url(#paint86_linear_151_6793)"/>
<path style="mix-blend-mode:overlay" opacity="0.65" d="M218.532 246.403C218.233 246.63 217.933 246.856 217.64 247.09C217.134 246.976 216.628 246.87 216.122 246.756C216.928 246.63 217.727 246.51 218.532 246.403Z" fill="url(#paint87_linear_151_6793)"/>
<path d="M192.764 323.244H223.826C226.243 323.244 228.208 325.211 228.208 327.632V340.704C228.208 346.739 223.314 351.641 217.288 351.641H200.182C193.67 351.641 188.383 346.346 188.383 339.823V327.632C188.383 325.211 190.347 323.244 192.764 323.244Z" fill="#5B311B"/>
<path d="M224.951 327.632V340.704C224.951 344.939 221.515 348.38 217.287 348.38H200.181C195.467 348.38 191.638 344.545 191.638 339.823V327.632C191.638 327.012 192.145 326.505 192.764 326.505H223.826C224.445 326.505 224.951 327.012 224.951 327.632Z" fill="white"/>
<path d="M265.036 351.641H247.297C241.045 351.641 235.971 346.559 235.971 340.297V326.739C235.971 324.224 238.009 322.19 240.512 322.19H272.726C275.237 322.19 277.268 324.231 277.268 326.739V339.383C277.268 346.146 271.781 351.641 265.029 351.641H265.036Z" fill="#5B311B"/>
<path d="M274.019 326.745V339.39C274.019 344.352 269.997 348.386 265.036 348.386H247.298C242.843 348.386 239.228 344.765 239.228 340.304V326.745C239.228 326.032 239.807 325.458 240.513 325.458H272.727C273.439 325.458 274.012 326.038 274.012 326.745H274.019Z" fill="white"/>
<path d="M236.244 336.102C231.677 332.567 227.209 335.949 227.016 336.102L224.998 333.534C227.262 331.74 232.942 329.433 238.229 333.521L236.238 336.102H236.244Z" fill="#5B311B"/>
<path d="M238.196 324.22L225.975 324.866L226.032 325.951L238.253 325.305L238.196 324.22Z" fill="#5B311B"/>
<path d="M305.487 326.479C302.058 326.479 299.647 328.072 297.969 330.093L287.828 329.82L275.883 329.5L273.865 322.644L287.828 324.338L305.487 326.479Z" fill="#5B311B"/>
<path d="M203.259 492.045C203.259 493.226 198.025 494.179 191.566 494.179C185.108 494.179 179.874 493.226 179.874 492.045C179.874 490.865 185.108 489.911 191.566 489.911C198.025 489.911 203.259 490.865 203.259 492.045Z" fill="url(#paint88_linear_151_6793)"/>
<path d="M191.567 492.045C195.207 492.045 198.159 491.347 198.159 490.485C198.159 489.623 195.207 488.924 191.567 488.924C187.926 488.924 184.975 489.623 184.975 490.485C184.975 491.347 187.926 492.045 191.567 492.045Z" fill="url(#paint89_linear_151_6793)"/>
<path d="M177.257 484.356C175.859 481.308 174.9 477.087 175.572 471.518H206.967C206.967 471.518 208.193 478.46 205.216 484.736C203.432 488.504 199.61 490.878 195.448 490.878H187.478C183.096 490.878 179.081 488.351 177.257 484.363V484.356Z" fill="url(#paint90_linear_151_6793)"/>
<path d="M206.967 471.511C206.967 472.405 199.943 473.125 191.273 473.125C182.604 473.125 175.579 472.398 175.579 471.511C175.579 470.624 182.604 469.897 191.273 469.897C199.943 469.897 206.967 470.624 206.967 471.511Z" fill="url(#paint91_linear_151_6793)"/>
<path d="M191.267 472.318C184.841 472.318 180.094 471.931 177.75 471.518C180.087 471.104 184.841 470.718 191.267 470.718C197.692 470.718 202.44 471.104 204.784 471.518C202.447 471.931 197.692 472.318 191.267 472.318Z" fill="#38190E"/>
<path d="M211.701 470.237C208.172 470.237 207.04 472.031 207.04 472.031C207.853 479.981 205.216 484.729 205.216 484.729C206.235 487.59 210.876 483.416 214.498 478.814C218.127 474.212 215.224 470.237 211.695 470.237H211.701ZM213.226 477.807C210.802 480.881 208.725 482.769 207.466 483.576C208.205 481.455 209.124 477.68 208.732 472.638C209.171 472.318 210.077 471.871 211.701 471.871C212.813 471.871 213.825 472.478 214.278 473.425C214.864 474.646 214.491 476.2 213.226 477.807Z" fill="url(#paint92_linear_151_6793)"/>
<path d="M187.89 467.423C187.89 467.423 181.551 464.075 185.12 457.9C188.689 451.724 185.12 447.656 185.12 447.656C185.12 447.656 190.434 449.69 187.844 455.585C185.253 461.481 185.54 464.895 187.89 467.416V467.423Z" fill="white"/>
<path d="M193.61 467.423C193.61 467.423 187.271 464.075 190.84 457.9C194.409 451.724 190.84 447.656 190.84 447.656C190.84 447.656 196.153 449.69 193.563 455.585C190.973 461.481 191.259 464.895 193.61 467.416V467.423Z" fill="white"/>
<path d="M199.33 467.423C199.33 467.423 192.991 464.075 196.56 457.9C200.129 451.724 196.56 447.656 196.56 447.656C196.56 447.656 201.873 449.69 199.283 455.585C196.693 461.481 196.979 464.895 199.33 467.416V467.423Z" fill="white"/>
<path d="M441.894 342.831L432.319 350.874L439.411 350.027L443.339 355.116L441.894 342.831Z" fill="#DD97D0"/>
<path d="M465.399 369.674L437.766 368.754V351.868H438.651V367.894L464.513 368.754V349.934L443.911 348.94L443.951 348.053L465.399 349.087V369.674Z" fill="#DD97D0"/>
<path d="M439.637 366.613H436.548V369.708H439.637V366.613Z" fill="#DD97D0"/>
<path d="M466.391 367.834H463.302V370.928H466.391V367.834Z" fill="#DD97D0"/>
<path d="M466.391 348.153H463.302V351.248H466.391V348.153Z" fill="#DD97D0"/>
<path d="M87.8858 203.441L77.625 210.583L84.763 210.39L88.2187 215.805L87.8858 203.441Z" fill="#F47A83"/>
<path d="M108.86 232.318L81.4199 228.89L82.958 212.07L83.837 212.15L82.3854 228.109L108.061 231.324L109.772 212.577L89.3436 209.716L89.4634 208.836L110.731 211.817L108.86 232.318Z" fill="#F47A83"/>
<path d="M83.4801 226.922L80.4033 226.64L80.1222 229.722L83.199 230.003L83.4801 226.922Z" fill="#F47A83"/>
<path d="M110.005 230.577L106.929 230.296L106.648 233.378L109.724 233.659L110.005 230.577Z" fill="#F47A83"/>
<path d="M111.792 210.981L108.715 210.699L108.434 213.781L111.511 214.062L111.792 210.981Z" fill="#F47A83"/>
<path d="M409.008 292.073L407.643 291.713L400.119 289.732L395.558 288.538L388.034 286.557L386.669 286.197L383.466 285.357L380.942 294.987L385.51 296.188L386.835 291.126L394.359 293.106L389.052 313.36L385.87 312.527L384.671 317.095L387.854 317.929L392.415 319.129L395.605 319.97L396.796 315.401L393.614 314.561L398.92 294.307L406.445 296.281L405.12 301.343L409.681 302.543L412.204 292.913L409.008 292.073Z" fill="white"/>
<path d="M15.2614 364.346L8.03686 365.319L7.5974 362.045L9.57499 361.778L7.94364 349.64L3.70881 350.214L4.1283 353.355L0.858952 353.795L0 347.373L18.2844 344.912L19.1433 351.334L15.874 351.774L15.4545 348.633L11.2196 349.207L12.851 361.345L14.8286 361.078L15.268 364.352L15.2614 364.346ZM8.4164 364.819L14.762 363.965L14.4424 361.565L12.4648 361.831L10.7136 348.813L15.8274 348.126L16.2468 351.268L18.6439 350.947L17.8982 345.405L0.492732 347.753L1.23849 353.295L3.63557 352.975L3.21608 349.834L8.32984 349.147L10.081 362.165L8.10345 362.432L8.42306 364.832L8.4164 364.819Z" fill="#F47A83"/>
<path d="M164.419 205.988L163.474 206.188L158.247 207.282L155.084 207.949L149.857 209.043L148.912 209.243L146.694 209.709L148.093 216.392L151.255 215.732L150.523 212.217L155.743 211.117L158.686 225.182L156.476 225.642L157.142 228.816L159.352 228.356L162.515 227.689L164.726 227.222L164.066 224.055L161.856 224.515L158.913 210.456L164.133 209.356L164.872 212.871L168.035 212.21L166.637 205.521L164.419 205.988Z" fill="white"/>
<path d="M228.874 195.251L232.829 213.951L236.784 203.774L246.446 202.113L228.874 195.251Z" fill="#F45B6D"/>
<path d="M35.6364 324.745L28.7847 315.768L16.5996 317.142L33.246 303.33L35.6364 324.745ZM19.7291 315.808L29.2242 314.734L34.278 321.357L32.4736 305.231L19.7291 315.808Z" fill="#FFC82C"/>
<path d="M361.32 333.361L353.789 335.709L351.758 344.052L346.704 329.786L361.313 333.361H361.32ZM351.638 341.671L353.216 335.175L358.769 333.441L347.769 330.747L351.638 341.671Z" fill="white"/>
<path d="M101.936 250.164L95.1838 267.864C96.3291 268.304 96.9084 269.585 96.4689 270.732C96.0295 271.885 94.7444 272.452 93.5991 272.019L92.587 271.632C91.4417 271.192 90.8624 269.911 91.3019 268.758C91.7414 267.61 93.0265 267.037 94.1717 267.477L100.924 249.777L86.7275 260.234L84.9297 278.334L89.3843 280.035L90.3963 280.422L94.8509 282.122L105.558 267.43L101.942 250.157L101.936 250.164Z" fill="#CBEAA2"/>
<path d="M94.4835 283.242L84.6123 279.465L82.9108 283.925L92.782 287.703L94.4835 283.242Z" fill="#CBEAA2"/>
<path d="M469.408 296.961V311.767C468.123 312.18 467.184 313.387 467.184 314.814C467.184 316.582 468.615 318.015 470.38 318.015H471.465C473.23 318.015 474.661 316.582 474.661 314.814C474.661 313.394 473.729 312.18 472.437 311.767V296.961L479.941 308.652L475.487 325.065H466.358L461.903 308.652L469.408 296.961ZM471.465 293.647V312.593C472.69 312.593 473.689 313.587 473.689 314.814C473.689 316.041 472.69 317.042 471.465 317.042H470.38C469.155 317.042 468.156 316.048 468.156 314.814C468.156 313.581 469.155 312.593 470.38 312.593V293.647L460.845 308.492L465.612 326.045H476.233L481 308.492L471.465 293.647Z" fill="#CBEAA2"/>
<path d="M475.34 328.172V331H466.724V328.172H475.34ZM476.312 327.199H465.745V331.974H476.312V327.199Z" fill="#CBEAA2"/>
<path d="M289.018 171.329L275.17 164.811L250.694 216.979L264.542 223.497L289.018 171.329Z" fill="#FFF1D7"/>
<path d="M287.205 171.911L275.876 166.578L270.552 177.926L281.881 183.258L287.205 171.911Z" fill="#F47A83"/>
<path d="M281.507 184.045L270.178 178.713L264.854 190.06L276.183 195.393L281.507 184.045Z" fill="#FFC82C"/>
<path d="M275.824 196.177L264.494 190.844L259.17 202.192L270.5 207.524L275.824 196.177Z" fill="#DD97D0"/>
<path d="M270.127 208.306L258.798 202.973L253.474 214.321L264.803 219.653L270.127 208.306Z" fill="#CBEAA2"/>
<path d="M49.5951 257.66L35.7061 264.09L59.8546 316.411L73.7436 309.981L49.5951 257.66Z" fill="#FFF1D7"/>
<path d="M48.8822 259.424L37.5195 264.685L42.7722 276.066L54.1349 270.805L48.8822 259.424Z" fill="#F47A83"/>
<path d="M54.4926 271.588L43.1299 276.849L48.3826 288.23L59.7453 282.969L54.4926 271.588Z" fill="#FFC82C"/>
<path d="M60.1049 283.765L48.7422 289.026L53.9949 300.406L65.3576 295.145L60.1049 283.765Z" fill="#DD97D0"/>
<path d="M65.7279 295.926L54.3652 301.187L59.6179 312.567L70.9806 307.306L65.7279 295.926Z" fill="#CBEAA2"/>
<path d="M400.122 411.775L407.312 425.303L458.112 398.215L450.921 384.688L400.122 411.775Z" fill="#FFF1D7"/>
<path d="M439.383 392.415L445.266 403.482L456.315 397.59L450.433 386.523L439.383 392.415Z" fill="#F47A83"/>
<path d="M427.576 398.716L433.459 409.783L444.509 403.891L438.626 392.824L427.576 398.716Z" fill="#FFC82C"/>
<path d="M415.75 405.021L421.633 416.088L432.683 410.196L426.8 399.129L415.75 405.021Z" fill="#DD97D0"/>
<path d="M403.943 411.315L409.826 422.382L420.876 416.49L414.993 405.423L403.943 411.315Z" fill="#CBEAA2"/>
<path d="M404.96 200.226V207.609H397.589V214.991H390.211V200.226H404.96Z" fill="white"/>
<path d="M412.338 207.609V222.381H397.589V214.991H404.96V207.609H412.338Z" fill="white"/>
<path d="M377.746 207.242V199.859H362.271V215.358H369.642V222.741H385.117V207.242H377.746ZM369.642 214.625H362.997V200.586H377.014V207.235H369.642V214.618V214.625ZM384.391 222.007H370.375V215.352H377.746V207.969H384.391V222.007Z" fill="white"/>
<path d="M374.41 400.646C373.438 400.579 372.459 400.445 371.507 400.252L371.7 399.298C372.606 399.485 373.538 399.612 374.47 399.672L374.404 400.646H374.41ZM377.34 400.646L377.273 399.672C378.206 399.612 379.131 399.478 380.043 399.292L380.243 400.245C379.291 400.445 378.312 400.579 377.34 400.646ZM368.691 399.465C367.772 399.138 366.866 398.745 366.001 398.298L366.447 397.431C367.272 397.858 368.138 398.238 369.01 398.545L368.684 399.465H368.691ZM383.06 399.465L382.733 398.545C383.606 398.231 384.471 397.858 385.297 397.424L385.743 398.291C384.878 398.745 383.972 399.138 383.06 399.465ZM363.497 396.777C362.705 396.217 361.939 395.59 361.226 394.923L361.892 394.21C362.571 394.843 363.304 395.444 364.063 395.977L363.504 396.771L363.497 396.777ZM388.24 396.771L387.681 395.977C388.44 395.437 389.166 394.843 389.845 394.21L390.511 394.923C389.798 395.59 389.032 396.211 388.24 396.777V396.771ZM359.222 392.789C358.61 392.036 358.037 391.229 357.531 390.395L358.363 389.888C358.849 390.682 359.389 391.449 359.981 392.176L359.229 392.789H359.222ZM392.508 392.776L391.756 392.162C392.342 391.442 392.888 390.669 393.367 389.875L394.2 390.382C393.693 391.215 393.127 392.022 392.508 392.776ZM356.179 387.794C355.793 386.9 355.46 385.974 355.194 385.033L356.133 384.766C356.386 385.66 356.699 386.547 357.071 387.401L356.179 387.787V387.794ZM395.545 387.774L394.652 387.387C395.025 386.534 395.338 385.647 395.591 384.746L396.53 385.006C396.27 385.947 395.937 386.881 395.551 387.774H395.545ZM354.601 382.159C354.468 381.198 354.401 380.211 354.401 379.231H355.374C355.374 380.165 355.44 381.105 355.567 382.025L354.601 382.159ZM397.123 382.139L396.157 382.005C396.284 381.085 396.344 380.145 396.344 379.211V379.171H397.316V379.211C397.316 380.191 397.249 381.172 397.116 382.139H397.123ZM355.56 376.443L354.594 376.31C354.728 375.343 354.921 374.376 355.187 373.436L356.126 373.696C355.88 374.589 355.686 375.516 355.56 376.437V376.443ZM396.15 376.383C396.024 375.463 395.831 374.536 395.578 373.642L396.517 373.376C396.783 374.316 396.983 375.283 397.116 376.25L396.15 376.383ZM357.058 371.061L356.166 370.675C356.552 369.781 357.005 368.901 357.511 368.067L358.343 368.574C357.857 369.367 357.424 370.208 357.058 371.061ZM394.639 371.008C394.266 370.154 393.833 369.321 393.347 368.527L394.18 368.02C394.686 368.854 395.145 369.728 395.531 370.621L394.639 371.015V371.008ZM359.955 366.286L359.202 365.673C359.815 364.913 360.487 364.192 361.2 363.525L361.866 364.239C361.186 364.872 360.547 365.566 359.961 366.286H359.955ZM391.729 366.246C391.143 365.526 390.497 364.839 389.818 364.206L390.484 363.492C391.196 364.159 391.869 364.879 392.488 365.633L391.736 366.253L391.729 366.246ZM364.023 362.472L363.457 361.678C364.249 361.111 365.095 360.598 365.954 360.151L366.407 361.018C365.581 361.445 364.782 361.938 364.023 362.478V362.472ZM387.647 362.438C386.888 361.898 386.083 361.411 385.257 360.984L385.703 360.117C386.569 360.564 387.408 361.078 388.207 361.638L387.647 362.432V362.438ZM368.97 359.891L368.644 358.97C369.563 358.644 370.508 358.377 371.461 358.177L371.66 359.13C370.748 359.317 369.843 359.577 368.97 359.891ZM382.694 359.871C381.815 359.557 380.909 359.31 379.997 359.124L380.19 358.17C381.149 358.363 382.094 358.63 383.013 358.957L382.687 359.877L382.694 359.871ZM374.43 358.75L374.364 357.777C375.329 357.71 376.321 357.71 377.293 357.777L377.227 358.75C376.301 358.69 375.356 358.69 374.43 358.75Z" fill="white"/>
<path d="M159.426 294.887H157.475V293.907H158.447V292.933H159.426V294.887Z" fill="white"/>
<path d="M154.392 294.887H151.309V293.913H154.392V294.887ZM148.226 294.887H145.143V293.913H148.226V294.887ZM142.06 294.887H138.978V293.913H142.06V294.887Z" fill="white"/>
<path d="M135.908 294.887H133.957V292.933H134.936V293.907H135.908V294.887Z" fill="white"/>
<path d="M134.936 289.845H133.964V286.758H134.936V289.845ZM134.936 283.67H133.964V280.582H134.936V283.67ZM134.936 277.494H133.964V274.406H134.936V277.494Z" fill="white"/>
<path d="M134.936 271.332H133.957V269.385H135.908V270.358H134.936V271.332Z" fill="white"/>
<path d="M154.392 270.358H151.309V269.385H154.392V270.358ZM148.226 270.358H145.143V269.385H148.226V270.358ZM142.06 270.358H138.978V269.385H142.06V270.358Z" fill="white"/>
<path d="M159.426 271.332H158.447V270.358H157.475V269.385H159.426V271.332Z" fill="white"/>
<path d="M159.426 289.845H158.454V286.758H159.426V289.845ZM159.426 283.67H158.454V280.582H159.426V283.67ZM159.426 277.494H158.454V274.406H159.426V277.494Z" fill="white"/>
<path d="M241.598 0L221.676 62.356H199.177L189.129 29.0439L178.548 62.356H156.049L136.12 0H157.734L168.587 35.4529L180.053 0H199.35L210.196 35.8997L221.676 0H241.598Z" fill="#606060"/>
<path d="M293.535 42.6687H259.736C260.449 44.5094 261.634 45.9166 263.292 46.8969C264.95 47.8773 267.027 48.3641 269.518 48.3641C271.655 48.3641 273.446 48.0974 274.898 47.5639C276.349 47.0303 277.934 46.11 279.659 44.8029L290.152 55.4C285.405 60.6286 278.327 63.2362 268.898 63.2362C263.026 63.2362 257.872 62.1558 253.424 59.9884C248.976 57.8209 245.54 54.8065 243.11 50.9451C240.679 47.0837 239.461 42.7488 239.461 37.9404C239.461 33.1319 240.659 28.7237 243.063 24.889C245.467 21.0609 248.756 18.0731 252.938 15.939C257.119 13.7983 261.814 12.7312 267.034 12.7312C271.955 12.7312 276.442 13.7116 280.511 15.6723C284.573 17.633 287.802 20.514 290.206 24.3154C292.609 28.1168 293.808 32.6584 293.808 37.947C293.808 38.2471 293.721 39.821 293.542 42.6687H293.535ZM262.053 28.1501C260.688 29.2772 259.803 30.8845 259.383 32.9585H275.038C274.625 30.9378 273.732 29.3506 272.367 28.1902C271.002 27.0297 269.285 26.4562 267.207 26.4562C265.13 26.4562 263.412 27.0231 262.047 28.1501H262.053Z" fill="#606060"/>
<path d="M143.418 55.0599V128.727H118.622V101.577H95.7163V128.727H70.9199V55.0599H95.7163V81.1561H118.622V55.0599H143.418Z" fill="#606060"/>
<path d="M154.658 71.1592H178.403V128.727H154.658V71.1592Z" fill="#606060"/>
<path d="M230.099 70.1121V91.1597C228.208 90.8796 226.457 90.7396 224.846 90.7396C216.722 90.7396 212.66 94.8811 212.66 103.157V128.733H188.916V71.1658H211.508V77.3747C215.71 72.5329 221.909 70.1121 230.106 70.1121H230.099Z" fill="#606060"/>
<path d="M236.824 71.1592H260.569V128.727H236.824V71.1592Z" fill="#606060"/>
<path d="M328.073 76.5278C332.381 80.8094 334.532 87.265 334.532 95.8948V128.727H310.788V99.9963C310.788 93.4006 308.437 90.1061 303.75 90.1061C301.086 90.1061 298.936 91.0397 297.291 92.8937C295.646 94.7544 294.821 97.6821 294.821 101.684V128.727H271.076V71.1592H293.669V76.8412C295.913 74.5938 298.503 72.9132 301.446 71.7927C304.389 70.6723 307.572 70.1055 311.007 70.1055C318.079 70.1055 323.772 72.2462 328.08 76.5278H328.073Z" fill="#606060"/>
<path d="M410.086 71.1591V117.256C410.086 128.2 407.057 136.423 400.997 141.931C394.938 147.44 386.302 150.194 375.096 150.194C369.349 150.194 363.989 149.581 359.022 148.354C354.048 147.127 349.813 145.353 346.311 143.039L354.294 126.833C356.538 128.513 359.375 129.887 362.804 130.934C366.233 131.988 369.529 132.515 372.679 132.515C377.439 132.515 380.909 131.494 383.079 129.46C385.25 127.426 386.335 124.445 386.335 120.517V119.463C382.76 123.531 377.473 125.566 370.468 125.566C365.561 125.566 360.993 124.425 356.758 122.144C352.516 119.863 349.141 116.602 346.617 112.354C344.093 108.113 342.835 103.251 342.835 97.7754C342.835 92.3001 344.093 87.465 346.617 83.2502C349.141 79.042 352.516 75.7941 356.758 73.5133C360.993 71.2325 365.567 70.092 370.468 70.092C378.312 70.092 383.985 72.6196 387.487 77.6681V71.1458H410.08L410.086 71.1591ZM383.765 104.465C385.623 102.744 386.548 100.516 386.548 97.7821C386.548 95.0478 385.616 92.8336 383.765 91.153C381.907 89.4724 379.577 88.6254 376.78 88.6254C373.984 88.6254 371.54 89.4657 369.689 91.153C367.831 92.8336 366.906 95.0478 366.906 97.7821C366.906 100.516 367.851 102.744 369.742 104.465C371.633 106.185 373.977 107.045 376.78 107.045C379.583 107.045 381.914 106.185 383.765 104.465Z" fill="#606060"/>
<path d="M323.412 37.8536C325.549 39.6743 326.621 42.4686 326.621 46.2433V58.6745H317.758V55.6334C316.66 57.9476 314.482 59.1014 311.213 59.1014C309.382 59.1014 307.831 58.7812 306.545 58.1477C305.267 57.5141 304.295 56.6538 303.636 55.5667C302.976 54.4797 302.644 53.2592 302.644 51.9121C302.644 49.6312 303.516 47.8973 305.26 46.7102C307.005 45.5231 309.648 44.9362 313.197 44.9362H317.039C316.726 43.1356 315.281 42.2286 312.691 42.2286C311.653 42.2286 310.594 42.3886 309.522 42.7154C308.45 43.0422 307.538 43.4823 306.779 44.0492L303.736 37.7469C305.061 36.9266 306.652 36.2864 308.53 35.8262C310.401 35.3594 312.265 35.126 314.123 35.126C318.178 35.126 321.274 36.033 323.412 37.8536ZM315.894 52.7991C316.427 52.4323 316.82 51.8854 317.079 51.1518V49.5445H314.715C312.771 49.5445 311.806 50.1914 311.806 51.4919C311.806 52.0254 312.012 52.4723 312.418 52.8257C312.824 53.1792 313.384 53.3526 314.083 53.3526C314.782 53.3526 315.361 53.1725 315.901 52.8057L315.894 52.7991Z" fill="#606060"/>
<path d="M347.302 35.126V43.5824C346.543 43.469 345.837 43.4157 345.192 43.4157C341.929 43.4157 340.298 45.0763 340.298 48.4041V58.6812H330.756V35.5528H339.831V38.047C341.523 36.0997 344.013 35.1326 347.302 35.1326V35.126Z" fill="#606060"/>
<path d="M374.236 49.3311H358.196C358.536 50.2048 359.095 50.8717 359.887 51.3385C360.673 51.8054 361.658 52.0388 362.844 52.0388C363.856 52.0388 364.708 51.9121 365.401 51.6586C366.093 51.4052 366.845 50.9651 367.658 50.3448L372.638 55.38C370.388 57.8609 367.025 59.1014 362.551 59.1014C359.767 59.1014 357.317 58.5878 355.206 57.5608C353.096 56.5338 351.464 55.0999 350.312 53.2659C349.16 51.4319 348.581 49.3778 348.581 47.0903C348.581 44.8028 349.154 42.7154 350.292 40.8947C351.431 39.0741 352.996 37.6602 354.98 36.6465C356.964 35.6328 359.195 35.126 361.672 35.126C364.009 35.126 366.14 35.5928 368.071 36.5198C369.995 37.4468 371.533 38.8207 372.672 40.6213C373.81 42.4286 374.383 44.5827 374.383 47.0903C374.383 47.2304 374.343 47.9773 374.256 49.3311H374.236ZM359.295 42.442C358.649 42.9755 358.223 43.7358 358.03 44.7228H365.46C365.261 43.7624 364.841 43.0088 364.195 42.462C363.549 41.9151 362.73 41.635 361.745 41.635C360.76 41.635 359.941 41.9018 359.295 42.4353V42.442Z" fill="#606060"/>
</g>
<defs>
<linearGradient id="paint0_linear_151_6793" x1="445.057" y1="309.426" x2="298.927" y2="355.124" gradientUnits="userSpaceOnUse">
<stop/>
<stop offset="1"/>
</linearGradient>
<linearGradient id="paint1_linear_151_6793" x1="184.528" y1="476.293" x2="324.847" y2="246.614" gradientUnits="userSpaceOnUse">
<stop/>
<stop offset="1"/>
</linearGradient>
<linearGradient id="paint2_linear_151_6793" x1="78.5972" y1="290.305" x2="189.755" y2="290.305" gradientUnits="userSpaceOnUse">
<stop stop-color="#EDD6A2"/>
<stop offset="0.97" stop-color="#FFF2DC"/>
</linearGradient>
<linearGradient id="paint3_linear_151_6793" x1="390.21" y1="380.085" x2="374.038" y2="351.957" gradientUnits="userSpaceOnUse">
<stop stop-color="white"/>
<stop offset="1" stop-color="white"/>
</linearGradient>
<linearGradient id="paint4_linear_151_6793" x1="406.57" y1="260.088" x2="368.045" y2="193.083" gradientUnits="userSpaceOnUse">
<stop stop-color="white"/>
<stop offset="1" stop-color="white"/>
</linearGradient>
<linearGradient id="paint5_linear_151_6793" x1="291.477" y1="237.973" x2="272.402" y2="204.8" gradientUnits="userSpaceOnUse">
<stop stop-color="white"/>
<stop offset="1" stop-color="white"/>
</linearGradient>
<linearGradient id="paint6_linear_151_6793" x1="91.0818" y1="366.973" x2="128.282" y2="320.12" gradientUnits="userSpaceOnUse">
<stop stop-color="white"/>
<stop offset="1" stop-color="white"/>
</linearGradient>
<linearGradient id="paint7_linear_151_6793" x1="178.882" y1="247.263" x2="163.577" y2="200.013" gradientUnits="userSpaceOnUse">
<stop stop-color="white"/>
<stop offset="1" stop-color="white"/>
</linearGradient>
<linearGradient id="paint8_linear_151_6793" x1="243.869" y1="409.742" x2="223.049" y2="404.03" gradientUnits="userSpaceOnUse">
<stop/>
<stop offset="1"/>
</linearGradient>
<linearGradient id="paint9_linear_151_6793" x1="308.89" y1="389.101" x2="242.386" y2="429.836" gradientUnits="userSpaceOnUse">
<stop stop-color="#F9A115"/>
<stop offset="0.83" stop-color="#FFC229"/>
</linearGradient>
<linearGradient id="paint10_linear_151_6793" x1="314.662" y1="388.875" x2="272.61" y2="414.631" gradientUnits="userSpaceOnUse">
<stop/>
<stop offset="1"/>
</linearGradient>
<linearGradient id="paint11_linear_151_6793" x1="262.346" y1="434.224" x2="97.7592" y2="527.828" gradientUnits="userSpaceOnUse">
<stop stop-color="#EDD6A2"/>
<stop offset="0.97" stop-color="#FFF2DC"/>
</linearGradient>
<linearGradient id="paint12_linear_151_6793" x1="297.41" y1="397.244" x2="328.928" y2="376.962" gradientUnits="userSpaceOnUse">
<stop/>
<stop offset="1"/>
</linearGradient>
<linearGradient id="paint13_linear_151_6793" x1="213.02" y1="427.222" x2="193.24" y2="421.856" gradientUnits="userSpaceOnUse">
<stop/>
<stop offset="1"/>
</linearGradient>
<linearGradient id="paint14_linear_151_6793" x1="201.754" y1="415.137" x2="209.405" y2="415.137" gradientUnits="userSpaceOnUse">
<stop stop-color="white"/>
<stop offset="1" stop-color="white"/>
</linearGradient>
<linearGradient id="paint15_linear_151_6793" x1="281.103" y1="433.624" x2="292.914" y2="438.073" gradientUnits="userSpaceOnUse">
<stop stop-color="#87503A"/>
<stop offset="0.83" stop-color="#6D3C26"/>
</linearGradient>
<linearGradient id="paint16_linear_151_6793" x1="287.988" y1="436.112" x2="299.201" y2="436.112" gradientUnits="userSpaceOnUse">
<stop stop-color="#87503A"/>
<stop offset="0.83" stop-color="#6D3C26"/>
</linearGradient>
<linearGradient id="paint17_linear_151_6793" x1="317.745" y1="437.959" x2="329.204" y2="437.959" gradientUnits="userSpaceOnUse">
<stop stop-color="#87503A"/>
<stop offset="0.83" stop-color="#6D3C26"/>
</linearGradient>
<linearGradient id="paint18_linear_151_6793" x1="325.236" y1="438.399" x2="336.21" y2="438.399" gradientUnits="userSpaceOnUse">
<stop stop-color="#87503A"/>
<stop offset="0.83" stop-color="#6D3C26"/>
</linearGradient>
<linearGradient id="paint19_linear_151_6793" x1="332.215" y1="438.853" x2="343.741" y2="438.853" gradientUnits="userSpaceOnUse">
<stop stop-color="#87503A"/>
<stop offset="0.83" stop-color="#6D3C26"/>
</linearGradient>
<linearGradient id="paint20_linear_151_6793" x1="339.832" y1="439.313" x2="350.938" y2="439.313" gradientUnits="userSpaceOnUse">
<stop stop-color="#87503A"/>
<stop offset="0.83" stop-color="#6D3C26"/>
</linearGradient>
<linearGradient id="paint21_linear_151_6793" x1="347.189" y1="439.746" x2="357.683" y2="439.746" gradientUnits="userSpaceOnUse">
<stop stop-color="#87503A"/>
<stop offset="0.83" stop-color="#6D3C26"/>
</linearGradient>
<linearGradient id="paint22_linear_151_6793" x1="360.64" y1="440.6" x2="371.733" y2="440.6" gradientUnits="userSpaceOnUse">
<stop stop-color="#87503A"/>
<stop offset="0.83" stop-color="#6D3C26"/>
</linearGradient>
<linearGradient id="paint23_linear_151_6793" x1="375.169" y1="441.434" x2="384.038" y2="441.434" gradientUnits="userSpaceOnUse">
<stop stop-color="#87503A"/>
<stop offset="0.83" stop-color="#6D3C26"/>
</linearGradient>
<linearGradient id="paint24_linear_151_6793" x1="372.146" y1="446.869" x2="381.135" y2="446.869" gradientUnits="userSpaceOnUse">
<stop stop-color="#87503A"/>
<stop offset="0.83" stop-color="#6D3C26"/>
</linearGradient>
<linearGradient id="paint25_linear_151_6793" x1="365.381" y1="446.442" x2="375.169" y2="446.442" gradientUnits="userSpaceOnUse">
<stop stop-color="#87503A"/>
<stop offset="0.83" stop-color="#6D3C26"/>
</linearGradient>
<linearGradient id="paint26_linear_151_6793" x1="357.443" y1="445.969" x2="368.403" y2="445.969" gradientUnits="userSpaceOnUse">
<stop stop-color="#87503A"/>
<stop offset="0.83" stop-color="#6D3C26"/>
</linearGradient>
<linearGradient id="paint27_linear_151_6793" x1="350.646" y1="445.495" x2="360.64" y2="445.495" gradientUnits="userSpaceOnUse">
<stop stop-color="#87503A"/>
<stop offset="0.83" stop-color="#6D3C26"/>
</linearGradient>
<linearGradient id="paint28_linear_151_6793" x1="343.66" y1="445.055" x2="354.014" y2="445.055" gradientUnits="userSpaceOnUse">
<stop stop-color="#87503A"/>
<stop offset="0.83" stop-color="#6D3C26"/>
</linearGradient>
<linearGradient id="paint29_linear_151_6793" x1="336.183" y1="444.595" x2="347.189" y2="444.595" gradientUnits="userSpaceOnUse">
<stop stop-color="#87503A"/>
<stop offset="0.83" stop-color="#6D3C26"/>
</linearGradient>
<linearGradient id="paint30_linear_151_6793" x1="328.445" y1="444.101" x2="339.831" y2="444.101" gradientUnits="userSpaceOnUse">
<stop stop-color="#87503A"/>
<stop offset="0.83" stop-color="#6D3C26"/>
</linearGradient>
<linearGradient id="paint31_linear_151_6793" x1="321.468" y1="443.628" x2="332.215" y2="443.628" gradientUnits="userSpaceOnUse">
<stop stop-color="#87503A"/>
<stop offset="0.83" stop-color="#6D3C26"/>
</linearGradient>
<linearGradient id="paint32_linear_151_6793" x1="313.977" y1="443.154" x2="325.236" y2="443.154" gradientUnits="userSpaceOnUse">
<stop stop-color="#87503A"/>
<stop offset="0.83" stop-color="#6D3C26"/>
</linearGradient>
<linearGradient id="paint33_linear_151_6793" x1="306.479" y1="442.667" x2="317.746" y2="442.667" gradientUnits="userSpaceOnUse">
<stop stop-color="#87503A"/>
<stop offset="0.83" stop-color="#6D3C26"/>
</linearGradient>
<linearGradient id="paint34_linear_151_6793" x1="298.988" y1="442.187" x2="310.248" y2="442.187" gradientUnits="userSpaceOnUse">
<stop stop-color="#87503A"/>
<stop offset="0.83" stop-color="#6D3C26"/>
</linearGradient>
<linearGradient id="paint35_linear_151_6793" x1="291.604" y1="441.7" x2="302.757" y2="441.7" gradientUnits="userSpaceOnUse">
<stop stop-color="#87503A"/>
<stop offset="0.83" stop-color="#6D3C26"/>
</linearGradient>
<linearGradient id="paint36_linear_151_6793" x1="277.049" y1="440.76" x2="287.989" y2="440.76" gradientUnits="userSpaceOnUse">
<stop stop-color="#87503A"/>
<stop offset="0.83" stop-color="#6D3C26"/>
</linearGradient>
<linearGradient id="paint37_linear_151_6793" x1="272.834" y1="445.922" x2="284.22" y2="445.922" gradientUnits="userSpaceOnUse">
<stop stop-color="#87503A"/>
<stop offset="0.83" stop-color="#6D3C26"/>
</linearGradient>
<linearGradient id="paint38_linear_151_6793" x1="369.036" y1="452.097" x2="378.538" y2="452.097" gradientUnits="userSpaceOnUse">
<stop stop-color="#87503A"/>
<stop offset="0.83" stop-color="#6D3C26"/>
</linearGradient>
<linearGradient id="paint39_linear_151_6793" x1="365.667" y1="457.64" x2="375.861" y2="457.64" gradientUnits="userSpaceOnUse">
<stop stop-color="#87503A"/>
<stop offset="0.83" stop-color="#6D3C26"/>
</linearGradient>
<linearGradient id="paint40_linear_151_6793" x1="358.908" y1="457.173" x2="369.036" y2="457.173" gradientUnits="userSpaceOnUse">
<stop stop-color="#87503A"/>
<stop offset="0.83" stop-color="#6D3C26"/>
</linearGradient>
<linearGradient id="paint41_linear_151_6793" x1="350.605" y1="456.679" x2="362.265" y2="456.679" gradientUnits="userSpaceOnUse">
<stop stop-color="#87503A"/>
<stop offset="0.83" stop-color="#6D3C26"/>
</linearGradient>
<linearGradient id="paint42_linear_151_6793" x1="343.44" y1="456.172" x2="354.147" y2="456.172" gradientUnits="userSpaceOnUse">
<stop stop-color="#87503A"/>
<stop offset="0.83" stop-color="#6D3C26"/>
</linearGradient>
<linearGradient id="paint43_linear_151_6793" x1="336.137" y1="455.699" x2="347.163" y2="455.699" gradientUnits="userSpaceOnUse">
<stop stop-color="#87503A"/>
<stop offset="0.83" stop-color="#6D3C26"/>
</linearGradient>
<linearGradient id="paint44_linear_151_6793" x1="328.426" y1="455.205" x2="340.018" y2="455.205" gradientUnits="userSpaceOnUse">
<stop stop-color="#87503A"/>
<stop offset="0.83" stop-color="#6D3C26"/>
</linearGradient>
<linearGradient id="paint45_linear_151_6793" x1="320.449" y1="454.692" x2="332.421" y2="454.692" gradientUnits="userSpaceOnUse">
<stop stop-color="#87503A"/>
<stop offset="0.83" stop-color="#6D3C26"/>
</linearGradient>
<linearGradient id="paint46_linear_151_6793" x1="313.484" y1="454.198" x2="324.558" y2="454.198" gradientUnits="userSpaceOnUse">
<stop stop-color="#87503A"/>
<stop offset="0.83" stop-color="#6D3C26"/>
</linearGradient>
<linearGradient id="paint47_linear_151_6793" x1="306.007" y1="453.718" x2="317.579" y2="453.718" gradientUnits="userSpaceOnUse">
<stop stop-color="#87503A"/>
<stop offset="0.83" stop-color="#6D3C26"/>
</linearGradient>
<linearGradient id="paint48_linear_151_6793" x1="298.529" y1="453.218" x2="310.089" y2="453.218" gradientUnits="userSpaceOnUse">
<stop stop-color="#87503A"/>
<stop offset="0.83" stop-color="#6D3C26"/>
</linearGradient>
<linearGradient id="paint49_linear_151_6793" x1="291.052" y1="452.724" x2="302.598" y2="452.724" gradientUnits="userSpaceOnUse">
<stop stop-color="#87503A"/>
<stop offset="0.83" stop-color="#6D3C26"/>
</linearGradient>
<linearGradient id="paint50_linear_151_6793" x1="284.014" y1="452.231" x2="295.1" y2="452.231" gradientUnits="userSpaceOnUse">
<stop stop-color="#87503A"/>
<stop offset="0.83" stop-color="#6D3C26"/>
</linearGradient>
<linearGradient id="paint51_linear_151_6793" x1="276.31" y1="451.757" x2="287.716" y2="451.757" gradientUnits="userSpaceOnUse">
<stop stop-color="#87503A"/>
<stop offset="0.83" stop-color="#6D3C26"/>
</linearGradient>
<linearGradient id="paint52_linear_151_6793" x1="268.492" y1="451.251" x2="280.331" y2="451.251" gradientUnits="userSpaceOnUse">
<stop stop-color="#87503A"/>
<stop offset="0.83" stop-color="#6D3C26"/>
</linearGradient>
<linearGradient id="paint53_linear_151_6793" x1="88.1644" y1="475.178" x2="122.878" y2="414.745" gradientUnits="userSpaceOnUse">
<stop/>
<stop offset="1"/>
</linearGradient>
<linearGradient id="paint54_linear_151_6793" x1="43.2836" y1="391.812" x2="179.998" y2="395.339" gradientUnits="userSpaceOnUse">
<stop stop-color="#F9A115"/>
<stop offset="0.83" stop-color="#FFC229"/>
</linearGradient>
<linearGradient id="paint55_linear_151_6793" x1="127.243" y1="413.739" x2="201.121" y2="385.387" gradientUnits="userSpaceOnUse">
<stop stop-color="#E8CEA0"/>
<stop offset="0.83" stop-color="#FFECC5"/>
</linearGradient>
<linearGradient id="paint56_linear_151_6793" x1="88.857" y1="474.148" x2="126.032" y2="409.426" gradientUnits="userSpaceOnUse">
<stop stop-color="#E8CEA0"/>
<stop offset="0.83" stop-color="#FFECC5"/>
</linearGradient>
<linearGradient id="paint57_linear_151_6793" x1="100.049" y1="477.687" x2="140.618" y2="462.893" gradientUnits="userSpaceOnUse">
<stop stop-color="#D1B07C"/>
<stop offset="0.84" stop-color="#FFECC5"/>
</linearGradient>
<linearGradient id="paint58_linear_151_6793" x1="284.22" y1="441.22" x2="295.373" y2="441.22" gradientUnits="userSpaceOnUse">
<stop stop-color="#87503A"/>
<stop offset="0.83" stop-color="#6D3C26"/>
</linearGradient>
<linearGradient id="paint59_linear_151_6793" x1="295.373" y1="436.572" x2="306.619" y2="436.572" gradientUnits="userSpaceOnUse">
<stop stop-color="#87503A"/>
<stop offset="0.83" stop-color="#6D3C26"/>
</linearGradient>
<linearGradient id="paint60_linear_151_6793" x1="302.757" y1="437.025" x2="314.15" y2="437.025" gradientUnits="userSpaceOnUse">
<stop stop-color="#87503A"/>
<stop offset="0.83" stop-color="#6D3C26"/>
</linearGradient>
<linearGradient id="paint61_linear_151_6793" x1="310.248" y1="437.492" x2="321.681" y2="437.492" gradientUnits="userSpaceOnUse">
<stop stop-color="#87503A"/>
<stop offset="0.83" stop-color="#6D3C26"/>
</linearGradient>
<linearGradient id="paint62_linear_151_6793" x1="354.015" y1="440.16" x2="364.136" y2="440.16" gradientUnits="userSpaceOnUse">
<stop stop-color="#87503A"/>
<stop offset="0.83" stop-color="#6D3C26"/>
</linearGradient>
<linearGradient id="paint63_linear_151_6793" x1="368.403" y1="441.04" x2="378.524" y2="441.04" gradientUnits="userSpaceOnUse">
<stop stop-color="#87503A"/>
<stop offset="0.83" stop-color="#6D3C26"/>
</linearGradient>
<linearGradient id="paint64_linear_151_6793" x1="280.331" y1="446.395" x2="291.604" y2="446.395" gradientUnits="userSpaceOnUse">
<stop stop-color="#87503A"/>
<stop offset="0.83" stop-color="#6D3C26"/>
</linearGradient>
<linearGradient id="paint65_linear_151_6793" x1="287.716" y1="446.869" x2="298.989" y2="446.869" gradientUnits="userSpaceOnUse">
<stop stop-color="#87503A"/>
<stop offset="0.83" stop-color="#6D3C26"/>
</linearGradient>
<linearGradient id="paint66_linear_151_6793" x1="302.598" y1="447.843" x2="313.977" y2="447.843" gradientUnits="userSpaceOnUse">
<stop stop-color="#87503A"/>
<stop offset="0.83" stop-color="#6D3C26"/>
</linearGradient>
<linearGradient id="paint67_linear_151_6793" x1="295.1" y1="447.356" x2="306.479" y2="447.356" gradientUnits="userSpaceOnUse">
<stop stop-color="#87503A"/>
<stop offset="0.83" stop-color="#6D3C26"/>
</linearGradient>
<linearGradient id="paint68_linear_151_6793" x1="310.088" y1="448.323" x2="321.467" y2="448.323" gradientUnits="userSpaceOnUse">
<stop stop-color="#87503A"/>
<stop offset="0.83" stop-color="#6D3C26"/>
</linearGradient>
<linearGradient id="paint69_linear_151_6793" x1="324.557" y1="449.276" x2="336.182" y2="449.276" gradientUnits="userSpaceOnUse">
<stop stop-color="#87503A"/>
<stop offset="0.83" stop-color="#6D3C26"/>
</linearGradient>
<linearGradient id="paint70_linear_151_6793" x1="317.579" y1="448.796" x2="328.446" y2="448.796" gradientUnits="userSpaceOnUse">
<stop stop-color="#87503A"/>
<stop offset="0.83" stop-color="#6D3C26"/>
</linearGradient>
<linearGradient id="paint71_linear_151_6793" x1="332.421" y1="449.77" x2="343.661" y2="449.77" gradientUnits="userSpaceOnUse">
<stop stop-color="#87503A"/>
<stop offset="0.83" stop-color="#6D3C26"/>
</linearGradient>
<linearGradient id="paint72_linear_151_6793" x1="340.019" y1="450.25" x2="350.646" y2="450.25" gradientUnits="userSpaceOnUse">
<stop stop-color="#87503A"/>
<stop offset="0.83" stop-color="#6D3C26"/>
</linearGradient>
<linearGradient id="paint73_linear_151_6793" x1="347.163" y1="450.697" x2="357.444" y2="450.697" gradientUnits="userSpaceOnUse">
<stop stop-color="#87503A"/>
<stop offset="0.83" stop-color="#6D3C26"/>
</linearGradient>
<linearGradient id="paint74_linear_151_6793" x1="354.147" y1="451.184" x2="365.38" y2="451.184" gradientUnits="userSpaceOnUse">
<stop stop-color="#87503A"/>
<stop offset="0.83" stop-color="#6D3C26"/>
</linearGradient>
<linearGradient id="paint75_linear_151_6793" x1="362.265" y1="451.664" x2="372.146" y2="451.664" gradientUnits="userSpaceOnUse">
<stop stop-color="#87503A"/>
<stop offset="0.83" stop-color="#6D3C26"/>
</linearGradient>
<linearGradient id="paint76_linear_151_6793" x1="337.648" y1="439.24" x2="316.278" y2="416.338" gradientUnits="userSpaceOnUse">
<stop/>
<stop offset="1"/>
</linearGradient>
<linearGradient id="paint77_linear_151_6793" x1="316.141" y1="453.805" x2="323.621" y2="422.886" gradientUnits="userSpaceOnUse">
<stop/>
<stop offset="1"/>
</linearGradient>
<linearGradient id="paint78_linear_151_6793" x1="327.301" y1="448.896" x2="305.931" y2="425.995" gradientUnits="userSpaceOnUse">
<stop/>
<stop offset="1"/>
</linearGradient>
<linearGradient id="paint79_linear_151_6793" x1="324.237" y1="451.751" x2="302.867" y2="428.849" gradientUnits="userSpaceOnUse">
<stop/>
<stop offset="1"/>
</linearGradient>
<linearGradient id="paint80_linear_151_6793" x1="249.283" y1="293.126" x2="257.111" y2="342.12" gradientUnits="userSpaceOnUse">
<stop/>
<stop offset="1"/>
</linearGradient>
<linearGradient id="paint81_linear_151_6793" x1="315.941" y1="330.187" x2="243.081" y2="337.805" gradientUnits="userSpaceOnUse">
<stop/>
<stop offset="1"/>
</linearGradient>
<linearGradient id="paint82_linear_151_6793" x1="293.402" y1="339.51" x2="308.233" y2="342.888" gradientUnits="userSpaceOnUse">
<stop/>
<stop offset="1"/>
</linearGradient>
<linearGradient id="paint83_linear_151_6793" x1="177.337" y1="363.879" x2="224.732" y2="338.659" gradientUnits="userSpaceOnUse">
<stop stop-color="white"/>
<stop offset="1" stop-color="white"/>
</linearGradient>
<linearGradient id="paint84_linear_151_6793" x1="186.905" y1="260.308" x2="321.229" y2="312.031" gradientUnits="userSpaceOnUse">
<stop stop-color="#87503A"/>
<stop offset="1" stop-color="#5B311B"/>
</linearGradient>
<linearGradient id="paint85_linear_151_6793" x1="305.833" y1="259.021" x2="264.489" y2="293.702" gradientUnits="userSpaceOnUse">
<stop/>
<stop offset="1"/>
</linearGradient>
<linearGradient id="paint86_linear_151_6793" x1="176.111" y1="310.226" x2="202.17" y2="286.292" gradientUnits="userSpaceOnUse">
<stop stop-color="white"/>
<stop offset="1" stop-color="white"/>
</linearGradient>
<linearGradient id="paint87_linear_151_6793" x1="216.115" y1="246.75" x2="218.532" y2="246.75" gradientUnits="userSpaceOnUse">
<stop stop-color="white"/>
<stop offset="1" stop-color="white"/>
</linearGradient>
<linearGradient id="paint88_linear_151_6793" x1="205.283" y1="486.003" x2="181.333" y2="496.519" gradientUnits="userSpaceOnUse">
<stop stop-color="#F9A115"/>
<stop offset="1" stop-color="#FFC229"/>
</linearGradient>
<linearGradient id="paint89_linear_151_6793" x1="191.447" y1="493.699" x2="192.028" y2="477.827" gradientUnits="userSpaceOnUse">
<stop stop-color="#F9A115"/>
<stop offset="0.83" stop-color="#FFC229"/>
</linearGradient>
<linearGradient id="paint90_linear_151_6793" x1="175.353" y1="481.195" x2="207.214" y2="481.195" gradientUnits="userSpaceOnUse">
<stop stop-color="#F9A115"/>
<stop offset="0.83" stop-color="#FFC229"/>
</linearGradient>
<linearGradient id="paint91_linear_151_6793" x1="175.572" y1="471.511" x2="206.967" y2="471.511" gradientUnits="userSpaceOnUse">
<stop stop-color="#F9A115"/>
<stop offset="0.83" stop-color="#FFC229"/>
</linearGradient>
<linearGradient id="paint92_linear_151_6793" x1="202.08" y1="483.802" x2="213.202" y2="473.516" gradientUnits="userSpaceOnUse">
<stop stop-color="#F9A115"/>
<stop offset="0.46" stop-color="#FFC229"/>
</linearGradient>
<clipPath id="clip0_151_6793">
<rect width="481" height="514" fill="white"/>
</clipPath>
</defs>
</svg>
